<?xml version="1.0" encoding="UTF-8" standalone="no"?>
<svg
   xmlns:dc="http://purl.org/dc/elements/1.1/"
   xmlns:cc="http://creativecommons.org/ns#"
   xmlns:rdf="http://www.w3.org/1999/02/22-rdf-syntax-ns#"
   xmlns:svg="http://www.w3.org/2000/svg"
   xmlns="http://www.w3.org/2000/svg"
   xmlns:sodipodi="http://sodipodi.sourceforge.net/DTD/sodipodi-0.dtd"
   xmlns:inkscape="http://www.inkscape.org/namespaces/inkscape"
   id="Layer_4"
   viewBox="0 0 839 200"
   version="1.1"
   sodipodi:docname="logo-monochrome-new.svg"
   inkscape:version="0.92.2 (5c3e80d, 2017-08-06)">
  <metadata
     id="metadata12">
    <rdf:RDF>
      <cc:Work
         rdf:about="">
        <dc:format>image/svg+xml</dc:format>
        <dc:type
           rdf:resource="http://purl.org/dc/dcmitype/StillImage" />
        <dc:title></dc:title>
      </cc:Work>
    </rdf:RDF>
  </metadata>
  <defs
     id="defs10" />
  <sodipodi:namedview
     pagecolor="#ffffff"
     bordercolor="#666666"
     borderopacity="1"
     objecttolerance="10"
     gridtolerance="10"
     guidetolerance="10"
     inkscape:pageopacity="0"
     inkscape:pageshadow="2"
     inkscape:window-width="2477"
     inkscape:window-height="1385"
     id="namedview8"
     showgrid="false"
     inkscape:zoom="0.52085816"
     inkscape:cx="419.5"
     inkscape:cy="100"
     inkscape:window-x="83"
     inkscape:window-y="27"
     inkscape:window-maximized="1"
     inkscape:current-layer="Layer_4" />
  <style
     id="style2">.st0{fill:#673AB7;}</style>
  <path
     inkscape:connector-curvature="0"
     class="st0"
     d="m 113.68489,129.48369 9.78688,-16.64236 c 1.75134,-2.84138 2.88456,-6.29163 2.88456,-9.94484 0,-3.653192 -0.92718,-7.001972 -2.88456,-9.944822 L 69.180327,0.6068284 H 37.965317 Z M 55.890767,107.97038 -0.15201327,203.56251 H 30.959967 l 40.58981,-69.00492 z m 39.25055,52.97145 14.319763,-24.2532 L 29.826757,0.6068284 H 1.2902667 Z m -19.47074,-19.17931 -36.366,61.79999 h 30.90594 l 20.91303,-35.51724 z"
     id="path5-3"
     style="fill:#000000;stroke-width:1.02245927" />
  <g
     style="fill:#000000"
     id="Group-2"
     transform="matrix(1.8,0,0,1.8,166.91266,11.632148)">
    <path
       inkscape:connector-curvature="0"
       d="M 18.96,60.32 V 98 H 13.44 V 60.32 h -12 v -5.28 h 29.52 v 5.28 z M 29.28,83.3 c 0,-4.520023 1.419986,-8.259985 4.26,-11.22 2.880014,-2.960015 6.499978,-4.44 10.86,-4.44 4.360022,0 7.959986,1.479985 10.8,4.44 2.880014,2.960015 4.32,6.699977 4.32,11.22 0,4.560023 -1.439986,8.299985 -4.32,11.22 -2.840014,2.960015 -6.439978,4.44 -10.8,4.44 -4.360022,0 -7.979986,-1.479985 -10.86,-4.44 -2.840014,-2.960015 -4.26,-6.699977 -4.26,-11.22 z m 5.52,0 c 0,3.160016 0.919991,5.71999 2.76,7.68 1.840009,1.96001 4.119986,2.94 6.84,2.94 2.720014,0 4.999991,-0.97999 6.84,-2.94 1.840009,-1.96001 2.76,-4.519984 2.76,-7.68 0,-3.120016 -0.919991,-5.65999 -2.76,-7.62 -1.880009,-2.00001 -4.159987,-3 -6.84,-3 -2.680013,0 -4.959991,0.99999 -6.84,3 -1.840009,1.96001 -2.76,4.499984 -2.76,7.62 z M 90.06,98 h -5.28 v -4.08 h -0.24 c -0.840004,1.440007 -2.129991,2.639995 -3.87,3.6 -1.740009,0.960005 -3.549991,1.44 -5.43,1.44 -3.600018,0 -6.36999,-1.02999 -8.31,-3.09 -1.94001,-2.06001 -2.91,-4.989981 -2.91,-8.79 V 68.6 h 5.52 v 18.12 c 0.120001,4.800024 2.539976,7.2 7.26,7.2 2.200011,0 4.039993,-0.889991 5.52,-2.67 1.480007,-1.780009 2.22,-3.909988 2.22,-6.39 V 68.6 h 5.52 z M 102.3,55.04 V 98 H 96.78 V 55.04 Z m 4.74,28.26 c 0,-4.520023 1.41999,-8.259985 4.26,-11.22 2.88001,-2.960015 6.49998,-4.44 10.86,-4.44 4.36002,0 7.95999,1.479985 10.8,4.44 2.88001,2.960015 4.32,6.699977 4.32,11.22 0,4.560023 -1.43999,8.299985 -4.32,11.22 -2.84001,2.960015 -6.43998,4.44 -10.8,4.44 -4.36002,0 -7.97999,-1.479985 -10.86,-4.44 -2.84001,-2.960015 -4.26,-6.699977 -4.26,-11.22 z m 5.52,0 c 0,3.160016 0.91999,5.71999 2.76,7.68 1.84001,1.96001 4.11999,2.94 6.84,2.94 2.72001,0 4.99999,-0.97999 6.84,-2.94 1.84001,-1.96001 2.76,-4.519984 2.76,-7.68 0,-3.120016 -0.91999,-5.65999 -2.76,-7.62 -1.88001,-2.00001 -4.15999,-3 -6.84,-3 -2.68001,0 -4.95999,0.99999 -6.84,3 -1.84001,1.96001 -2.76,4.499984 -2.76,7.62 z M 167.82,98 h -5.28 v -4.08 h -0.24 c -0.84,1.440007 -2.12999,2.639995 -3.87,3.6 -1.74001,0.960005 -3.54999,1.44 -5.43,1.44 -3.60002,0 -6.36999,-1.02999 -8.31,-3.09 -1.94001,-2.06001 -2.91,-4.989981 -2.91,-8.79 V 68.6 h 5.52 v 18.12 c 0.12,4.800024 2.53998,7.2 7.26,7.2 2.20001,0 4.03999,-0.889991 5.52,-2.67 1.48001,-1.780009 2.22,-3.909988 2.22,-6.39 V 68.6 h 5.52 z m 28.92,-8.16 c 0,2.560013 -1.11999,4.719991 -3.36,6.48 -2.24001,1.760009 -5.05998,2.64 -8.46,2.64 -2.96002,0 -5.55999,-0.769992 -7.8,-2.31 -2.24001,-1.540008 -3.84,-3.569987 -4.8,-6.09 l 4.92,-2.1 c 0.72,1.760009 1.76999,3.129995 3.15,4.11 1.38001,0.980005 2.88999,1.47 4.53,1.47 1.76001,0 3.22999,-0.379996 4.41,-1.14 1.18001,-0.760004 1.77,-1.659995 1.77,-2.7 0,-1.880009 -1.43999,-3.259996 -4.32,-4.14 l -5.04,-1.26 c -5.72003,-1.440007 -8.58,-4.19998 -8.58,-8.28 0,-2.680013 1.08999,-4.829992 3.27,-6.45 2.18001,-1.620008 4.96998,-2.43 8.37,-2.43 2.60001,0 4.94999,0.619994 7.05,1.86 2.10001,1.240006 3.57,2.89999 4.41,4.98 l -4.92,2.04 c -0.56,-1.240006 -1.46999,-2.209997 -2.73,-2.91 -1.26001,-0.700003 -2.66999,-1.05 -4.23,-1.05 -1.44001,0 -2.72999,0.359996 -3.87,1.08 -1.14001,0.720004 -1.71,1.599995 -1.71,2.64 0,1.680008 1.57998,2.879996 4.74,3.6 l 4.44,1.14 c 5.84003,1.440007 8.76,4.379978 8.76,8.82 z m 18.3,9.12 c -4.32002,0 -7.87999,-1.479985 -10.68,-4.44 -2.80001,-2.960015 -4.2,-6.699977 -4.2,-11.22 0,-4.480022 1.35999,-8.209985 4.08,-11.19 2.72001,-2.980015 6.19998,-4.47 10.44,-4.47 4.36002,0 7.82999,1.409986 10.41,4.23 2.58001,2.820014 3.87,6.769975 3.87,11.85 l -0.06,0.6 h -23.1 c 0.08,2.880014 1.03999,5.199991 2.88,6.96 1.84001,1.760009 4.03999,2.64 6.6,2.64 3.52002,0 6.27999,-1.759982 8.28,-5.28 l 4.92,2.4 c -1.32001,2.480012 -3.14999,4.419993 -5.49,5.82 -2.34001,1.400007 -4.98999,2.1 -7.95,2.1 z m -8.82,-19.2 h 16.86 c -0.16,-2.04001 -0.98999,-3.729993 -2.49,-5.07 -1.50001,-1.340007 -3.50999,-2.01 -6.03,-2.01 -2.08001,0 -3.86999,0.639994 -5.37,1.92 -1.50001,1.280006 -2.49,2.999989 -2.97,5.16 z M 272.4,92.72 V 98 h -26.16 v -5.52 l 10.62,-10.74 c 3.56002,-3.640018 6.01999,-6.369991 7.38,-8.19 1.36001,-1.820009 2.04,-3.72999 2.04,-5.73 0,-1.800009 -0.69999,-3.339994 -2.1,-4.62 -1.40001,-1.280006 -3.19999,-1.92 -5.4,-1.92 -1.88001,0 -3.49999,0.559994 -4.86,1.68 -1.36001,1.120006 -2.24,2.479992 -2.64,4.08 L 246.24,65 c 0.8,-2.520013 2.33999,-4.649991 4.62,-6.39 2.28001,-1.740009 4.95998,-2.61 8.04,-2.61 3.72002,0 6.81999,1.139989 9.3,3.42 2.48001,2.280011 3.72,5.079983 3.72,8.4 0,3.96002 -2.17998,8.239977 -6.54,12.84 l -12,12.06 z m 5.28,-15.24 c 0,-6.240031 1.53998,-11.37998 4.62,-15.42 3.08002,-4.04002 7.03998,-6.06 11.88,-6.06 4.84002,0 8.79998,2.03998 11.88,6.12 3.08001,4.04002 4.62,9.159969 4.62,15.36 0,6.160031 -1.53999,11.299979 -4.62,15.42 -3.08002,4.04002 -7.03998,6.06 -11.88,6.06 -4.84002,0 -8.79998,-2.01998 -11.88,-6.06 -3.08002,-4.120021 -4.62,-9.259969 -4.62,-15.42 z m 27.36,0 c 0,-4.720024 -0.99999,-8.599985 -3,-11.64 -1.96001,-3.040015 -4.57998,-4.56 -7.86,-4.56 -3.28002,0 -5.89999,1.519985 -7.86,4.56 -2.00001,3.040015 -3,6.919976 -3,11.64 0,4.720024 0.99999,8.619985 3,11.7 1.96001,3.000015 4.57998,4.5 7.86,4.5 3.28002,0 5.89999,-1.519985 7.86,-4.56 2.00001,-3.080015 3,-6.959977 3,-11.64 z M 330.72,56.96 V 98 H 325.2 V 63.8 l -7.98,3.48 -2.1,-4.68 12.06,-5.64 z M 366,86.66 c 0,3.520018 -1.33999,6.439988 -4.02,8.76 -2.72001,2.360012 -6.01998,3.54 -9.9,3.54 -3.88002,0 -7.17999,-1.179988 -9.9,-3.54 -2.68001,-2.320012 -4.02,-5.239982 -4.02,-8.76 0,-2.160011 0.57999,-4.129991 1.74,-5.91 1.16001,-1.780009 2.81999,-3.189995 4.98,-4.23 v -0.24 c -1.60001,-1.040005 -2.89,-2.319992 -3.87,-3.84 -0.98001,-1.520008 -1.47,-3.119992 -1.47,-4.8 0,-3.320017 1.17999,-6.099989 3.54,-8.34 2.32001,-2.200011 5.31998,-3.3 9,-3.3 3.68002,0 6.67999,1.099989 9,3.3 2.36001,2.240011 3.54,5.019983 3.54,8.34 0,1.680008 -0.49,3.279992 -1.47,4.8 -0.98001,1.520008 -2.26999,2.799995 -3.87,3.84 v 0.24 c 2.16001,1.040005 3.81999,2.449991 4.98,4.23 1.16001,1.780009 1.74,3.749989 1.74,5.91 z M 345.18,67.52 c 0,1.92001 0.63999,3.469994 1.92,4.65 1.28001,1.180006 2.93999,1.77 4.98,1.77 2.04001,0 3.69999,-0.589994 4.98,-1.77 1.28001,-1.180006 1.92,-2.72999 1.92,-4.65 0,-1.92001 -0.63999,-3.439994 -1.92,-4.56 -1.28001,-1.120006 -2.93999,-1.68 -4.98,-1.68 -2.04001,0 -3.69999,0.559994 -4.98,1.68 -1.28001,1.120006 -1.92,2.63999 -1.92,4.56 z m -1.38,18.84 c 0,1.080005 0.21,2.059996 0.63,2.94 0.42,0.880004 1,1.649997 1.74,2.31 0.74,0.660003 1.60999,1.169998 2.61,1.53 1.00001,0.360002 2.09999,0.54 3.3,0.54 1.20001,0 2.29999,-0.179998 3.3,-0.54 1,-0.360002 1.87,-0.869997 2.61,-1.53 0.74,-0.660003 1.32,-1.429996 1.74,-2.31 0.42,-0.880004 0.63,-1.859995 0.63,-2.94 0,-2.08001 -0.79999,-3.799993 -2.4,-5.16 -1.60001,-1.400007 -3.55999,-2.1 -5.88,-2.1 -2.32001,0 -4.29999,0.699993 -5.94,2.1 -1.56001,1.400007 -2.34,3.11999 -2.34,5.16 z"
       id="Toulouse-2018"
       style="fill:#000000" />
    <path
       inkscape:connector-curvature="0"
       d="m 1.608,0.176 h 15.488 c 3.626685,0 6.890652,0.55466112 9.792,1.664 2.901348,1.1093389 5.37599,2.6773232 7.424,4.704 2.04801,2.0266768 3.615995,4.447986 4.704,7.264 1.088005,2.816014 1.632,5.909316 1.632,9.28 0,3.41335 -0.543995,6.527986 -1.632,9.344 -1.088005,2.816014 -2.65599,5.226657 -4.704,7.232 -2.04801,2.005343 -4.522652,3.562661 -7.424,4.672 C 23.986652,45.445339 20.722685,46 17.096,46 H 1.608 Z m 15.104,37.632 c 2.517346,0 4.73599,-0.351996 6.656,-1.056 1.92001,-0.704003 3.519994,-1.695994 4.8,-2.976 1.280006,-1.280006 2.239997,-2.826658 2.88,-4.64 0.640003,-1.813342 0.96,-3.829322 0.96,-6.048 0,-2.218678 -0.319997,-4.234658 -0.96,-6.048 -0.640003,-1.813342 -1.599994,-3.359994 -2.88,-4.64 -1.280006,-1.280006 -2.87999,-2.271996 -4.8,-2.976 C 21.44799,8.7199965 19.229346,8.368 16.712,8.368 h -6.464 v 29.44 z m 58.624,0.64 c -1.450674,2.560013 -3.402654,4.629325 -5.856,6.208 -2.453346,1.578675 -5.450649,2.368 -8.992,2.368 -2.389345,0 -4.597323,-0.415996 -6.624,-1.248 -2.026677,-0.832004 -3.786659,-1.994659 -5.28,-3.488 -1.493341,-1.493341 -2.655996,-3.253323 -3.488,-5.28 -0.832004,-2.026677 -1.248,-4.255988 -1.248,-6.688 0,-2.261345 0.405329,-4.405323 1.216,-6.432 0.810671,-2.026677 1.941326,-3.797326 3.392,-5.312 1.450674,-1.514674 3.16799,-2.719996 5.152,-3.616 1.98401,-0.896004 4.170655,-1.344 6.56,-1.344 2.517346,0 4.757324,0.415996 6.72,1.248 1.962677,0.832004 3.605327,1.983993 4.928,3.456 1.322673,1.472007 2.32533,3.210657 3.008,5.216 0.68267,2.005343 1.024,4.181322 1.024,6.528 v 0.768 c -0.04267,0.256001 -0.064,0.490666 -0.064,0.704 -0.04267,0.213334 -0.064,0.447999 -0.064,0.704 H 52.104 c 0.170667,1.280006 0.522664,2.378662 1.056,3.296 0.533336,0.917338 1.194663,1.68533 1.984,2.304 0.789337,0.61867 1.653329,1.066665 2.592,1.344 0.938671,0.277335 1.898662,0.416 2.88,0.416 1.92001,0 3.509327,-0.437329 4.768,-1.312 1.258673,-0.874671 2.250663,-1.973327 2.976,-3.296 z M 67.72,26.288 c -0.04267,-0.554669 -0.223998,-1.17333 -0.544,-1.856 -0.320002,-0.68267 -0.78933,-1.322664 -1.408,-1.92 -0.61867,-0.597336 -1.386662,-1.087998 -2.304,-1.472 -0.917338,-0.384002 -2.015994,-0.576 -3.296,-0.576 -1.792009,0 -3.37066,0.511995 -4.736,1.536 -1.36534,1.024005 -2.325331,2.453324 -2.88,4.288 z M 77.256,14.64 h 9.536 L 94.6,34.608 h 0.448 L 102.92,14.64 h 9.472 L 98.888,46 h -8.256 z m 40,-14.464 h 29.056 v 8.192 h -20.416 v 11.136 h 18.368 v 8.192 H 125.896 V 46 h -8.64 z m 62.464,38.272 c -1.45067,2.560013 -3.40265,4.629325 -5.856,6.208 -2.45335,1.578675 -5.45065,2.368 -8.992,2.368 -2.38935,0 -4.59732,-0.415996 -6.624,-1.248 -2.02668,-0.832004 -3.78666,-1.994659 -5.28,-3.488 -1.49334,-1.493341 -2.656,-3.253323 -3.488,-5.28 -0.832,-2.026677 -1.248,-4.255988 -1.248,-6.688 0,-2.261345 0.40533,-4.405323 1.216,-6.432 0.81067,-2.026677 1.94133,-3.797326 3.392,-5.312 1.45067,-1.514674 3.16799,-2.719996 5.152,-3.616 1.98401,-0.896004 4.17065,-1.344 6.56,-1.344 2.51735,0 4.75732,0.415996 6.72,1.248 1.96268,0.832004 3.60533,1.983993 4.928,3.456 1.32267,1.472007 2.32533,3.210657 3.008,5.216 0.68267,2.005343 1.024,4.181322 1.024,6.528 v 0.768 c -0.0427,0.256001 -0.064,0.490666 -0.064,0.704 -0.0427,0.213334 -0.064,0.447999 -0.064,0.704 h -23.616 c 0.17067,1.280006 0.52266,2.378662 1.056,3.296 0.53334,0.917338 1.19466,1.68533 1.984,2.304 0.78934,0.61867 1.65333,1.066665 2.592,1.344 0.93867,0.277335 1.89866,0.416 2.88,0.416 1.92001,0 3.50933,-0.437329 4.768,-1.312 1.25867,-0.874671 2.25066,-1.973327 2.976,-3.296 z m -7.616,-12.16 c -0.0427,-0.554669 -0.224,-1.17333 -0.544,-1.856 -0.32,-0.68267 -0.78933,-1.322664 -1.408,-1.92 -0.61867,-0.597336 -1.38666,-1.087998 -2.304,-1.472 -0.91734,-0.384002 -2.01599,-0.576 -3.296,-0.576 -1.79201,0 -3.37066,0.511995 -4.736,1.536 -1.36534,1.024005 -2.32533,2.453324 -2.88,4.288 z m 26.24,20.736 c -2.04801,0 -3.87199,-0.255997 -5.472,-0.768 -1.60001,-0.512003 -2.98666,-1.183996 -4.16,-2.016 -1.17334,-0.832004 -2.16533,-1.791995 -2.976,-2.88 -0.81067,-1.088005 -1.42933,-2.186661 -1.856,-3.296 l 7.488,-3.2 c 0.72534,1.621341 1.69599,2.826663 2.912,3.616 1.21601,0.789337 2.57066,1.184 4.064,1.184 1.53601,0 2.752,-0.277331 3.648,-0.832 0.896,-0.554669 1.344,-1.215996 1.344,-1.984 0,-0.853338 -0.37333,-1.546664 -1.12,-2.08 -0.74667,-0.533336 -2.03732,-1.013331 -3.872,-1.44 l -4.416,-0.96 c -0.98134,-0.213334 -1.99466,-0.554664 -3.04,-1.024 -1.04534,-0.469336 -1.99466,-1.066663 -2.848,-1.792 -0.85334,-0.725337 -1.55733,-1.599995 -2.112,-2.624 -0.55467,-1.024005 -0.832,-2.21866 -0.832,-3.584 0,-1.536008 0.33066,-2.901327 0.992,-4.096 0.66134,-1.194673 1.56799,-2.207996 2.72,-3.04 1.15201,-0.832004 2.50666,-1.471998 4.064,-1.92 1.55734,-0.448002 3.23199,-0.672 5.024,-0.672 2.98668,0 5.65332,0.586661 8,1.76 2.34668,1.173339 4.07466,3.039987 5.184,5.6 l -7.232,2.944 c -0.59734,-1.23734 -1.47199,-2.133331 -2.624,-2.688 -1.15201,-0.554669 -2.30399,-0.832 -3.456,-0.832 -1.19467,0 -2.24,0.245331 -3.136,0.736 -0.896,0.490669 -1.344,1.119996 -1.344,1.888 0,0.725337 0.37333,1.301331 1.12,1.728 0.74667,0.426669 1.75999,0.810665 3.04,1.152 l 4.8,1.152 c 3.20002,0.768004 5.57866,1.994658 7.136,3.68 1.55734,1.685342 2.336,3.679988 2.336,5.984 0,1.36534 -0.32,2.66666 -0.96,3.904 -0.64,1.237339 -1.54666,2.335995 -2.72,3.296 -1.17334,0.960005 -2.58133,1.717331 -4.224,2.272 -1.64268,0.554669 -3.46666,0.832 -5.472,0.832 z m 21.632,-25.216 h -5.504 V 14.64 h 5.504 v -9.6 h 8.384 v 9.6 h 7.68 v 7.168 h -7.68 v 12.16 c 0,0.725337 0.0747,1.39733 0.224,2.016 0.14933,0.61867 0.43733,1.141331 0.864,1.568 0.59734,0.68267 1.45066,1.024 2.56,1.024 0.72534,0 1.30133,-0.07467 1.728,-0.224 0.42667,-0.149334 0.832,-0.351999 1.216,-0.608 l 2.368,7.36 c -0.98134,0.469336 -2.03733,0.821332 -3.168,1.056 -1.13067,0.234668 -2.37866,0.352 -3.744,0.352 -1.57868,0 -2.99733,-0.245331 -4.256,-0.736 -1.25867,-0.490669 -2.31466,-1.162662 -3.168,-2.016 -2.00534,-1.92001 -3.008,-4.650649 -3.008,-8.192 z"
       id="DevFest"
       style="fill:#000000" />
  </g>
</svg>
