<?xml version="1.0" encoding="UTF-8"?>
<svg width="452px" height="112px" viewBox="0 0 452 112" version="1.1" xmlns="http://www.w3.org/2000/svg" xmlns:xlink="http://www.w3.org/1999/xlink">
    <!-- Generator: Sketch 48.2 (47327) - http://www.bohemiancoding.com/sketch -->
    <title>Group</title>
    <desc>Created with Sketch.</desc>
    <defs>
        <radialGradient cx="99.0955882%" cy="97.7460317%" fx="99.0955882%" fy="97.7460317%" r="325.470588%" gradientTransform="translate(0.990956,0.977460),scale(1.000000,0.720846),translate(-0.990956,-0.977460)" id="radialGradient-1">
            <stop stop-color="#BF360C" stop-opacity="0.2" offset="0%"></stop>
            <stop stop-color="#BF360C" stop-opacity="0.02" offset="100%"></stop>
        </radialGradient>
        <radialGradient cx="162.652941%" cy="157.771429%" fx="162.652941%" fy="157.771429%" r="262.488235%" gradientTransform="translate(1.626529,1.577714),scale(1.000000,0.695101),translate(-1.626529,-1.577714)" id="radialGradient-2">
            <stop stop-color="#263238" stop-opacity="0.2" offset="0%"></stop>
            <stop stop-color="#263238" stop-opacity="0.02" offset="100%"></stop>
        </radialGradient>
        <radialGradient cx="-1.2505828%" cy="0.78125%" fx="-1.2505828%" fy="0.78125%" r="168.015799%" gradientTransform="translate(-0.012506,0.007812),scale(1.000000,0.625811),translate(0.012506,-0.007812)" id="radialGradient-3">
            <stop stop-color="#FFFFFF" stop-opacity="0.1" offset="0%"></stop>
            <stop stop-color="#FFFFFF" stop-opacity="0" offset="100%"></stop>
        </radialGradient>
    </defs>
    <g id="Page-1" stroke="none" stroke-width="1" fill="none" fill-rule="evenodd">
        <g id="Group" transform="translate(0.000000, -8.000000)">
            <text id="Toulouse-2018" font-family="ProductSans-Regular, Product Sans" font-size="60" font-weight="normal" fill="#FFFFFF">
                <tspan x="86" y="113">Toulouse 2018</tspan>
            </text>
            <text id="DevFest" font-family="ProductSans-Bold, Product Sans" font-size="64" font-weight="bold" fill="#FFFFFF">
                <tspan x="83" y="61">DevFest</tspan>
            </text>
            <g id="XMLID_60_" transform="translate(0.000000, 8.000000)">
                <g id="XMLID_61_">
                    <g id="XMLID_62_">
                        <path d="M68.7209877,50.75 L39.2691358,0 L0,0 L32.4320988,56 L0,112 L39.2691358,112 L68.6333333,61.25 C70.5617284,58.0125 70.5617284,53.9875 68.7209877,50.75 Z" id="XMLID_106_"></path>
                        <polygon id="XMLID_105_" fill="#FFC107" fill-rule="nonzero" points="51.891358 89.5125 42.5123457 73.4125 20.1604938 112 39.2691358 112 52.0666667 89.95"></polygon>
                        <path d="M68.7209877,50.75 L39.2691358,0 L0,0 L32.4320988,56 L0,112 L39.2691358,112 L68.6333333,61.25 C70.5617284,58.0125 70.5617284,53.9875 68.7209877,50.75 Z" id="XMLID_104_"></path>
                        <polygon id="XMLID_103_" fill="#0F9D58" fill-rule="nonzero" points="32.4320988 56 42.5123457 73.4125 20.1604938 112 0 112"></polygon>
                        <path d="M68.7209877,50.75 L39.2691358,0 L0,0 L32.4320988,56 L0,112 L39.2691358,112 L68.6333333,61.25 C70.5617284,58.0125 70.5617284,53.9875 68.7209877,50.75 Z" id="XMLID_102_"></path>
                        <polygon id="XMLID_101_" fill="#BF360C" fill-rule="nonzero" opacity="0.2" points="39.2691358 111.125 20.6864198 111.125 20.1604938 112 39.2691358 112 52.0666667 89.95 51.891358 89.5125"></polygon>
                        <path d="M68.7209877,50.75 L39.2691358,0 L0,0 L32.4320988,56 L0,112 L39.2691358,112 L68.6333333,61.25 C70.5617284,58.0125 70.5617284,53.9875 68.7209877,50.75 Z" id="XMLID_100_"></path>
                        <polygon id="XMLID_99_" fill="#263238" fill-rule="nonzero" opacity="0.2" points="0.525925926 111.125 0 112 20.1604938 112 20.6864198 111.125"></polygon>
                        <path d="M68.7209877,50.75 L39.2691358,0 L0,0 L32.4320988,56 L0,112 L39.2691358,112 L68.6333333,61.25 C70.5617284,58.0125 70.5617284,53.9875 68.7209877,50.75 Z" id="XMLID_98_"></path>
                        <polygon id="XMLID_96_" fill="#FFFFFF" fill-rule="nonzero" opacity="0.2" points="0 112 0.525925926 112 32.6950617 56.4375 32.4320988 56"></polygon>
                        <path d="M68.7209877,50.75 L39.2691358,0 L0,0 L32.4320988,56 L0,112 L39.2691358,112 L68.6333333,61.25 C70.5617284,58.0125 70.5617284,53.9875 68.7209877,50.75 Z" id="XMLID_94_"></path>
                        <polygon id="XMLID_92_" fill="url(#radialGradient-1)" fill-rule="nonzero" points="52.0666667 89.95 42.5123457 73.4125 40.145679 77.4375"></polygon>
                        <path d="M68.7209877,50.75 L39.2691358,0 L0,0 L32.4320988,56 L0,112 L39.2691358,112 L68.6333333,61.25 C70.5617284,58.0125 70.5617284,53.9875 68.7209877,50.75 Z" id="XMLID_90_"></path>
                        <polygon id="XMLID_89_" fill="url(#radialGradient-2)" fill-rule="nonzero" points="40.145679 77.4375 42.5123457 73.4125 32.4320988 56 27.6111111 64.3125"></polygon>
                        <path d="M68.7209877,50.75 L39.2691358,0 L0,0 L32.4320988,56 L0,112 L39.2691358,112 L68.6333333,61.25 C70.5617284,58.0125 70.5617284,53.9875 68.7209877,50.75 Z" id="XMLID_88_"></path>
                        <g id="XMLID_85_" fill="#4285F4" fill-rule="nonzero">
                            <g id="XMLID_86_">
                                <polygon id="XMLID_87_" points="20.1604938 0 0 0 52.0666667 89.95 62.1469136 72.5375"></polygon>
                            </g>
                        </g>
                        <path d="M68.7209877,50.75 L39.2691358,0 L0,0 L32.4320988,56 L0,112 L39.2691358,112 L68.6333333,61.25 C70.5617284,58.0125 70.5617284,53.9875 68.7209877,50.75 Z" id="XMLID_84_"></path>
                        <path d="M68.7209877,61.25 C70.5617284,58.0125 70.5617284,53.9875 68.7209877,50.75 L39.2691358,0 L20.1604938,0 L62.1469136,72.5375 L68.7209877,61.25 Z" id="XMLID_83_" fill="#DB4437" fill-rule="nonzero"></path>
                        <path d="M68.7209877,50.75 L39.2691358,0 L0,0 L32.4320988,56 L0,112 L39.2691358,112 L68.6333333,61.25 C70.5617284,58.0125 70.5617284,53.9875 68.7209877,50.75 Z" id="XMLID_82_"></path>
                        <polygon id="XMLID_71_" fill="#1A237E" fill-rule="nonzero" opacity="0.2" points="62.1469136 72.5375 61.9716049 72.1 52.0666667 89.075 0.525925926 0 0 0 52.0666667 89.95"></polygon>
                        <path d="M68.7209877,50.75 L39.2691358,0 L0,0 L32.4320988,56 L0,112 L39.2691358,112 L68.6333333,61.25 C70.5617284,58.0125 70.5617284,53.9875 68.7209877,50.75 Z" id="XMLID_69_"></path>
                        <path d="M39.2691358,0.875 L68.6333333,51.625 C69.5098765,53.1125 69.9481481,54.775 70.0358025,56.4375 C70.1234568,54.5125 69.6851852,52.5 68.6333333,50.75 L39.2691358,0 L0,0 L0.525925926,0.875 L39.2691358,0.875 Z" id="XMLID_67_" fill="#FFFFFF" fill-rule="nonzero" opacity="0.2"></path>
                        <path d="M68.7209877,50.75 L39.2691358,0 L0,0 L32.4320988,56 L0,112 L39.2691358,112 L68.6333333,61.25 C70.5617284,58.0125 70.5617284,53.9875 68.7209877,50.75 Z" id="XMLID_66_"></path>
                        <path d="M62.1469136,72.5375 L68.7209877,61.25 C69.7728395,59.5 70.2111111,57.4875 70.1234568,55.5625 C70.0358025,57.225 69.5975309,58.8875 68.7209877,60.375 L61.9716049,72.1 L62.1469136,72.5375 Z" id="XMLID_65_" fill="#3E2723" fill-rule="nonzero" opacity="0.2"></path>
                        <path d="M68.7209877,50.75 L39.2691358,0 L0,0 L32.4320988,56 L0,112 L39.2691358,112 L68.6333333,61.25 C70.5617284,58.0125 70.5617284,53.9875 68.7209877,50.75 Z" id="XMLID_64_"></path>
                        <path d="M68.7209877,50.75 L39.2691358,0 L0,0 L32.4320988,56 L0,112 L39.2691358,112 L68.6333333,61.25 C70.5617284,58.0125 70.5617284,53.9875 68.7209877,50.75 Z" id="XMLID_63_" fill="url(#radialGradient-3)" fill-rule="nonzero"></path>
                    </g>
                </g>
            </g>
        </g>
    </g>
</svg>