<?xml version="1.0" encoding="UTF-8"?>
<svg width="452px" height="112px" viewBox="0 0 452 112" version="1.1" xmlns="http://www.w3.org/2000/svg" xmlns:xlink="http://www.w3.org/1999/xlink">
    <!-- Generator: Sketch 48.2 (47327) - http://www.bohemiancoding.com/sketch -->
    <title>Group</title>
    <desc>Created with Sketch.</desc>
    <defs>
        <radialGradient cx="99.0955882%" cy="97.7460317%" fx="99.0955882%" fy="97.7460317%" r="325.470588%" gradientTransform="translate(0.990956,0.977460),scale(1.000000,0.720846),translate(-0.990956,-0.977460)" id="radialGradient-1">
            <stop stop-color="#BF360C" stop-opacity="0.2" offset="0%"></stop>
            <stop stop-color="#BF360C" stop-opacity="0.02" offset="100%"></stop>
        </radialGradient>
        <radialGradient cx="162.652941%" cy="157.771429%" fx="162.652941%" fy="157.771429%" r="262.488235%" gradientTransform="translate(1.626529,1.577714),scale(1.000000,0.695101),translate(-1.626529,-1.577714)" id="radialGradient-2">
            <stop stop-color="#263238" stop-opacity="0.2" offset="0%"></stop>
            <stop stop-color="#263238" stop-opacity="0.02" offset="100%"></stop>
        </radialGradient>
        <radialGradient cx="-1.2505828%" cy="0.78125%" fx="-1.2505828%" fy="0.78125%" r="168.015799%" gradientTransform="translate(-0.012506,0.007812),scale(1.000000,0.625811),translate(0.012506,-0.007812)" id="radialGradient-3">
            <stop stop-color="#FFFFFF" stop-opacity="0.1" offset="0%"></stop>
            <stop stop-color="#FFFFFF" stop-opacity="0" offset="100%"></stop>
        </radialGradient>
    </defs>
    <g id="Page-1" stroke="none" stroke-width="1" fill="none" fill-rule="evenodd">
        <g id="Group">
            <g id="Group-2" transform="translate(86.000000, 7.000000)" fill="#FFFFFF">
                <path d="M18.96,60.32 L18.96,98 L13.44,98 L13.44,60.32 L1.44,60.32 L1.44,55.04 L30.96,55.04 L30.96,60.32 L18.96,60.32 Z M29.28,83.3 C29.28,78.7799774 30.6999858,75.0400148 33.54,72.08 C36.4200144,69.1199852 40.0399782,67.64 44.4,67.64 C48.7600218,67.64 52.3599858,69.1199852 55.2,72.08 C58.0800144,75.0400148 59.52,78.7799774 59.52,83.3 C59.52,87.8600228 58.0800144,91.5999854 55.2,94.52 C52.3599858,97.4800148 48.7600218,98.96 44.4,98.96 C40.0399782,98.96 36.4200144,97.4800148 33.54,94.52 C30.6999858,91.5599852 29.28,87.8200226 29.28,83.3 Z M34.8,83.3 C34.8,86.4600158 35.7199908,89.0199902 37.56,90.98 C39.4000092,92.9400098 41.6799864,93.92 44.4,93.92 C47.1200136,93.92 49.3999908,92.9400098 51.24,90.98 C53.0800092,89.0199902 54,86.4600158 54,83.3 C54,80.1799844 53.0800092,77.6400098 51.24,75.68 C49.3599906,73.67999 47.0800134,72.68 44.4,72.68 C41.7199866,72.68 39.4400094,73.67999 37.56,75.68 C35.7199908,77.6400098 34.8,80.1799844 34.8,83.3 Z M90.06,98 L84.78,98 L84.78,93.92 L84.54,93.92 C83.6999958,95.3600072 82.4100087,96.5599952 80.67,97.52 C78.9299913,98.4800048 77.1200094,98.96 75.24,98.96 C71.639982,98.96 68.8700097,97.9300103 66.93,95.87 C64.9899903,93.8099897 64.02,90.880019 64.02,87.08 L64.02,68.6 L69.54,68.6 L69.54,86.72 C69.6600006,91.520024 72.0799764,93.92 76.8,93.92 C79.000011,93.92 80.8399926,93.0300089 82.32,91.25 C83.8000074,89.4699911 84.54,87.3400124 84.54,84.86 L84.54,68.6 L90.06,68.6 L90.06,98 Z M102.3,55.04 L102.3,98 L96.78,98 L96.78,55.04 L102.3,55.04 Z M107.04,83.3 C107.04,78.7799774 108.459986,75.0400148 111.3,72.08 C114.180014,69.1199852 117.799978,67.64 122.16,67.64 C126.520022,67.64 130.119986,69.1199852 132.96,72.08 C135.840014,75.0400148 137.28,78.7799774 137.28,83.3 C137.28,87.8600228 135.840014,91.5999854 132.96,94.52 C130.119986,97.4800148 126.520022,98.96 122.16,98.96 C117.799978,98.96 114.180014,97.4800148 111.3,94.52 C108.459986,91.5599852 107.04,87.8200226 107.04,83.3 Z M112.56,83.3 C112.56,86.4600158 113.479991,89.0199902 115.32,90.98 C117.160009,92.9400098 119.439986,93.92 122.16,93.92 C124.880014,93.92 127.159991,92.9400098 129,90.98 C130.840009,89.0199902 131.76,86.4600158 131.76,83.3 C131.76,80.1799844 130.840009,77.6400098 129,75.68 C127.119991,73.67999 124.840013,72.68 122.16,72.68 C119.479987,72.68 117.200009,73.67999 115.32,75.68 C113.479991,77.6400098 112.56,80.1799844 112.56,83.3 Z M167.82,98 L162.54,98 L162.54,93.92 L162.3,93.92 C161.459996,95.3600072 160.170009,96.5599952 158.43,97.52 C156.689991,98.4800048 154.880009,98.96 153,98.96 C149.399982,98.96 146.63001,97.9300103 144.69,95.87 C142.74999,93.8099897 141.78,90.880019 141.78,87.08 L141.78,68.6 L147.3,68.6 L147.3,86.72 C147.420001,91.520024 149.839976,93.92 154.56,93.92 C156.760011,93.92 158.599993,93.0300089 160.08,91.25 C161.560007,89.4699911 162.3,87.3400124 162.3,84.86 L162.3,68.6 L167.82,68.6 L167.82,98 Z M196.74,89.84 C196.74,92.4000128 195.620011,94.5599912 193.38,96.32 C191.139989,98.0800088 188.320017,98.96 184.92,98.96 C181.959985,98.96 179.360011,98.1900077 177.12,96.65 C174.879989,95.1099923 173.280005,93.0800126 172.32,90.56 L177.24,88.46 C177.960004,90.2200088 179.009993,91.5899951 180.39,92.57 C181.770007,93.5500049 183.279992,94.04 184.92,94.04 C186.680009,94.04 188.149994,93.6600038 189.33,92.9 C190.510006,92.1399962 191.1,91.2400052 191.1,90.2 C191.1,88.3199906 189.660014,86.9400044 186.78,86.06 L181.74,84.8 C176.019971,83.3599928 173.16,80.6000204 173.16,76.52 C173.16,73.8399866 174.249989,71.6900081 176.43,70.07 C178.610011,68.4499919 181.399983,67.64 184.8,67.64 C187.400013,67.64 189.74999,68.2599938 191.85,69.5 C193.950011,70.7400062 195.419996,72.3999896 196.26,74.48 L191.34,76.52 C190.779997,75.2799938 189.870006,74.3100035 188.61,73.61 C187.349994,72.9099965 185.940008,72.56 184.38,72.56 C182.939993,72.56 181.650006,72.9199964 180.51,73.64 C179.369994,74.3600036 178.8,75.2399948 178.8,76.28 C178.8,77.9600084 180.379984,79.1599964 183.54,79.88 L187.98,81.02 C193.820029,82.4600072 196.74,85.3999778 196.74,89.84 Z M215.04,98.96 C210.719978,98.96 207.160014,97.4800148 204.36,94.52 C201.559986,91.5599852 200.16,87.8200226 200.16,83.3 C200.16,78.8199776 201.519986,75.0900149 204.24,72.11 C206.960014,69.1299851 210.439979,67.64 214.68,67.64 C219.040022,67.64 222.509987,69.0499859 225.09,71.87 C227.670013,74.6900141 228.96,78.6399746 228.96,83.72 L228.9,84.32 L205.8,84.32 C205.88,87.2000144 206.839991,89.5199912 208.68,91.28 C210.520009,93.0400088 212.719987,93.92 215.28,93.92 C218.800018,93.92 221.55999,92.1600176 223.56,88.64 L228.48,91.04 C227.159993,93.5200124 225.330012,95.459993 222.99,96.86 C220.649988,98.260007 218.000015,98.96 215.04,98.96 Z M206.22,79.76 L223.08,79.76 C222.919999,77.7199898 222.090007,76.0300067 220.59,74.69 C219.089992,73.3499933 217.080013,72.68 214.56,72.68 C212.47999,72.68 210.690007,73.3199936 209.19,74.6 C207.689992,75.8800064 206.700002,77.5999892 206.22,79.76 Z M272.4,92.72 L272.4,98 L246.24,98 L246.24,92.48 L256.86,81.74 C260.420018,78.0999818 262.879993,75.3700091 264.24,73.55 C265.600007,71.7299909 266.28,69.82001 266.28,67.82 C266.28,66.019991 265.580007,64.4800064 264.18,63.2 C262.779993,61.9199936 260.980011,61.28 258.78,61.28 C256.899991,61.28 255.280007,61.8399944 253.92,62.96 C252.559993,64.0800056 251.680002,65.439992 251.28,67.04 L246.24,65 C247.040004,62.4799874 248.579989,60.3500087 250.86,58.61 C253.140011,56.8699913 255.819985,56 258.9,56 C262.620019,56 265.719988,57.1399886 268.2,59.42 C270.680012,61.7000114 271.92,64.4999834 271.92,67.82 C271.92,71.7800198 269.740022,76.059977 265.38,80.66 L253.38,92.72 L272.4,92.72 Z M277.68,77.48 C277.68,71.2399688 279.219985,66.1000202 282.3,62.06 C285.380015,58.0199798 289.339976,56 294.18,56 C299.020024,56 302.979985,58.0399796 306.06,62.12 C309.140015,66.1600202 310.68,71.279969 310.68,77.48 C310.68,83.6400308 309.140015,88.7799794 306.06,92.9 C302.979985,96.9400202 299.020024,98.96 294.18,98.96 C289.339976,98.96 285.380015,96.9400202 282.3,92.9 C279.219985,88.7799794 277.68,83.6400308 277.68,77.48 Z M305.04,77.48 C305.04,72.7599764 304.04001,68.8800152 302.04,65.84 C300.07999,62.7999848 297.460016,61.28 294.18,61.28 C290.899984,61.28 288.28001,62.7999848 286.32,65.84 C284.31999,68.8800152 283.32,72.7599764 283.32,77.48 C283.32,82.2000236 284.31999,86.0999846 286.32,89.18 C288.28001,92.180015 290.899984,93.68 294.18,93.68 C297.460016,93.68 300.07999,92.1600152 302.04,89.12 C304.04001,86.0399846 305.04,82.1600234 305.04,77.48 Z M330.72,56.96 L330.72,98 L325.2,98 L325.2,63.8 L317.22,67.28 L315.12,62.6 L327.18,56.96 L330.72,56.96 Z M366,86.66 C366,90.1800176 364.660013,93.0999884 361.98,95.42 C359.259986,97.7800118 355.960019,98.96 352.08,98.96 C348.199981,98.96 344.900014,97.7800118 342.18,95.42 C339.499987,93.0999884 338.16,90.1800176 338.16,86.66 C338.16,84.4999892 338.739994,82.5300089 339.9,80.75 C341.060006,78.9699911 342.719989,77.5600052 344.88,76.52 L344.88,76.28 C343.279992,75.2399948 341.990005,73.9600076 341.01,72.44 C340.029995,70.9199924 339.54,69.3200084 339.54,67.64 C339.54,64.3199834 340.719988,61.5400112 343.08,59.3 C345.400012,57.099989 348.399982,56 352.08,56 C355.760018,56 358.759988,57.099989 361.08,59.3 C363.440012,61.5400112 364.62,64.3199834 364.62,67.64 C364.62,69.3200084 364.130005,70.9199924 363.15,72.44 C362.169995,73.9600076 360.880008,75.2399948 359.28,76.28 L359.28,76.52 C361.440011,77.5600052 363.099994,78.9699911 364.26,80.75 C365.420006,82.5300089 366,84.4999892 366,86.66 Z M345.18,67.52 C345.18,69.4400096 345.819994,70.9899941 347.1,72.17 C348.380006,73.3500059 350.03999,73.94 352.08,73.94 C354.12001,73.94 355.779994,73.3500059 357.06,72.17 C358.340006,70.9899941 358.98,69.4400096 358.98,67.52 C358.98,65.5999904 358.340006,64.0800056 357.06,62.96 C355.779994,61.8399944 354.12001,61.28 352.08,61.28 C350.03999,61.28 348.380006,61.8399944 347.1,62.96 C345.819994,64.0800056 345.18,65.5999904 345.18,67.52 Z M343.8,86.36 C343.8,87.4400054 344.009998,88.4199956 344.43,89.3 C344.850002,90.1800044 345.429996,90.9499967 346.17,91.61 C346.910004,92.2700033 347.779995,92.7799982 348.78,93.14 C349.780005,93.5000018 350.879994,93.68 352.08,93.68 C353.280006,93.68 354.379995,93.5000018 355.38,93.14 C356.380005,92.7799982 357.249996,92.2700033 357.99,91.61 C358.730004,90.9499967 359.309998,90.1800044 359.73,89.3 C360.150002,88.4199956 360.36,87.4400054 360.36,86.36 C360.36,84.2799896 359.560008,82.5600068 357.96,81.2 C356.359992,79.799993 354.400012,79.1 352.08,79.1 C349.759988,79.1 347.780008,79.799993 346.14,81.2 C344.579992,82.600007 343.8,84.3199898 343.8,86.36 Z" id="Toulouse-2018"></path>
                <path d="M1.608,0.176 L17.096,0.176 C20.7226848,0.176 23.9866522,0.73066112 26.888,1.84 C29.7893478,2.94933888 32.2639898,4.5173232 34.312,6.544 C36.3600102,8.5706768 37.9279946,10.9919859 39.016,13.808 C40.1040054,16.6240141 40.648,19.7173165 40.648,23.088 C40.648,26.5013504 40.1040054,29.6159859 39.016,32.432 C37.9279946,35.2480141 36.3600102,37.6586566 34.312,39.664 C32.2639898,41.6693434 29.7893478,43.2266611 26.888,44.336 C23.9866522,45.4453389 20.7226848,46 17.096,46 L1.608,46 L1.608,0.176 Z M16.712,37.808 C19.2293459,37.808 21.4479904,37.4560035 23.368,36.752 C25.2880096,36.0479965 26.8879936,35.0560064 28.168,33.776 C29.4480064,32.4959936 30.4079968,30.9493424 31.048,29.136 C31.6880032,27.3226576 32.008,25.3066778 32.008,23.088 C32.008,20.8693222 31.6880032,18.8533424 31.048,17.04 C30.4079968,15.2266576 29.4480064,13.6800064 28.168,12.4 C26.8879936,11.1199936 25.2880096,10.1280035 23.368,9.424 C21.4479904,8.71999648 19.2293459,8.368 16.712,8.368 L10.248,8.368 L10.248,37.808 L16.712,37.808 Z M75.336,38.448 C73.8853261,41.0080128 71.9333456,43.0773254 69.48,44.656 C67.0266544,46.2346746 64.029351,47.024 60.488,47.024 C58.0986547,47.024 55.8906768,46.6080042 53.864,45.776 C51.8373232,44.9439958 50.0773408,43.7813408 48.584,42.288 C47.0906592,40.7946592 45.9280042,39.0346768 45.096,37.008 C44.2639958,34.9813232 43.848,32.7520122 43.848,30.32 C43.848,28.0586554 44.2533293,25.9146768 45.064,23.888 C45.8746707,21.8613232 47.0053261,20.0906742 48.456,18.576 C49.9066739,17.0613258 51.6239901,15.8560045 53.608,14.96 C55.5920099,14.0639955 57.7786547,13.616 60.168,13.616 C62.6853459,13.616 64.9253235,14.0319958 66.888,14.864 C68.8506765,15.6960042 70.4933267,16.8479926 71.816,18.32 C73.1386733,19.7920074 74.1413299,21.5306566 74.824,23.536 C75.5066701,25.5413434 75.848,27.7173216 75.848,30.064 L75.848,30.832 C75.8053331,31.0880013 75.784,31.3226656 75.784,31.536 C75.7413331,31.7493344 75.72,31.9839987 75.72,32.24 L52.104,32.24 C52.2746675,33.5200064 52.626664,34.6186621 53.16,35.536 C53.693336,36.4533379 54.3546627,37.2213302 55.144,37.84 C55.9333373,38.4586698 56.7973286,38.9066653 57.736,39.184 C58.6746714,39.4613347 59.6346618,39.6 60.616,39.6 C62.5360096,39.6 64.125327,39.162671 65.384,38.288 C66.642673,37.413329 67.634663,36.3146733 68.36,34.992 L75.336,38.448 Z M67.72,26.288 C67.6773331,25.7333306 67.4960016,25.1146701 67.176,24.432 C66.8559984,23.7493299 66.3866698,23.1093363 65.768,22.512 C65.1493302,21.9146637 64.3813379,21.4240019 63.464,21.04 C62.5466621,20.6559981 61.4480064,20.464 60.168,20.464 C58.375991,20.464 56.7973402,20.9759949 55.432,22 C54.0666598,23.0240051 53.1066694,24.4533242 52.552,26.288 L67.72,26.288 Z M77.256,14.64 L86.792,14.64 L94.6,34.608 L95.048,34.608 L102.92,14.64 L112.392,14.64 L98.888,46 L90.632,46 L77.256,14.64 Z M117.256,0.176 L146.312,0.176 L146.312,8.368 L125.896,8.368 L125.896,19.504 L144.264,19.504 L144.264,27.696 L125.896,27.696 L125.896,46 L117.256,46 L117.256,0.176 Z M179.72,38.448 C178.269326,41.0080128 176.317346,43.0773254 173.864,44.656 C171.410654,46.2346746 168.413351,47.024 164.872,47.024 C162.482655,47.024 160.274677,46.6080042 158.248,45.776 C156.221323,44.9439958 154.461341,43.7813408 152.968,42.288 C151.474659,40.7946592 150.312004,39.0346768 149.48,37.008 C148.647996,34.9813232 148.232,32.7520122 148.232,30.32 C148.232,28.0586554 148.637329,25.9146768 149.448,23.888 C150.258671,21.8613232 151.389326,20.0906742 152.84,18.576 C154.290674,17.0613258 156.00799,15.8560045 157.992,14.96 C159.97601,14.0639955 162.162655,13.616 164.552,13.616 C167.069346,13.616 169.309324,14.0319958 171.272,14.864 C173.234676,15.6960042 174.877327,16.8479926 176.2,18.32 C177.522673,19.7920074 178.52533,21.5306566 179.208,23.536 C179.89067,25.5413434 180.232,27.7173216 180.232,30.064 L180.232,30.832 C180.189333,31.0880013 180.168,31.3226656 180.168,31.536 C180.125333,31.7493344 180.104,31.9839987 180.104,32.24 L156.488,32.24 C156.658668,33.5200064 157.010664,34.6186621 157.544,35.536 C158.077336,36.4533379 158.738663,37.2213302 159.528,37.84 C160.317337,38.4586698 161.181329,38.9066653 162.12,39.184 C163.058671,39.4613347 164.018662,39.6 165,39.6 C166.92001,39.6 168.509327,39.162671 169.768,38.288 C171.026673,37.413329 172.018663,36.3146733 172.744,34.992 L179.72,38.448 Z M172.104,26.288 C172.061333,25.7333306 171.880002,25.1146701 171.56,24.432 C171.239998,23.7493299 170.77067,23.1093363 170.152,22.512 C169.53333,21.9146637 168.765338,21.4240019 167.848,21.04 C166.930662,20.6559981 165.832006,20.464 164.552,20.464 C162.759991,20.464 161.18134,20.9759949 159.816,22 C158.45066,23.0240051 157.490669,24.4533242 156.936,26.288 L172.104,26.288 Z M198.344,47.024 C196.29599,47.024 194.472008,46.7680026 192.872,46.256 C191.271992,45.7439974 189.885339,45.0720042 188.712,44.24 C187.538661,43.4079958 186.546671,42.4480054 185.736,41.36 C184.925329,40.2719946 184.306669,39.1733389 183.88,38.064 L191.368,34.864 C192.093337,36.4853414 193.063994,37.6906627 194.28,38.48 C195.496006,39.2693373 196.850659,39.664 198.344,39.664 C199.880008,39.664 201.095996,39.3866694 201.992,38.832 C202.888004,38.2773306 203.336,37.6160038 203.336,36.848 C203.336,35.9946624 202.96267,35.301336 202.216,34.768 C201.46933,34.234664 200.178676,33.7546688 198.344,33.328 L193.928,32.368 C192.946662,32.1546656 191.933339,31.8133357 190.888,31.344 C189.842661,30.8746643 188.893338,30.277337 188.04,29.552 C187.186662,28.826663 186.482669,27.9520051 185.928,26.928 C185.373331,25.9039949 185.096,24.7093402 185.096,23.344 C185.096,21.8079923 185.426663,20.4426726 186.088,19.248 C186.749337,18.0533274 187.655994,17.0400042 188.808,16.208 C189.960006,15.3759958 191.314659,14.7360022 192.872,14.288 C194.429341,13.8399978 196.103991,13.616 197.896,13.616 C200.882682,13.616 203.549322,14.2026608 205.896,15.376 C208.242678,16.5493392 209.970661,18.4159872 211.08,20.976 L203.848,23.92 C203.250664,22.6826605 202.376006,21.7866694 201.224,21.232 C200.071994,20.6773306 198.920006,20.4 197.768,20.4 C196.573327,20.4 195.528004,20.6453309 194.632,21.136 C193.735996,21.6266691 193.288,22.2559962 193.288,23.024 C193.288,23.749337 193.66133,24.3253312 194.408,24.752 C195.15467,25.1786688 196.167994,25.562665 197.448,25.904 L202.248,27.056 C205.448016,27.8240038 207.826659,29.0506582 209.384,30.736 C210.941341,32.4213418 211.72,34.4159885 211.72,36.72 C211.72,38.0853402 211.400003,39.3866605 210.76,40.624 C210.119997,41.8613395 209.213339,42.9599952 208.04,43.92 C206.866661,44.8800048 205.458675,45.6373306 203.816,46.192 C202.173325,46.7466694 200.349343,47.024 198.344,47.024 Z M219.976,21.808 L214.472,21.808 L214.472,14.64 L219.976,14.64 L219.976,5.04 L228.36,5.04 L228.36,14.64 L236.04,14.64 L236.04,21.808 L228.36,21.808 L228.36,33.968 C228.36,34.693337 228.434666,35.3653302 228.584,35.984 C228.733334,36.6026698 229.021331,37.1253312 229.448,37.552 C230.045336,38.2346701 230.898661,38.576 232.008,38.576 C232.733337,38.576 233.309331,38.5013341 233.736,38.352 C234.162669,38.2026659 234.567998,38.0000013 234.952,37.744 L237.32,45.104 C236.338662,45.5733357 235.282672,45.9253322 234.152,46.16 C233.021328,46.3946678 231.77334,46.512 230.408,46.512 C228.829325,46.512 227.410673,46.2666691 226.152,45.776 C224.893327,45.2853309 223.837338,44.6133376 222.984,43.76 C220.978657,41.8399904 219.976,39.109351 219.976,35.568 L219.976,21.808 Z" id="DevFest"></path>
            </g>
            <g id="XMLID_60_">
                <g id="XMLID_61_">
                    <g id="XMLID_62_">
                        <path d="M68.7209877,50.75 L39.2691358,0 L0,0 L32.4320988,56 L0,112 L39.2691358,112 L68.6333333,61.25 C70.5617284,58.0125 70.5617284,53.9875 68.7209877,50.75 Z" id="XMLID_106_"></path>
                        <polygon id="XMLID_105_" fill="#FFC107" fill-rule="nonzero" points="51.891358 89.5125 42.5123457 73.4125 20.1604938 112 39.2691358 112 52.0666667 89.95"></polygon>
                        <path d="M68.7209877,50.75 L39.2691358,0 L0,0 L32.4320988,56 L0,112 L39.2691358,112 L68.6333333,61.25 C70.5617284,58.0125 70.5617284,53.9875 68.7209877,50.75 Z" id="XMLID_104_"></path>
                        <polygon id="XMLID_103_" fill="#0F9D58" fill-rule="nonzero" points="32.4320988 56 42.5123457 73.4125 20.1604938 112 0 112"></polygon>
                        <path d="M68.7209877,50.75 L39.2691358,0 L0,0 L32.4320988,56 L0,112 L39.2691358,112 L68.6333333,61.25 C70.5617284,58.0125 70.5617284,53.9875 68.7209877,50.75 Z" id="XMLID_102_"></path>
                        <polygon id="XMLID_101_" fill="#BF360C" fill-rule="nonzero" opacity="0.2" points="39.2691358 111.125 20.6864198 111.125 20.1604938 112 39.2691358 112 52.0666667 89.95 51.891358 89.5125"></polygon>
                        <path d="M68.7209877,50.75 L39.2691358,0 L0,0 L32.4320988,56 L0,112 L39.2691358,112 L68.6333333,61.25 C70.5617284,58.0125 70.5617284,53.9875 68.7209877,50.75 Z" id="XMLID_100_"></path>
                        <polygon id="XMLID_99_" fill="#263238" fill-rule="nonzero" opacity="0.2" points="0.525925926 111.125 0 112 20.1604938 112 20.6864198 111.125"></polygon>
                        <path d="M68.7209877,50.75 L39.2691358,0 L0,0 L32.4320988,56 L0,112 L39.2691358,112 L68.6333333,61.25 C70.5617284,58.0125 70.5617284,53.9875 68.7209877,50.75 Z" id="XMLID_98_"></path>
                        <polygon id="XMLID_96_" fill="#FFFFFF" fill-rule="nonzero" opacity="0.2" points="0 112 0.525925926 112 32.6950617 56.4375 32.4320988 56"></polygon>
                        <path d="M68.7209877,50.75 L39.2691358,0 L0,0 L32.4320988,56 L0,112 L39.2691358,112 L68.6333333,61.25 C70.5617284,58.0125 70.5617284,53.9875 68.7209877,50.75 Z" id="XMLID_94_"></path>
                        <polygon id="XMLID_92_" fill="url(#radialGradient-1)" fill-rule="nonzero" points="52.0666667 89.95 42.5123457 73.4125 40.145679 77.4375"></polygon>
                        <path d="M68.7209877,50.75 L39.2691358,0 L0,0 L32.4320988,56 L0,112 L39.2691358,112 L68.6333333,61.25 C70.5617284,58.0125 70.5617284,53.9875 68.7209877,50.75 Z" id="XMLID_90_"></path>
                        <polygon id="XMLID_89_" fill="url(#radialGradient-2)" fill-rule="nonzero" points="40.145679 77.4375 42.5123457 73.4125 32.4320988 56 27.6111111 64.3125"></polygon>
                        <path d="M68.7209877,50.75 L39.2691358,0 L0,0 L32.4320988,56 L0,112 L39.2691358,112 L68.6333333,61.25 C70.5617284,58.0125 70.5617284,53.9875 68.7209877,50.75 Z" id="XMLID_88_"></path>
                        <g id="XMLID_85_" fill="#4285F4" fill-rule="nonzero">
                            <g id="XMLID_86_">
                                <polygon id="XMLID_87_" points="20.1604938 0 0 0 52.0666667 89.95 62.1469136 72.5375"></polygon>
                            </g>
                        </g>
                        <path d="M68.7209877,50.75 L39.2691358,0 L0,0 L32.4320988,56 L0,112 L39.2691358,112 L68.6333333,61.25 C70.5617284,58.0125 70.5617284,53.9875 68.7209877,50.75 Z" id="XMLID_84_"></path>
                        <path d="M68.7209877,61.25 C70.5617284,58.0125 70.5617284,53.9875 68.7209877,50.75 L39.2691358,0 L20.1604938,0 L62.1469136,72.5375 L68.7209877,61.25 Z" id="XMLID_83_" fill="#DB4437" fill-rule="nonzero"></path>
                        <path d="M68.7209877,50.75 L39.2691358,0 L0,0 L32.4320988,56 L0,112 L39.2691358,112 L68.6333333,61.25 C70.5617284,58.0125 70.5617284,53.9875 68.7209877,50.75 Z" id="XMLID_82_"></path>
                        <polygon id="XMLID_71_" fill="#1A237E" fill-rule="nonzero" opacity="0.2" points="62.1469136 72.5375 61.9716049 72.1 52.0666667 89.075 0.525925926 0 0 0 52.0666667 89.95"></polygon>
                        <path d="M68.7209877,50.75 L39.2691358,0 L0,0 L32.4320988,56 L0,112 L39.2691358,112 L68.6333333,61.25 C70.5617284,58.0125 70.5617284,53.9875 68.7209877,50.75 Z" id="XMLID_69_"></path>
                        <path d="M39.2691358,0.875 L68.6333333,51.625 C69.5098765,53.1125 69.9481481,54.775 70.0358025,56.4375 C70.1234568,54.5125 69.6851852,52.5 68.6333333,50.75 L39.2691358,0 L0,0 L0.525925926,0.875 L39.2691358,0.875 Z" id="XMLID_67_" fill="#FFFFFF" fill-rule="nonzero" opacity="0.2"></path>
                        <path d="M68.7209877,50.75 L39.2691358,0 L0,0 L32.4320988,56 L0,112 L39.2691358,112 L68.6333333,61.25 C70.5617284,58.0125 70.5617284,53.9875 68.7209877,50.75 Z" id="XMLID_66_"></path>
                        <path d="M62.1469136,72.5375 L68.7209877,61.25 C69.7728395,59.5 70.2111111,57.4875 70.1234568,55.5625 C70.0358025,57.225 69.5975309,58.8875 68.7209877,60.375 L61.9716049,72.1 L62.1469136,72.5375 Z" id="XMLID_65_" fill="#3E2723" fill-rule="nonzero" opacity="0.2"></path>
                        <path d="M68.7209877,50.75 L39.2691358,0 L0,0 L32.4320988,56 L0,112 L39.2691358,112 L68.6333333,61.25 C70.5617284,58.0125 70.5617284,53.9875 68.7209877,50.75 Z" id="XMLID_64_"></path>
                        <path d="M68.7209877,50.75 L39.2691358,0 L0,0 L32.4320988,56 L0,112 L39.2691358,112 L68.6333333,61.25 C70.5617284,58.0125 70.5617284,53.9875 68.7209877,50.75 Z" id="XMLID_63_" fill="url(#radialGradient-3)" fill-rule="nonzero"></path>
                    </g>
                </g>
            </g>
        </g>
    </g>
</svg>
