<?xml version="1.0" encoding="UTF-8" standalone="no"?>
<svg viewBox="0 0 1979 500" version="1.1" xmlns="http://www.w3.org/2000/svg" xmlns:xlink="http://www.w3.org/1999/xlink">
    <!-- Generator: Sketch 48.2 (47327) - http://www.bohemiancoding.com/sketch -->
    <title>devfest_gray_text</title>
    <desc>Created with Sketch.</desc>
    <defs>
        <path d="M108.12362,0.44477138 L0.173842273,177.677835 L53.4772982,177.677835 C66.673392,177.677835 83.0698674,168.542358 89.8780925,157.328439 L133.157832,83.9157095 C138.702409,72.6025748 140.971091,54.9314008 134.637378,44.5035755 L108.12362,0.44477138 Z" id="path-1"></path>
        <path d="M122.87395,0.228764153 C129.629097,11.43371 132.070365,29.7778873 125.315218,41.0236433 L2.23281246,246.076958 C-2.51805986,256.210637 2.42223301,264.245142 14.6347394,264.245142 L63.3779775,264.245142 L172.968008,82.8591822 L122.87395,0.228764153 Z" id="path-3"></path>
        <path d="M14.7515601,0.83427986 C1.49722603,0.83427986 -3.76632109,10.0358773 3.04532813,21.2468137 L203.336561,351.242456 C209.673459,361.707869 209.864391,376.97773 204.317025,388.334196 L250.851122,312.568964 L61.4540947,0.83427986 L14.7515601,0.83427986 Z" id="path-5"></path>
        <path d="M212.720359,224.402175 L89.7296479,21.2552992 C82.9300149,10.0373313 66.5604327,0.834613055 53.3885575,0.834613055 L0.203424662,0.834613055 L186.739271,309.001192 L212.722934,265.256319 C219.527716,253.992375 219.527716,235.620143 212.720359,224.402175 Z" id="path-7"></path>
    </defs>
    <g id="Letter" stroke="none" stroke-width="1" fill="none" fill-rule="evenodd" transform="translate(-702.000000, -734.000000)">
        <g id="Devfest-gray" transform="translate(742.000000, 741.000000)">
            <g id="Group" transform="translate(388.334995, 38.050682)" fill="#333333">
                <g id="Group-2">
                    <path d="M72.7745025,250.966926 L72.7745025,407.738043 L49.8875857,407.738043 L49.8875857,250.966926 L0.133418995,250.966926 L0.133418995,228.998999 L122.528669,228.998999 L122.528669,250.966926 L72.7745025,250.966926 Z M115.563086,346.577337 C115.563086,327.771366 121.450603,312.210906 133.225815,299.895491 C145.166875,287.580077 160.175898,281.422462 178.253336,281.422462 C196.330774,281.422462 211.256874,287.580077 223.032086,299.895491 C234.973146,312.210906 240.943586,327.771366 240.943586,346.577337 C240.943586,365.549732 234.973146,381.110192 223.032086,393.259182 C211.256874,405.574597 196.330774,411.732212 178.253336,411.732212 C160.175898,411.732212 145.166875,405.574597 133.225815,393.259182 C121.450603,380.943767 115.563086,365.383308 115.563086,346.577337 Z M138.450003,346.577337 C138.450003,359.724874 142.264451,370.375884 149.893461,378.530685 C157.522471,386.685487 166.975668,390.762827 178.253336,390.762827 C189.531003,390.762827 198.984201,386.685487 206.613211,378.530685 C214.242221,370.375884 218.056669,359.724874 218.056669,346.577337 C218.056669,333.596224 214.242221,323.028425 206.613211,314.873624 C198.818353,306.552397 189.365155,302.391847 178.253336,302.391847 C167.141517,302.391847 157.688319,306.552397 149.893461,314.873624 C142.264451,323.028425 138.450003,333.596224 138.450003,346.577337 Z M367.56794,407.738043 L345.676107,407.738043 L345.676107,390.762827 L344.681024,390.762827 C341.198215,396.75411 335.849695,401.74677 328.635305,405.740959 C321.420915,409.735147 313.916403,411.732212 306.121545,411.732212 C291.19522,411.732212 279.710415,407.446845 271.666784,398.875982 C263.623154,390.305119 259.601399,378.114705 259.601399,362.304376 L259.601399,285.41663 L282.488315,285.41663 L282.488315,360.806562 C282.985859,380.777505 293.019516,390.762827 312.589586,390.762827 C321.711229,390.762827 329.340125,387.059937 335.476503,379.654045 C341.612881,372.248154 344.681024,363.386181 344.681024,353.067861 L344.681024,285.41663 L367.56794,285.41663 L367.56794,407.738043 Z M418.317191,228.998999 L418.317191,407.738043 L395.430274,407.738043 L395.430274,228.998999 L418.317191,228.998999 Z M437.970086,346.577337 C437.970086,327.771366 443.857604,312.210906 455.632816,299.895491 C467.573875,287.580077 482.582899,281.422462 500.660337,281.422462 C518.737774,281.422462 533.663875,287.580077 545.439087,299.895491 C557.380146,312.210906 563.350587,327.771366 563.350587,346.577337 C563.350587,365.549732 557.380146,381.110192 545.439087,393.259182 C533.663875,405.574597 518.737774,411.732212 500.660337,411.732212 C482.582899,411.732212 467.573875,405.574597 455.632816,393.259182 C443.857604,380.943767 437.970086,365.383308 437.970086,346.577337 Z M460.857003,346.577337 C460.857003,359.724874 464.671451,370.375884 472.300461,378.530685 C479.929472,386.685487 489.382669,390.762827 500.660337,390.762827 C511.938004,390.762827 521.391201,386.685487 529.020212,378.530685 C536.649222,370.375884 540.46367,359.724874 540.46367,346.577337 C540.46367,333.596224 536.649222,323.028425 529.020212,314.873624 C521.225353,306.552397 511.772156,302.391847 500.660337,302.391847 C489.548517,302.391847 480.09532,306.552397 472.300461,314.873624 C464.671451,323.028425 460.857003,333.596224 460.857003,346.577337 Z M689.974941,407.738043 L668.083108,407.738043 L668.083108,390.762827 L667.088024,390.762827 C663.605215,396.75411 658.256696,401.74677 651.042306,405.740959 C643.827915,409.735147 636.323404,411.732212 628.528545,411.732212 C613.60222,411.732212 602.117415,407.446845 594.073785,398.875982 C586.030154,390.305119 582.008399,378.114705 582.008399,362.304376 L582.008399,285.41663 L604.895316,285.41663 L604.895316,360.806562 C605.39286,380.777505 615.426517,390.762827 634.996587,390.762827 C644.11823,390.762827 651.747126,387.059937 657.883503,379.654045 C664.019881,372.248154 667.088024,363.386181 667.088024,353.067861 L667.088024,285.41663 L689.974941,285.41663 L689.974941,407.738043 Z M809.882483,373.78761 C809.882483,384.43878 805.238807,393.425569 795.951316,400.748248 C786.663825,408.070927 774.971713,411.732212 760.874629,411.732212 C748.601873,411.732212 737.821911,408.528588 728.53442,402.121244 C719.246929,395.713899 712.613107,387.267982 708.632754,376.783237 L729.031962,368.045993 C732.017227,375.368672 736.370673,381.068626 742.092431,385.146027 C747.814189,389.223428 754.074859,391.262098 760.874629,391.262098 C768.171943,391.262098 774.266767,389.681089 779.159285,386.519023 C784.051802,383.356957 786.498025,379.612461 786.498025,375.285423 C786.498025,367.463471 780.527584,361.721911 768.586525,358.060571 L747.689774,352.818225 C723.973503,346.826942 712.115545,335.343822 712.115545,318.368521 C712.115545,307.218078 716.634837,298.272894 725.673556,291.532701 C734.712275,284.792508 746.280003,281.422462 760.377087,281.422462 C771.15721,281.422462 780.900637,284.002003 789.60766,289.161163 C798.314683,294.320324 804.409507,301.226838 807.892316,309.880913 L787.493108,318.368521 C785.171235,313.209361 781.398249,309.173627 776.174035,306.261198 C770.949821,303.348768 765.103765,301.892576 758.635691,301.892576 C752.665161,301.892576 747.316642,303.390374 742.589972,306.386015 C737.863303,309.381657 735.500004,313.042941 735.500004,317.369979 C735.500004,324.359809 742.050903,329.35247 755.152899,332.348111 L773.561941,337.091186 C797.775757,343.082469 809.882483,355.314488 809.882483,373.78761 Z M885.757587,411.732212 C867.845998,411.732212 853.085742,405.574597 841.476379,393.259182 C829.867015,380.943767 824.06242,365.383308 824.06242,346.577337 C824.06242,327.93779 829.70117,312.418936 840.978837,300.020309 C852.256505,287.621682 866.685069,281.422462 884.264962,281.422462 C902.3424,281.422462 916.729503,287.288838 927.426702,299.021767 C938.123901,310.754696 943.472421,327.188871 943.472421,348.324785 L943.22365,350.821141 L847.446879,350.821141 C847.778575,362.803707 851.758868,372.456184 859.387879,379.778863 C867.016889,387.101542 876.138395,390.762827 886.752671,390.762827 C901.347299,390.762827 912.790643,383.440258 921.083046,368.794899 L941.482254,378.780321 C936.009268,389.098641 928.421834,397.17011 918.719723,402.994968 C909.017612,408.819826 898.030343,411.732212 885.757587,411.732212 Z M849.188275,331.84884 L919.092879,331.84884 C918.429487,323.361189 914.988191,316.329859 908.768889,310.754637 C902.549587,305.179416 894.215848,302.391847 883.767421,302.391847 C875.143322,302.391847 867.721733,305.054599 861.502431,310.380184 C855.283129,315.705769 851.178451,322.861916 849.188275,331.84884 Z M1123.5825,385.770116 L1123.5825,407.738043 L1015.11842,407.738043 L1015.11842,384.771574 L1059.15086,340.086813 C1073.91133,324.942181 1084.11084,313.583878 1089.74967,306.011562 C1095.3885,298.439246 1098.20788,290.492594 1098.20788,282.171368 C1098.20788,274.682265 1095.30558,268.275017 1089.5009,262.949432 C1083.69622,257.623847 1076.23317,254.961095 1067.11153,254.961095 C1059.31667,254.961095 1052.59992,257.291003 1046.96109,261.95089 C1041.32225,266.610776 1037.67365,272.269125 1036.01517,278.926106 L1015.11842,270.438498 C1018.43538,259.953753 1024.82044,251.09178 1034.27377,243.852313 C1043.72711,236.612847 1054.83877,232.993168 1067.60907,232.993168 C1083.03294,232.993168 1095.88597,237.736195 1106.16855,247.222393 C1116.45113,256.708591 1121.59234,268.358133 1121.59234,282.171368 C1121.59234,298.647396 1112.55375,316.454553 1094.47632,335.593373 L1044.72215,385.770116 L1123.5825,385.770116 Z M1145.47434,322.36269 C1145.47434,296.400464 1151.85939,275.015234 1164.62969,258.206357 C1177.39999,241.39748 1193.8187,232.993168 1213.88632,232.993168 C1233.95393,232.993168 1250.37264,241.480691 1263.14294,258.455992 C1275.91324,275.264869 1282.2983,296.566889 1282.2983,322.36269 C1282.2983,347.992066 1275.91324,369.377297 1263.14294,386.519023 C1250.37264,403.327899 1233.95393,411.732212 1213.88632,411.732212 C1193.8187,411.732212 1177.39999,403.327899 1164.62969,386.519023 C1151.85939,369.377297 1145.47434,347.992066 1145.47434,322.36269 Z M1258.91384,322.36269 C1258.91384,302.724596 1254.7677,286.581659 1246.4753,273.933396 C1238.34874,261.285132 1227.48586,254.961095 1213.88632,254.961095 C1200.28678,254.961095 1189.42389,261.285132 1181.29734,273.933396 C1173.00494,286.581659 1168.8588,302.724596 1168.8588,322.36269 C1168.8588,342.000783 1173.00494,358.226931 1181.29734,371.041619 C1189.42389,383.523459 1200.28678,389.764285 1213.88632,389.764285 C1227.48586,389.764285 1238.34874,383.440248 1246.4753,370.791984 C1254.7677,357.977295 1258.91384,341.834359 1258.91384,322.36269 Z M1365.38775,236.987336 L1365.38775,407.738043 L1342.50084,407.738043 L1342.50084,265.445787 L1309.41432,279.924648 L1300.70734,260.453077 L1350.71028,236.987336 L1365.38775,236.987336 Z M1511.665,360.556927 C1511.665,375.202285 1506.10918,387.351093 1494.99736,397.003715 C1483.71969,406.822762 1470.03743,411.732212 1453.95017,411.732212 C1437.86291,411.732212 1424.18065,406.822762 1412.90298,397.003715 C1401.79116,387.351093 1396.23534,375.202285 1396.23534,360.556927 C1396.23534,351.570003 1398.6401,343.373718 1403.44969,335.967826 C1408.25929,328.561935 1415.14188,322.695559 1424.09767,318.368521 L1424.09767,317.369979 C1417.46375,313.042941 1412.11523,307.717436 1408.05195,301.393305 C1403.98868,295.069173 1401.95707,288.412292 1401.95707,281.422462 C1401.95707,267.609226 1406.84951,256.042895 1416.63455,246.723122 C1426.25373,237.569773 1438.69215,232.993168 1453.95017,232.993168 C1469.20819,232.993168 1481.64661,237.569773 1491.2658,246.723122 C1501.05083,256.042895 1505.94328,267.609226 1505.94328,281.422462 C1505.94328,288.412292 1503.91167,295.069173 1499.84839,301.393305 C1495.78511,307.717436 1490.43659,313.042941 1483.80267,317.369979 L1483.80267,318.368521 C1492.75847,322.695559 1499.64106,328.561935 1504.45065,335.967826 C1509.26024,343.373718 1511.665,351.570003 1511.665,360.556927 Z M1425.34153,280.923191 C1425.34153,288.911568 1427.99505,295.360421 1433.30219,300.269945 C1438.60933,305.179468 1445.49192,307.634193 1453.95017,307.634193 C1462.40842,307.634193 1469.29101,305.179468 1474.59815,300.269945 C1479.90529,295.360421 1482.55882,288.911568 1482.55882,280.923191 C1482.55882,272.934813 1479.90529,266.610776 1474.59815,261.95089 C1469.29101,257.291003 1462.40842,254.961095 1453.95017,254.961095 C1445.49192,254.961095 1438.60933,257.291003 1433.30219,261.95089 C1427.99505,266.610776 1425.34153,272.934813 1425.34153,280.923191 Z M1419.6198,359.308749 C1419.6198,363.802211 1420.49049,367.879551 1422.23189,371.54089 C1423.97329,375.20223 1426.37806,378.405854 1429.44624,381.151859 C1432.51443,383.897863 1436.12157,386.019744 1440.26778,387.517565 C1444.41398,389.015385 1448.97473,389.764285 1453.95017,389.764285 C1458.92561,389.764285 1463.48637,389.015385 1467.63257,387.517565 C1471.77877,386.019744 1475.38591,383.897863 1478.4541,381.151859 C1481.52229,378.405854 1483.92705,375.20223 1485.66845,371.54089 C1487.40986,367.879551 1488.28055,363.802211 1488.28055,359.308749 C1488.28055,350.654674 1484.96364,343.498527 1478.32971,337.840093 C1471.69579,332.015235 1463.56936,329.102849 1453.95017,329.102849 C1444.33098,329.102849 1436.12163,332.015235 1429.32186,337.840093 C1422.85378,343.664951 1419.6198,350.821098 1419.6198,359.308749 Z" id="Toulouse-2018"></path>
                    <path d="M0.829977329,0.732264241 L65.0460219,0.732264241 C80.0829119,0.732264241 93.6159099,3.03998301 105.645422,7.65548979 C117.674934,12.2709966 127.935246,18.79474 136.426666,27.2269159 C144.918087,35.6590917 151.419233,45.7331717 155.9303,57.4494582 C160.441367,69.1657446 162.696867,82.0357147 162.696867,96.0597545 C162.696867,110.261314 160.441367,123.220042 155.9303,134.936329 C151.419233,146.652615 144.918087,156.682316 136.426666,165.025732 C127.935246,173.369148 117.674934,179.848512 105.645422,184.464019 C93.6159099,189.079526 80.0829119,191.387245 65.0460219,191.387245 L0.829977329,191.387245 L0.829977329,0.732264241 Z M63.4538886,157.303673 C73.8912593,157.303673 83.0901599,155.839159 91.0508664,152.910087 C99.0115729,149.981016 105.645395,145.85375 110.952533,140.528165 C116.259671,135.20258 120.239964,128.767595 122.893533,121.223017 C125.547102,113.678438 126.873866,105.290768 126.873866,96.0597545 C126.873866,86.8287409 125.547102,78.4410708 122.893533,70.8964924 C120.239964,63.351914 116.259671,56.916929 110.952533,51.5913442 C105.645395,46.2657595 99.0115729,42.1384932 91.0508664,39.2094216 C83.0901599,36.28035 73.8912593,34.8158362 63.4538886,34.8158362 L36.6529774,34.8158362 L36.6529774,157.303673 L63.4538886,157.303673 Z M306.519578,159.966452 C300.504822,170.617621 292.411558,179.227188 282.239544,185.795409 C272.067531,192.36363 259.64017,195.647691 244.957089,195.647691 C235.050432,195.647691 225.895757,193.916902 217.492789,190.455272 C209.089821,186.993642 201.792616,182.156308 195.600955,175.943126 C189.409295,169.729944 184.588717,162.407375 181.139078,153.975199 C177.689438,145.543023 175.964644,136.267769 175.964644,126.149158 C175.964644,116.740625 177.645213,107.820404 181.0064,99.3882283 C184.367587,90.9560525 189.055488,83.5891041 195.070244,77.2871621 C201.085,70.9852202 208.205303,65.9703698 216.431367,62.2424605 C224.65743,58.5145512 233.723654,56.6506245 243.630311,56.6506245 C254.067682,56.6506245 263.355033,58.3814135 271.492644,61.8430436 C279.630256,65.3046737 286.44098,70.0976281 291.925022,76.2220505 C297.409065,82.346473 301.56626,89.5802837 304.396733,97.9236998 C307.227207,106.267116 308.642422,115.320474 308.642422,125.084046 L308.642422,128.279381 C308.465518,129.344498 308.377067,130.320841 308.377067,131.208438 C308.200162,132.096036 308.111711,133.072378 308.111711,134.137495 L210.195511,134.137495 C210.903129,139.46308 212.36257,144.034138 214.573878,147.850807 C216.785185,151.667476 219.527165,154.862779 222.7999,157.436812 C226.072635,160.010844 229.654899,161.874771 233.5468,163.028648 C237.438701,164.182524 241.418994,164.759454 245.4878,164.759454 C253.448506,164.759454 260.038104,162.939907 265.256789,159.300757 C270.475474,155.661608 274.588444,151.090549 277.595822,145.587445 L306.519578,159.966452 Z M274.942267,109.37365 C274.765362,107.065896 274.013529,104.491902 272.686744,101.651591 C271.35996,98.8112787 269.414039,96.1485262 266.848922,93.6632534 C264.283806,91.1779805 261.099571,89.1365369 257.296122,87.5388615 C253.492674,85.9411861 248.937449,85.1423604 243.630311,85.1423604 C236.200318,85.1423604 229.654947,87.2725623 223.994,91.5330301 C218.333053,95.7934979 214.35276,101.740312 212.053,109.37365 L274.942267,109.37365 Z M314.480245,60.9110709 L354.018222,60.9110709 L386.3916,143.989778 L388.249089,143.989778 L420.887823,60.9110709 L460.160445,60.9110709 L404.170422,191.387245 L369.939556,191.387245 L314.480245,60.9110709 Z M480.327467,0.732264241 L600.798889,0.732264241 L600.798889,34.8158362 L516.150467,34.8158362 L516.150467,81.1481918 L592.307512,81.1481918 L592.307512,115.231764 L516.150467,115.231764 L516.150467,191.387245 L480.327467,191.387245 L480.327467,0.732264241 Z M739.31449,159.966452 C733.299734,170.617621 725.20647,179.227188 715.034456,185.795409 C704.862443,192.36363 692.435082,195.647691 677.752001,195.647691 C667.845344,195.647691 658.690669,193.916902 650.287701,190.455272 C641.884733,186.993642 634.587528,182.156308 628.395867,175.943126 C622.204207,169.729944 617.383629,162.407375 613.93399,153.975199 C610.48435,145.543023 608.759556,136.267769 608.759556,126.149158 C608.759556,116.740625 610.440125,107.820404 613.801312,99.3882283 C617.162499,90.9560525 621.8504,83.5891041 627.865156,77.2871621 C633.879912,70.9852202 641.000215,65.9703698 649.226278,62.2424605 C657.452342,58.5145512 666.518566,56.6506245 676.425223,56.6506245 C686.862594,56.6506245 696.149945,58.3814135 704.287556,61.8430436 C712.425167,65.3046737 719.235892,70.0976281 724.719934,76.2220505 C730.203976,82.346473 734.361172,89.5802837 737.191645,97.9236998 C740.022119,106.267116 741.437334,115.320474 741.437334,125.084046 L741.437334,128.279381 C741.26043,129.344498 741.171979,130.320841 741.171979,131.208438 C740.995074,132.096036 740.906623,133.072378 740.906623,134.137495 L642.990423,134.137495 C643.698041,139.46308 645.157482,144.034138 647.36879,147.850807 C649.580097,151.667476 652.322077,154.862779 655.594812,157.436812 C658.867547,160.010844 662.449811,161.874771 666.341712,163.028648 C670.233613,164.182524 674.213906,164.759454 678.282712,164.759454 C686.243418,164.759454 692.833015,162.939907 698.051701,159.300757 C703.270386,155.661608 707.383356,151.090549 710.390734,145.587445 L739.31449,159.966452 Z M707.737179,109.37365 C707.560274,107.065896 706.808441,104.491902 705.481656,101.651591 C704.154872,98.8112787 702.208951,96.1485262 699.643834,93.6632534 C697.078718,91.1779805 693.894483,89.1365369 690.091034,87.5388615 C686.287585,85.9411861 681.732361,85.1423604 676.425223,85.1423604 C668.99523,85.1423604 662.449859,87.2725623 656.788912,91.5330301 C651.127965,95.7934979 647.147671,101.740312 644.847912,109.37365 L707.737179,109.37365 Z M816.532957,195.647691 C808.041536,195.647691 800.478979,194.58259 793.845057,192.452356 C787.211134,190.322122 781.461822,187.526232 776.596945,184.064602 C771.732069,180.602972 767.619099,176.608844 764.257912,172.082097 C760.896725,167.55535 758.331647,162.984291 756.562601,158.368784 L787.609201,145.054889 C790.616579,151.80063 794.641098,156.81548 799.682879,160.099591 C804.72466,163.383701 810.341296,165.025732 816.532957,165.025732 C822.901522,165.025732 827.943227,163.871873 831.658223,161.564119 C835.37322,159.256366 837.23069,156.504855 837.23069,153.309504 C837.23069,149.759114 835.682798,146.874466 832.586968,144.655472 C829.491137,142.436479 824.139854,140.439414 816.532957,138.664219 L798.223423,134.670051 C794.154618,133.782453 789.953197,132.362319 785.619034,130.409604 C781.284872,128.45689 777.348804,125.971654 773.810712,122.953823 C770.27262,119.935992 767.353738,116.296897 765.053979,112.036429 C762.754219,107.775961 761.604356,102.80549 761.604356,97.1248661 C761.604356,90.7341644 762.975346,85.0536259 765.717368,80.0830802 C768.459389,75.1125344 772.218555,70.8965097 776.994979,67.4348796 C781.771403,63.9732496 787.388039,61.3104971 793.845057,59.4465425 C800.302074,57.5825878 807.245475,56.6506245 814.675468,56.6506245 C827.058789,56.6506245 838.11516,59.0914808 847.844912,63.9732669 C857.574665,68.8550529 864.739193,76.6214141 869.338712,87.2725836 L839.353534,99.5213673 C836.87687,94.373302 833.25038,90.6454486 828.473957,88.3376952 C823.697533,86.0299418 818.92118,84.8760825 814.144757,84.8760825 C809.191428,84.8760825 804.857331,85.8968042 801.142334,87.9382784 C797.427338,89.9797525 795.569868,92.5981258 795.569868,95.7934766 C795.569868,98.811308 797.11776,101.207785 800.21359,102.98298 C803.30942,104.758175 807.510841,106.355826 812.817979,107.775982 L832.719645,112.568985 C845.98749,115.764336 855.849772,120.867944 862.30679,127.879964 C868.763807,134.891984 871.992268,143.190896 871.992268,152.776948 C871.992268,158.457572 870.665503,163.871835 868.011934,169.019901 C865.358366,174.167966 861.599199,178.739024 856.734323,182.733213 C851.869447,186.727401 846.031683,189.878325 839.220857,192.186078 C832.41003,194.493832 824.847472,195.647691 816.532957,195.647691 Z M906.223134,90.7341964 L883.402557,90.7341964 L883.402557,60.9110709 L906.223134,60.9110709 L906.223134,20.9693851 L940.984712,20.9693851 L940.984712,60.9110709 L972.827379,60.9110709 L972.827379,90.7341964 L940.984712,90.7341964 L940.984712,141.326998 C940.984712,144.34483 941.294291,147.14072 941.913457,149.714753 C942.532623,152.288785 943.726711,154.463366 945.495757,156.238561 C947.972421,159.078873 951.51046,160.499008 956.109979,160.499008 C959.117357,160.499008 961.505533,160.188353 963.274579,159.567035 C965.043625,158.945717 966.724193,158.102512 968.316335,157.037395 L978.13449,187.659354 C974.065685,189.612068 969.687362,191.076582 964.99939,192.05294 C960.311419,193.029297 955.137037,193.517468 949.47609,193.517468 C942.93062,193.517468 937.048631,192.496746 931.829946,190.455272 C926.61126,188.413798 922.232937,185.617908 918.694846,182.067518 C910.38033,174.079141 906.223134,162.718064 906.223134,147.983946 L906.223134,90.7341964 Z" id="DevFest"></path>
                </g>
            </g>
            <g id="Group-5">
                <g id="path2895" transform="translate(68.195414, 310.113060)">
                    <mask id="mask-2" fill="white">
                        <use xlink:href="#path-1"></use>
                    </mask>
                    <use id="Mask" fill="#333333" fill-rule="nonzero" xlink:href="#path-1"></use>
                    <path d="M-236.221435,-71.2726331 C-221.495076,-82.6419521 -197.470505,-106.95042 -190.912037,-148.074954 C-201.684797,-148.062642 -209.797329,-156.070755 -209.797329,-165.946767 C-209.797329,-175.822765 -201.684797,-183.830872 -191.680014,-183.830872 C-181.675228,-183.830872 -173.562693,-175.822765 -173.562693,-165.946767 C-173.562693,-160.130466 -176.412149,-154.930154 -180.765334,-151.66432 C-166.636853,-139.468344 -124.658003,-107.523345 -63.2755357,-98.7750349 C-72.0895992,-159.385154 -104.461209,-200.838523 -116.819218,-214.787149 C-120.127669,-210.489987 -125.395768,-207.677223 -131.287913,-207.677223 C-141.292722,-207.677223 -149.405216,-215.685333 -149.405216,-225.561331 C-149.405216,-235.437346 -141.292722,-243.445456 -131.287913,-243.445456 C-121.28313,-243.445456 -113.170609,-235.437346 -113.170609,-225.561331 C-71.5230937,-231.277297 -46.8986401,-254.992615 -35.3810791,-269.529427 C-41.8187621,-272.272651 -46.3390353,-278.608595 -46.3390353,-285.969907 C-46.3390353,-295.845899 -38.227514,-303.854009 -28.2217141,-303.854009 C-18.1154012,-303.854009 -10.0038444,-295.845899 -10.0038444,-285.969907 C-10.0038444,-278.608595 -14.5231597,-272.272651 -20.9618272,-269.529427 C-9.4442397,-254.992615 15.1801963,-231.277297 56.8410061,-224.80524 C56.829215,-235.437346 64.9407717,-243.445456 74.9465657,-243.445456 C84.9523597,-243.445456 93.0638869,-235.437346 93.0638869,-225.561331 C93.0638869,-215.685333 84.9523597,-207.677223 74.9465657,-207.677223 C69.0543853,-207.677223 63.7862774,-210.489987 60.4778473,-214.787149 C48.1208232,-200.838523 15.7471704,-159.385154 6.89286401,-98.7748913 C68.3155856,-107.524183 110.294401,-139.468203 124.423919,-151.664179 C120.071743,-154.93001 117.221308,-160.130323 117.221308,-165.946629 C117.221308,-175.822627 125.332776,-183.830728 135.33857,-183.830728 C145.344364,-183.830728 153.455891,-175.822627 153.455891,-165.946629 C153.455891,-156.070614 145.344364,-148.062501 135.33857,-148.062501 C141.130054,-106.950285 165.152615,-82.6427905 179.881061,-71.2724924 C182.657006,-77.6273003 189.077604,-82.0893798 196.535875,-82.0893798 C206.539636,-82.0893798 214.653167,-74.0822838 214.653167,-64.2062803 C214.653167,-54.3292888 206.539636,-46.3221811 196.535875,-46.3221811 C189.077604,-46.3221811 182.657006,-50.783261 179.881061,-57.1390832 C165.152615,-45.7697202 141.130054,-21.4612322 134.571619,19.6632813 C145.344364,19.6515555 153.455891,27.6597186 153.455891,37.535684 C153.455891,47.411708 145.344364,55.4197831 135.33857,55.4197831 C125.332776,55.4197831 117.221308,47.411708 117.221308,37.535684 C117.221308,31.7193657 120.071743,26.5190916 124.423919,23.2532516 C110.295403,11.0572491 68.3165879,-20.88573 6.9341328,-29.6350808 C15.7471704,30.9722272 48.1208232,72.4296067 60.4778473,86.3762122 C63.7862774,82.0790884 69.0543853,79.2663039 74.9465657,79.2663039 C84.9523597,79.2663039 93.0638869,87.2744084 93.0638869,97.1504031 C93.0638869,107.026368 84.9523597,115.034502 74.9465657,115.034502 C64.9407717,115.034502 56.829215,107.026368 56.829215,97.1504031 C15.1801963,102.866349 -9.44323746,126.581716 -20.9618272,141.118511 C-14.5241325,143.860735 -10.0038444,150.197649 -10.0038444,157.558959 C-10.0038444,167.434953 -18.1154012,175.443058 -28.1211951,175.443058 C-38.227514,175.443058 -46.3390353,167.434953 -46.3390353,157.558959 C-46.3390353,150.197649 -41.8197554,143.860735 -35.3810791,141.118511 C-46.8986401,126.581716 -71.5241166,102.866349 -113.183874,96.3923009 C-113.170609,107.026368 -121.28313,115.034502 -131.287913,115.034502 C-141.292722,115.034502 -149.405216,107.026368 -149.405216,97.1504031 C-149.405216,87.2744084 -141.292722,79.2663039 -131.287913,79.2663039 C-125.395768,79.2663039 -120.127669,82.0790884 -116.819218,86.3762122 C-104.461209,72.4296067 -72.0895992,30.9722272 -63.2352515,-29.6350808 C-124.657018,-20.8847626 -166.635857,11.0572491 -180.765361,23.2532516 C-176.412173,26.5190916 -173.562719,31.7193657 -173.562719,37.535684 C-173.562719,47.411708 -181.675255,55.4197831 -191.680038,55.4197831 C-201.684826,55.4197831 -209.797356,47.411708 -209.797356,37.535684 C-209.797356,27.6597186 -201.684826,19.6515555 -191.680038,19.6515555 C-197.470473,-21.4612029 -221.49504,-45.7686941 -236.221403,-57.1390246 C-238.999393,-50.784199 -245.418962,-46.3220932 -252.87625,-46.3220932 C-262.881035,-46.3220932 -270.993571,-54.3292302 -270.993571,-64.2062216 C-270.993571,-74.0822339 -262.881035,-82.089327 -252.87625,-82.089327 C-245.418995,-82.0895146 -238.999429,-77.6284348 -236.221435,-71.2726331 Z M-175.575737,-10.1556868 C-134.648692,-44.205997 -70.8002621,-51.857432 -38.8906415,-53.4938551 C-40.7566509,-21.9540675 -48.5410552,40.9225635 -82.9770124,81.2522144 C-82.9770124,81.2522144 -54.1402862,87.6427743 -28.1620807,115.322459 C-2.15183891,87.6297587 26.6325496,81.2520972 26.6325496,81.2520972 C-7.80348121,40.9224462 -15.5878649,-21.9541261 -17.2647336,-53.5057274 C14.4556638,-51.8576079 78.3051079,-44.2061729 119.2321,-10.1558334 C119.2321,-10.1558334 125.695971,-38.5806334 153.685198,-64.2085668 C125.707231,-89.7667405 119.232336,-118.25413 119.232336,-118.25413 C78.3052848,-84.2037757 14.4558407,-76.5523612 -17.4538036,-74.9159675 C-15.587688,-106.453199 -7.80330435,-169.331762 26.6327265,-209.661439 C26.6327265,-209.661439 -2.15169152,-216.040109 -28.1087555,-243.655169 C-54.1411705,-216.051849 -82.9769033,-209.661251 -82.9769033,-209.661251 C-48.541913,-169.331595 -40.7565123,-106.453035 -39.0796348,-74.9034678 C-70.8013056,-76.5522586 -134.648731,-84.2036936 -175.575749,-118.254045 C-175.575749,-118.254045 -182.039614,-89.8292243 -210.029864,-64.2052836 C-182.042603,-38.5933852 -175.575737,-10.1556868 -175.575737,-10.1556868 Z" fill="#FFFFFF" fill-rule="nonzero" opacity="0.500283062" mask="url(#mask-2)"></path>
                </g>
                <g id="path2895" transform="translate(0.000000, 223.547758)">
                    <mask id="mask-4" fill="white">
                        <use xlink:href="#path-3"></use>
                    </mask>
                    <use id="Mask" fill="#333333" fill-rule="nonzero" xlink:href="#path-3"></use>
                    <path d="M-166.380651,14.6419601 C-151.763565,3.24294871 -127.917263,-21.1290031 -121.407461,-62.3609386 C-132.100284,-62.3485943 -140.152619,-70.3776217 -140.152619,-80.2794263 C-140.152619,-90.1812163 -132.100284,-98.2102377 -122.169739,-98.2102377 C-112.239191,-98.2102377 -104.186853,-90.1812163 -104.186853,-80.2794263 C-104.186853,-74.4479357 -107.015165,-69.2340422 -111.336048,-65.9596791 C-97.3124045,-53.7318518 -55.6450477,-21.7034248 5.2819456,-12.9322675 C-3.46671526,-73.700677 -35.5981196,-115.262307 -47.8644287,-129.24736 C-51.1483299,-124.938976 -56.3773383,-122.118866 -62.2257621,-122.118866 C-72.1563333,-122.118866 -80.2086306,-130.14789 -80.2086306,-140.04968 C-80.2086306,-149.951488 -72.1563333,-157.980512 -62.2257621,-157.980512 C-52.2952172,-157.980512 -44.2428936,-149.951488 -44.2428936,-140.04968 C-2.90441341,-145.780574 21.5373205,-169.557828 32.9694183,-184.132604 C26.5795045,-186.882992 22.0927728,-193.235483 22.0927728,-200.616021 C22.0927728,-210.517805 30.1441046,-218.546829 40.0756589,-218.546829 C50.1069804,-218.546829 58.1583473,-210.517805 58.1583473,-200.616021 C58.1583473,-193.235483 53.6725666,-186.882992 47.2816756,-184.132604 C58.7137997,-169.557828 83.155516,-145.780574 124.507192,-139.291615 C124.495488,-149.951488 132.546855,-157.980512 142.478404,-157.980512 C152.409952,-157.980512 160.46129,-149.951488 160.46129,-140.04968 C160.46129,-130.14789 152.409952,-122.118866 142.478404,-122.118866 C136.629945,-122.118866 131.400928,-124.938976 128.117047,-129.24736 C115.851715,-115.262307 83.7182831,-73.700677 74.9296779,-12.9321235 C135.896627,-21.7042654 177.563949,-53.7317107 191.588623,-65.959538 C187.26874,-69.2338982 184.439456,-74.4477917 184.439456,-80.2792882 C184.439456,-90.1810781 192.490735,-98.2100937 202.422284,-98.2100937 C212.353832,-98.2100937 220.40517,-90.1810781 220.40517,-80.2792882 C220.40517,-70.3774806 212.353832,-62.3484533 202.422284,-62.3484533 C208.170794,-21.1288679 232.015101,3.24210813 246.634258,14.6421011 C249.389605,8.27069689 255.76256,3.79696419 263.16549,3.79696419 C273.095019,3.79696419 281.148347,11.8249716 281.148347,21.7267675 C281.148347,31.6295538 273.095019,39.657573 263.16549,39.657573 C255.76256,39.657573 249.389605,35.1848425 246.634258,28.8124214 C232.015101,40.2114768 208.170794,64.5834492 201.661024,105.815364 C212.353832,105.803608 220.40517,113.832685 220.40517,123.734443 C220.40517,133.636259 212.353832,141.665248 202.422284,141.665248 C192.490735,141.665248 184.439456,133.636259 184.439456,123.734443 C184.439456,117.902934 187.26874,112.689079 191.588623,109.41471 C177.564944,97.1868563 135.897622,65.1604543 74.9706405,56.3882537 C83.7182831,117.153845 115.851715,158.719495 128.117047,172.702524 C131.400928,168.394177 136.629945,165.574047 142.478404,165.574047 C152.409952,165.574047 160.46129,173.603065 160.46129,183.504852 C160.46129,193.40661 152.409952,201.435658 142.478404,201.435658 C132.546855,201.435658 124.495488,193.40661 124.495488,183.504852 C83.155516,189.235726 58.7147945,213.013029 47.2816756,227.587788 C53.671601,230.337174 58.1583473,236.690638 58.1583473,244.071172 C58.1583473,253.972959 50.1069804,262.001978 40.175432,262.001978 C30.1441046,262.001978 22.0927728,253.972959 22.0927728,244.071172 C22.0927728,236.690638 26.5785185,230.337174 32.9694183,227.587788 C21.5373205,213.013029 -2.9054287,189.235726 -44.2560601,182.74477 C-44.2428936,193.40661 -52.2952172,201.435658 -62.2257621,201.435658 C-72.1563333,201.435658 -80.2086306,193.40661 -80.2086306,183.504852 C-80.2086306,173.603065 -72.1563333,165.574047 -62.2257621,165.574047 C-56.3773383,165.574047 -51.1483299,168.394177 -47.8644287,172.702524 C-35.5981196,158.719495 -3.46671526,117.153845 5.32193091,56.3882537 C-55.6440704,65.1614243 -97.3114156,97.1868563 -111.336075,109.41471 C-107.015189,112.689079 -104.186879,117.902934 -104.186879,123.734443 C-104.186879,133.636259 -112.239217,141.665248 -122.169762,141.665248 C-132.100313,141.665248 -140.152645,133.636259 -140.152645,123.734443 C-140.152645,113.832685 -132.100313,105.803608 -122.169762,105.803608 C-127.917231,64.5834786 -151.76353,40.2125055 -166.380619,28.8124801 C-169.137996,35.183902 -175.50993,39.6576612 -182.911883,39.6576612 C-192.84243,39.6576612 -200.894769,31.6296126 -200.894769,21.7268263 C-200.894769,11.8250216 -192.84243,3.79701709 -182.911883,3.79701709 C-175.509962,3.79682899 -169.138031,8.26955946 -166.380651,14.6419601 Z M-106.18496,75.9185203 C-65.5616038,41.7792837 -2.18694538,34.1078662 29.4858977,32.4671694 C27.6337346,64.0893268 19.9070925,127.130167 -14.273341,167.565144 C-14.273341,167.565144 14.3494093,173.972393 40.1348498,201.724366 C65.952089,173.959344 94.52289,167.565026 94.52289,167.565026 C60.3423833,127.13005 52.6157617,64.089268 50.9513359,32.455266 C82.4363598,34.1076898 145.812025,41.7791074 186.435328,75.9183734 C186.435328,75.9183734 192.851235,47.4193387 220.632775,21.724475 C192.862412,-3.90044683 186.435562,-32.4622343 186.435562,-32.4622343 C145.8122,1.6770463 82.4365353,9.3484433 50.7636688,10.9891107 C52.6159373,-20.6304838 60.3425589,-83.6732612 94.5230656,-124.108264 C94.5230656,-124.108264 65.9522353,-130.503593 40.1877793,-158.190773 C14.3485315,-130.515364 -14.2732328,-124.108076 -14.2732328,-124.108076 C19.9062411,-83.6730937 27.6338721,-20.6303192 29.2983067,11.001643 C-2.18798115,9.34854616 -65.5616418,1.6771286 -106.184971,-32.4621491 C-106.184971,-32.4621491 -112.600873,-3.96309385 -140.383428,21.7277668 C-112.60384,47.4065536 -106.18496,75.9185203 -106.18496,75.9185203 Z" fill="#FFFFFF" fill-rule="nonzero" opacity="0.500283062" mask="url(#mask-4)"></path>
                </g>
                <g id="path2895" transform="translate(2.841476, 0.000000)">
                    <mask id="mask-6" fill="white">
                        <use xlink:href="#path-5"></use>
                    </mask>
                    <use id="Mask" fill="#333333" fill-rule="nonzero" xlink:href="#path-5"></use>
                    <path d="M-170.169528,238.740059 C-155.435762,227.329759 -131.399108,202.93367 -124.837342,161.660901 C-135.61552,161.673258 -143.732132,153.636279 -143.732132,143.724668 C-143.732132,133.813072 -135.61552,125.776099 -125.605705,125.776099 C-115.595887,125.776099 -107.479272,133.813072 -107.479272,143.724668 C-107.479272,149.561934 -110.330161,154.780991 -114.685535,158.058597 C-100.549949,170.298534 -58.5499852,202.35868 2.86335336,211.138524 C-5.95514306,150.309932 -38.343034,108.707142 -50.707258,94.7082385 C-54.0173727,99.0208898 -59.2881213,101.843792 -65.1832297,101.843792 C-75.193071,101.843792 -83.3096452,93.8068166 -83.3096452,83.8952204 C-83.3096452,73.9836066 -75.193071,65.9466307 -65.1832297,65.9466307 C-55.173415,65.9466307 -47.0568143,73.9836066 -47.0568143,83.8952204 C-5.38835267,78.158651 19.2484856,54.35785 30.7718393,39.7686396 C24.3309185,37.0155274 19.8083718,30.6567451 19.8083718,23.2688986 C19.8083718,13.3573083 27.9239728,5.32033239 37.934805,5.32033239 C48.0462008,5.32033239 56.1618372,13.3573083 56.1618372,23.2688986 C56.1618372,30.6567451 51.640249,37.0155274 45.1983432,39.7686396 C56.7217234,54.35785 81.358544,78.158651 123.040307,84.654037 C123.02851,73.9836066 131.144146,65.9466307 141.154972,65.9466307 C151.165799,65.9466307 159.281405,73.9836066 159.281405,83.8952204 C159.281405,93.8068166 151.165799,101.843792 141.154972,101.843792 C135.259829,101.843792 129.989071,99.0208898 126.678977,94.7082385 C114.315738,108.707142 81.9258033,150.309932 73.0670437,211.138668 C134.520657,202.357838 176.520585,170.298675 190.65721,158.058738 C186.302845,154.781135 183.450976,149.562078 183.450976,143.724806 C183.450976,133.81321 191.566524,125.776243 201.57735,125.776243 C211.588176,125.776243 219.703783,133.81321 219.703783,143.724806 C219.703783,153.63642 211.588176,161.673399 201.57735,161.673399 C207.371747,202.933806 231.40639,227.328918 246.142244,238.7402 C248.919585,232.362486 255.343411,227.884323 262.805434,227.884323 C272.814226,227.884323 280.931838,235.920281 280.931838,245.831883 C280.931838,255.744477 272.814226,263.780446 262.805434,263.780446 C255.343411,263.780446 248.919585,259.303286 246.142244,252.924554 C231.40639,264.334899 207.371747,288.731008 200.810013,330.003757 C211.588176,329.991989 219.703783,338.029017 219.703783,347.940581 C219.703783,357.852204 211.588176,365.889144 201.57735,365.889144 C191.566524,365.889144 183.450976,357.852204 183.450976,347.940581 C183.450976,342.103298 186.302845,336.884279 190.65721,333.606667 C176.521588,321.366704 134.52166,289.308584 73.1083332,280.527696 C81.9258033,341.353466 114.315738,382.960281 126.678977,396.957158 C129.989071,392.644544 135.259829,389.821621 141.154972,389.821621 C151.165799,389.821621 159.281405,397.858591 159.281405,407.770185 C159.281405,417.681748 151.165799,425.718748 141.154972,425.718748 C131.144146,425.718748 123.02851,417.681748 123.02851,407.770185 C81.358544,413.506733 56.7227261,437.307584 45.1983432,451.896777 C51.6392757,454.648886 56.1618372,461.008642 56.1618372,468.396486 C56.1618372,478.308079 48.0462008,486.345049 38.0353745,486.345049 C27.9239728,486.345049 19.8083718,478.308079 19.8083718,468.396486 C19.8083718,461.008642 24.3299246,454.648886 30.7718393,451.896777 C19.2484856,437.307584 -5.38937606,413.506733 -47.0700859,407.00935 C-47.0568143,417.681748 -55.173415,425.718748 -65.1832297,425.718748 C-75.193071,425.718748 -83.3096452,417.681748 -83.3096452,407.770185 C-83.3096452,397.858591 -75.193071,389.821621 -65.1832297,389.821621 C-59.2881213,389.821621 -54.0173727,392.644544 -50.707258,396.957158 C-38.343034,382.960281 -5.95514306,341.353466 2.90365785,280.527696 C-58.5490002,289.309555 -100.548952,321.366704 -114.685562,333.606667 C-110.330185,336.884279 -107.479298,342.103298 -107.479298,347.940581 C-107.479298,357.852204 -115.595914,365.889144 -125.605728,365.889144 C-135.615549,365.889144 -143.732159,357.852204 -143.732159,347.940581 C-143.732159,338.029017 -135.615549,329.991989 -125.605728,329.991989 C-131.399076,288.731037 -155.435726,264.335928 -170.169495,252.924613 C-172.948883,259.302345 -179.371681,263.780535 -186.832719,263.780535 C-196.842536,263.780535 -204.959152,255.744535 -204.959152,245.831942 C-204.959152,235.920331 -196.842536,227.884376 -186.832719,227.884376 C-179.371713,227.884188 -172.948918,232.361348 -170.169528,238.740059 Z M-109.493328,300.077305 C-68.5456996,265.904258 -4.66515751,258.225243 27.2605118,256.582922 C25.3935639,288.236396 17.6052445,351.339669 -16.8480319,391.81469 C-16.8480319,391.81469 12.0031974,398.228285 37.9944684,426.007742 C64.0177918,398.215222 92.8166572,391.814572 92.8166572,391.814572 C58.363307,351.339551 50.5750083,288.236337 48.8972962,256.571007 C80.6336471,258.225067 144.515204,265.904082 185.462779,300.077157 C185.462779,300.077157 191.929901,271.549899 219.933206,245.829588 C191.941167,220.179289 185.463015,191.589215 185.463015,191.589215 C144.515381,225.762306 80.633824,233.4413 48.7081312,235.083592 C50.5751852,203.432683 58.363484,140.327472 92.8168341,99.8524242 C92.8168341,99.8524242 64.0179393,93.450762 38.0478204,65.7361618 C12.0023127,93.4389793 -16.8479228,99.8526125 -16.8479228,99.8526125 C17.6043862,140.32764 25.3937025,203.432848 27.0714234,235.096137 C-4.66620154,233.441403 -68.5457379,225.762388 -109.49334,191.589301 C-109.49334,191.589301 -115.960456,220.11658 -143.964784,245.832883 C-115.963447,271.537101 -109.493328,300.077305 -109.493328,300.077305 Z" fill="#FFFFFF" fill-rule="nonzero" opacity="0.500283062" mask="url(#mask-6)"></path>
                </g>
                <g id="path2895" transform="translate(68.195414, 0.000000)">
                    <mask id="mask-8" fill="white">
                        <use xlink:href="#path-7"></use>
                    </mask>
                    <use id="Mask" fill="#333333" fill-rule="nonzero" xlink:href="#path-7"></use>
                    <path d="M-235.835017,238.835407 C-221.132812,227.42055 -197.147646,203.014718 -190.599935,161.725465 C-201.355025,161.737827 -209.454252,153.697638 -209.454252,143.782069 C-209.454252,133.866514 -201.355025,125.826331 -191.366652,125.826331 C-181.378276,125.826331 -173.279047,133.866514 -173.279047,143.782069 C-173.279047,149.621666 -176.123829,154.842807 -180.469874,158.121722 C-166.364567,170.366548 -124.454569,202.439498 -63.1727805,211.222848 C-71.9723873,150.369963 -104.290902,108.750558 -116.628641,94.7460632 C-119.931666,99.0604369 -125.191124,101.884467 -131.073605,101.884467 C-141.062004,101.884467 -149.161193,93.8442812 -149.161193,83.9287265 C-149.161193,74.0131542 -141.062004,65.9729685 -131.073605,65.9729685 C-121.085232,65.9729685 -112.986017,74.0131542 -112.986017,83.9287265 C-71.406811,78.189866 -46.822746,54.3795595 -35.3240759,39.7845224 C-41.7511999,37.0303107 -46.2640591,30.6689888 -46.2640591,23.2781917 C-46.2640591,13.3626429 -38.1658421,5.32245723 -28.1764536,5.32245723 C-18.0867168,5.32245723 -9.98846451,13.3626429 -9.98846451,23.2781917 C-9.98846451,30.6689888 -14.5003673,37.0303107 -20.9284742,39.7845224 C-9.42977763,54.3795595 15.1542698,78.189866 56.7467483,84.6878461 C56.7349765,74.0131542 64.8332288,65.9729685 74.8226115,65.9729685 C84.8119941,65.9729685 92.910217,74.0131542 92.910217,83.9287265 C92.910217,93.8442812 84.8119941,101.884467 74.8226115,101.884467 C68.9400954,101.884467 63.6806281,99.0604369 60.3776244,94.7460632 C48.0408681,108.750558 15.720314,150.369963 6.88053026,211.222992 C68.2025074,202.438656 110.11247,170.366689 124.218813,158.121863 C119.873775,154.842951 117.028015,149.62181 117.028015,143.782207 C117.028015,133.866652 125.126179,125.826475 135.115562,125.826475 C145.104944,125.826475 153.203167,133.866652 153.203167,143.782207 C153.203167,153.697779 145.104944,161.737968 135.115562,161.737968 C140.897547,203.014854 164.880706,227.419708 179.584995,238.835549 C182.356387,232.455287 188.766454,227.975336 196.212493,227.975336 C206.199845,227.975336 214.300069,236.014503 214.300069,245.930064 C214.300069,255.846616 206.199845,263.885795 196.212493,263.885795 C188.766454,263.885795 182.356387,259.406847 179.584995,253.025567 C164.880706,264.440469 140.897547,288.846321 134.349869,330.135554 C145.104944,330.123781 153.203167,338.16402 153.203167,348.079542 C153.203167,357.995123 145.104944,366.035273 135.115562,366.035273 C125.126179,366.035273 117.028015,357.995123 117.028015,348.079542 C117.028015,342.239927 119.873775,337.018824 124.218813,333.739903 C110.11347,321.495051 68.203508,289.424129 6.92173136,280.639733 C15.720314,341.489796 48.0408681,383.113228 60.3776244,397.115694 C63.6806281,392.801359 68.9400954,389.977308 74.8226115,389.977308 C84.8119941,389.977308 92.910217,398.017488 92.910217,407.93304 C92.910217,417.848562 84.8119941,425.888772 74.8226115,425.888772 C64.8332288,425.888772 56.7349765,417.848562 56.7349765,407.93304 C15.1542698,413.67188 -9.42877703,437.482236 -20.9284742,452.077256 C-14.5013384,454.830464 -9.98846451,461.19276 -9.98846451,468.583554 C-9.98846451,478.499106 -18.0867168,486.539286 -28.0760995,486.539286 C-38.1658421,486.539286 -46.2640591,478.499106 -46.2640591,468.583554 C-46.2640591,461.19276 -41.7521916,454.830464 -35.3240759,452.077256 C-46.822746,437.482236 -71.4078322,413.67188 -112.99926,407.171901 C-112.986017,417.848562 -121.085232,425.888772 -131.073605,425.888772 C-141.062004,425.888772 -149.161193,417.848562 -149.161193,407.93304 C-149.161193,398.017488 -141.062004,389.977308 -131.073605,389.977308 C-125.191124,389.977308 -119.931666,392.801359 -116.628641,397.115694 C-104.290902,383.113228 -71.9723873,341.489796 -63.1325624,280.639733 C-124.453586,289.4251 -166.363572,321.495051 -180.469901,333.739903 C-176.123853,337.018824 -173.279073,342.239927 -173.279073,348.079542 C-173.279073,357.995123 -181.378303,366.035273 -191.366676,366.035273 C-201.355055,366.035273 -209.454278,357.995123 -209.454278,348.079542 C-209.454278,338.16402 -201.355055,330.123781 -191.366676,330.123781 C-197.147613,288.846351 -221.132776,264.441499 -235.834985,253.025626 C-238.608419,259.405905 -245.017459,263.885883 -252.462515,263.885883 C-262.450891,263.885883 -270.55012,255.846675 -270.55012,245.930122 C-270.55012,236.014553 -262.450891,227.975389 -252.462515,227.975389 C-245.017491,227.9752 -238.608454,232.454148 -235.835017,238.835407 Z M-175.288789,300.19715 C-134.428872,266.010455 -70.685165,258.328374 -38.8278819,256.685396 C-40.6908308,288.351512 -48.4624672,351.479987 -82.8419432,391.971173 C-82.8419432,391.971173 -54.0525144,398.38733 -28.116918,426.177881 C-2.1493377,398.374262 26.5878392,391.971055 26.5878392,391.971055 C-7.79171028,351.479869 -15.5633262,288.351453 -17.2374445,256.673476 C14.4309257,258.328197 78.1756451,266.010279 119.035509,300.197002 C119.035509,300.197002 125.488778,271.658351 153.432098,245.927768 C125.50002,220.267224 119.035745,191.665732 119.035745,191.665732 C78.1758217,225.852471 14.4311022,233.534532 -17.4262043,235.17748 C-15.5631496,203.51393 -7.79153371,140.383516 26.5880158,99.8923033 C26.5880158,99.8923033 -2.14919055,93.4880844 -28.0636803,65.7624155 C-54.0533973,93.476297 -82.8418343,99.8924917 -82.8418343,99.8924917 C-48.4633236,140.383684 -40.6906925,203.514095 -39.0165653,235.19003 C-70.6862068,233.534635 -134.42891,225.852553 -175.288801,191.665818 C-175.288801,191.665818 -181.742064,220.20449 -209.686405,245.931064 C-181.745048,271.645548 -175.288789,300.19715 -175.288789,300.19715 Z" fill="#FFFFFF" fill-rule="nonzero" opacity="0.500283062" mask="url(#mask-8)"></path>
                </g>
            </g>
        </g>
    </g>
</svg>
