<?xml version="1.0" encoding="UTF-8"?>
<svg width="400px" height="100px" preserveAspectRatio="xMidYMid meet" viewBox="0 0 1979 500" version="1.1" xmlns="http://www.w3.org/2000/svg" xmlns:xlink="http://www.w3.org/1999/xlink">
    <!-- Generator: Sketch 48.2 (47327) - http://www.bohemiancoding.com/sketch -->
    <title>devfest_color_text</title>
    <desc>Created with Sketch.</desc>
    <defs>
        <radialGradient cx="-54.1520536%" cy="-174.153191%" fx="-54.1520536%" fy="-174.153191%" r="402.145714%" gradientTransform="translate(-0.541521,-1.741532),scale(1.000000,0.780707),translate(0.541521,1.741532)" id="radialGradient-1">
            <stop stop-color="#FFCD4D" offset="0%"></stop>
            <stop stop-color="#F6C338" offset="100%"></stop>
        </radialGradient>
        <path d="M108.749072,0.443554708 L0.0787261303,180.862149 L54.9634313,180.862149 C67.9516862,180.862149 84.0899165,171.751662 90.7909118,160.568419 L137.020165,83.6861581 C142.477415,72.4039705 142.289584,56.0045865 136.055627,45.6052866 L108.749072,0.443554708 Z" id="path-2"></path>
        <radialGradient cx="-6.59523187%" cy="-88.3511738%" fx="-6.59523187%" fy="-88.3511738%" r="326.48889%" gradientTransform="translate(-0.065952,-0.883512),scale(1.000000,0.662949),translate(0.065952,0.883512)" id="radialGradient-4">
            <stop stop-color="#0DA960" offset="0%"></stop>
            <stop stop-color="#03914B" offset="100%"></stop>
        </radialGradient>
        <path d="M124.481539,0.227153064 C131.191746,11.3531872 131.191746,29.5681742 124.481539,40.7347311 L2.21795833,244.343942 C-2.50130809,254.406254 2.40611874,262.384175 14.5373796,262.384175 L65.3813727,262.384175 L174.242339,82.2756399 L124.481539,0.227153064 Z" id="path-5"></path>
        <radialGradient cx="-4.42220406%" cy="-2.56349149%" fx="-4.42220406%" fy="-2.56349149%" r="226.256254%" gradientTransform="translate(-0.044222,-0.025635),scale(1.000000,0.648066),translate(0.044222,0.025635)" id="radialGradient-7">
            <stop stop-color="#4387FD" offset="0%"></stop>
            <stop stop-color="#4683EA" offset="100%"></stop>
        </radialGradient>
        <path d="M14.5436161,0.82823562 C1.47612052,0.82823562 -3.71322948,9.96316881 3.00239994,21.0928835 L201.683279,349.920063 C207.930849,360.309655 208.11909,376.691196 202.649922,387.965386 L250.954122,307.859829 L65.4399469,0.82823562 L14.5436161,0.82823562 Z" id="path-8"></path>
        <radialGradient cx="-35.1606313%" cy="-3.23311374%" fx="-35.1606313%" fy="-3.23311374%" r="261.045138%" gradientTransform="translate(-0.351606,-0.032331),scale(1.000000,0.709733),translate(0.351606,0.032331)" id="radialGradient-10">
            <stop stop-color="#E04A3F" offset="0%"></stop>
            <stop stop-color="#CD372D" offset="100%"></stop>
        </radialGradient>
        <path d="M213.154587,222.884178 L91.266694,21.111515 C84.5280311,9.96943246 68.3052297,0.828967207 55.2514625,0.828967207 L0.109757376,0.828967207 L186.189729,308.134301 L213.157138,263.461958 C219.900904,252.274211 219.900904,234.02626 213.154587,222.884178 Z" id="path-11"></path>
    </defs>
    <g id="Letter" stroke="none" stroke-width="1" fill="none" fill-rule="evenodd" transform="translate(-702.000000, -183.000000)">
        <g id="Devfest-couleur" transform="translate(744.000000, 191.000000)">
            <g id="Group" transform="translate(386.419162, 37.091977)" fill="#FFFFFF">
                <g id="Group-2">
                    <path d="M72.7704505,250.916606 L72.7704505,407.656289 L49.8848081,407.656289 L49.8848081,250.916606 L0.133411566,250.916606 L0.133411566,228.953083 L122.521847,228.953083 L122.521847,250.916606 L72.7704505,250.916606 Z M115.556652,346.507846 C115.556652,327.705645 121.443841,312.148306 133.218397,299.83536 C145.158792,287.522415 160.16698,281.366035 178.243411,281.366035 C196.319842,281.366035 211.245112,287.522415 223.019668,299.83536 C234.960063,312.148306 240.930171,327.705645 240.930171,346.507846 C240.930171,365.476437 234.960063,381.033777 223.019668,393.180331 C211.245112,405.493276 196.319842,411.649657 178.243411,411.649657 C160.16698,411.649657 145.158792,405.493276 133.218397,393.180331 C121.443841,380.867386 115.556652,365.310046 115.556652,346.507846 Z M138.442294,346.507846 C138.442294,359.652747 142.25653,370.301621 149.885115,378.454787 C157.513701,386.607954 166.966372,390.684476 178.243411,390.684476 C189.520451,390.684476 198.973122,386.607954 206.601707,378.454787 C214.230293,370.301621 218.044528,359.652747 218.044528,346.507846 C218.044528,333.529336 214.230293,322.963656 206.601707,314.810489 C198.807283,306.490932 189.354612,302.331215 178.243411,302.331215 C167.13221,302.331215 157.67954,306.490932 149.885115,314.810489 C142.25653,322.963656 138.442294,333.529336 138.442294,346.507846 Z M367.547475,407.656289 L345.656861,407.656289 L345.656861,390.684476 L344.661833,390.684476 C341.179217,396.674558 335.830996,401.666217 328.617007,405.659605 C321.403019,409.652993 313.898925,411.649657 306.1045,411.649657 C291.179007,411.649657 279.694841,407.365149 271.651658,398.796004 C263.608476,390.22686 259.586945,378.038891 259.586945,362.231731 L259.586945,285.359402 L282.472587,285.359402 L282.472587,360.734218 C282.970103,380.701157 293.003201,390.684476 312.572182,390.684476 C321.693317,390.684476 329.321788,386.982328 335.457824,379.577922 C341.59386,372.173516 344.661833,363.31332 344.661833,352.997068 L344.661833,285.359402 L367.547475,285.359402 L367.547475,407.656289 Z M418.293899,228.953083 L418.293899,407.656289 L395.408257,407.656289 L395.408257,228.953083 L418.293899,228.953083 Z M437.945701,346.507846 C437.945701,327.705645 443.832891,312.148306 455.607447,299.83536 C467.547842,287.522415 482.55603,281.366035 500.632461,281.366035 C518.708892,281.366035 533.634162,287.522415 545.408718,299.83536 C557.349112,312.148306 563.31922,327.705645 563.31922,346.507846 C563.31922,365.476437 557.349112,381.033777 545.408718,393.180331 C533.634162,405.493276 518.708892,411.649657 500.632461,411.649657 C482.55603,411.649657 467.547842,405.493276 455.607447,393.180331 C443.832891,380.867386 437.945701,365.310046 437.945701,346.507846 Z M460.831343,346.507846 C460.831343,359.652747 464.645579,370.301621 472.274165,378.454787 C479.90275,386.607954 489.355421,390.684476 500.632461,390.684476 C511.9095,390.684476 521.362171,386.607954 528.990757,378.454787 C536.619342,370.301621 540.433578,359.652747 540.433578,346.507846 C540.433578,333.529336 536.619342,322.963656 528.990757,314.810489 C521.196332,306.490932 511.743661,302.331215 500.632461,302.331215 C489.52126,302.331215 480.068589,306.490932 472.274165,314.810489 C464.645579,322.963656 460.831343,333.529336 460.831343,346.507846 Z M689.936525,407.656289 L668.04591,407.656289 L668.04591,390.684476 L667.050882,390.684476 C663.568267,396.674558 658.220045,401.666217 651.006057,405.659605 C643.792068,409.652993 636.287974,411.649657 628.49355,411.649657 C613.568056,411.649657 602.08389,407.365149 594.040708,398.796004 C585.997525,390.22686 581.975994,378.038891 581.975994,362.231731 L581.975994,285.359402 L604.861636,285.359402 L604.861636,360.734218 C605.359153,380.701157 615.392251,390.684476 634.961231,390.684476 C644.082366,390.684476 651.710838,386.982328 657.846874,379.577922 C663.98291,372.173516 667.050882,363.31332 667.050882,352.997068 L667.050882,285.359402 L689.936525,285.359402 L689.936525,407.656289 Z M809.83739,373.712663 C809.83739,384.361697 805.193973,393.346685 795.906999,400.667895 C786.620025,407.989106 774.928564,411.649657 760.832265,411.649657 C748.560192,411.649657 737.780831,408.446675 728.493857,402.040616 C719.206883,395.634556 712.57343,387.190332 708.593298,376.707689 L728.991371,367.972197 C731.97647,375.293408 736.329673,380.992219 742.051112,385.068803 C747.772552,389.145386 754.032873,391.183647 760.832265,391.183647 C768.129173,391.183647 774.223658,389.602955 779.115903,386.441523 C784.008148,383.280091 786.454234,379.536346 786.454234,375.210176 C786.454234,367.389792 780.484126,361.649383 768.543731,357.988778 L747.648145,352.747483 C723.933194,346.757401 712.075896,335.276584 712.075896,318.304686 C712.075896,307.156479 716.594936,298.213088 725.633152,291.474247 C734.671367,284.735405 746.238451,281.366035 760.334751,281.366035 C771.114274,281.366035 780.857158,283.945059 789.563696,289.103184 C798.270234,294.26131 804.364719,301.16644 807.847334,309.81878 L787.449262,318.304686 C785.127518,313.14656 781.354742,309.111635 776.130819,306.19979 C770.906896,303.287945 765.061166,301.832044 758.593452,301.832044 C752.623254,301.832044 747.275033,303.329542 742.548626,306.324583 C737.82222,309.319624 735.459052,312.980174 735.459052,317.306344 C735.459052,324.294773 742.009587,329.286432 755.110854,332.281473 L773.518871,337.023597 C797.731338,343.013679 809.83739,355.243245 809.83739,373.712663 Z M885.70827,411.649657 C867.797678,411.649657 853.038244,405.493276 841.429527,393.180331 C829.82081,380.867386 824.016538,365.310046 824.016538,346.507846 C824.016538,327.872036 829.654973,312.356294 840.932013,299.960153 C852.209053,287.564012 866.636813,281.366035 884.215728,281.366035 C902.292159,281.366035 916.678461,287.231235 927.375065,298.961811 C938.071668,310.692387 943.41989,327.123267 943.41989,348.254944 L943.171133,350.750799 L847.399695,350.750799 C847.731372,362.730962 851.711444,372.381504 859.34003,379.702715 C866.968615,387.023926 876.089614,390.684476 886.703298,390.684476 C901.297114,390.684476 912.739821,383.363375 921.031761,368.720954 L941.429834,378.704373 C935.957153,389.020624 928.370141,397.090474 918.66857,402.914165 C908.966999,408.737855 897.980342,411.649657 885.70827,411.649657 Z M849.140993,331.782302 L919.041706,331.782302 C918.37835,323.296353 914.937246,316.266432 908.718291,310.692329 C902.499335,305.118225 894.16606,302.331215 883.718214,302.331215 C875.094596,302.331215 867.67342,304.993434 861.454464,310.317951 C855.235508,315.642467 851.131059,322.79718 849.140993,331.782302 Z M1123.51995,385.692766 L1123.51995,407.656289 L1015.0619,407.656289 L1015.0619,384.694424 L1059.09189,340.018623 C1073.85154,324.877028 1084.05048,313.521002 1089.689,305.950205 C1095.32752,298.379407 1098.14673,290.434349 1098.14673,282.114791 C1098.14673,274.627189 1095.2446,268.221226 1089.44024,262.896709 C1083.63588,257.572192 1076.17325,254.909973 1067.05211,254.909973 C1059.25769,254.909973 1052.54131,257.239415 1046.90279,261.898367 C1041.26427,266.557319 1037.61588,272.214534 1035.95749,278.87018 L1015.0619,270.384273 C1018.37868,259.901631 1024.76338,251.041435 1034.21619,243.803419 C1043.669,236.565404 1054.78004,232.946451 1067.54962,232.946451 C1082.97263,232.946451 1095.82495,237.688528 1106.10696,247.172823 C1116.38896,256.657119 1121.52989,268.304325 1121.52989,282.114791 C1121.52989,298.587515 1112.49181,316.391102 1094.41538,335.526084 L1044.66398,385.692766 L1123.51995,385.692766 Z M1145.41056,322.298054 C1145.41056,296.341034 1151.79526,274.960091 1164.56485,258.154585 C1177.33444,241.349078 1193.75223,232.946451 1213.81873,232.946451 C1233.88523,232.946451 1250.30302,241.432272 1263.07261,258.40417 C1275.8422,275.209677 1282.2269,296.507425 1282.2269,322.298054 C1282.2269,347.922291 1275.8422,369.303234 1263.07261,386.441523 C1250.30302,403.247029 1233.88523,411.649657 1213.81873,411.649657 C1193.75223,411.649657 1177.33444,403.247029 1164.56485,386.441523 C1151.79526,369.303234 1145.41056,347.922291 1145.41056,322.298054 Z M1258.84374,322.298054 C1258.84374,302.663898 1254.69784,286.524198 1246.40589,273.87847 C1238.27979,261.232742 1227.41751,254.909973 1213.81873,254.909973 C1200.21995,254.909973 1189.35767,261.232742 1181.23157,273.87847 C1172.93962,286.524198 1168.79372,302.663898 1168.79372,322.298054 C1168.79372,341.93221 1172.93962,358.155104 1181.23157,370.967223 C1189.35767,383.446559 1200.21995,389.686134 1213.81873,389.686134 C1227.41751,389.686134 1238.27979,383.363365 1246.40589,370.717637 C1254.69784,357.905519 1258.84374,341.765819 1258.84374,322.298054 Z M1365.31173,236.939819 L1365.31173,407.656289 L1342.42609,407.656289 L1342.42609,265.392564 L1309.34141,279.868522 L1300.63492,260.400854 L1350.63507,236.939819 L1365.31173,236.939819 Z M1511.58084,360.484633 C1511.58084,375.127054 1506.02532,387.273426 1494.91412,396.924113 C1483.63708,406.741191 1469.95558,411.649657 1453.86922,411.649657 C1437.78285,411.649657 1424.10136,406.741191 1412.82432,396.924113 C1401.71312,387.273426 1396.1576,375.127054 1396.1576,360.484633 C1396.1576,351.49951 1398.56223,343.304869 1403.37155,335.900463 C1408.18088,328.496056 1415.06308,322.630856 1424.01838,318.304686 L1424.01838,317.306344 C1417.38483,312.980174 1412.03661,307.655737 1407.97356,301.332873 C1403.9105,295.010009 1401.87901,288.354463 1401.87901,281.366035 C1401.87901,267.555569 1406.77118,255.991557 1416.55567,246.673652 C1426.17432,237.522139 1438.61205,232.946451 1453.86922,232.946451 C1469.12639,232.946451 1481.56411,237.522139 1491.18277,246.673652 C1500.96726,255.991557 1505.85943,267.555569 1505.85943,281.366035 C1505.85943,288.354463 1503.82793,295.010009 1499.76488,301.332873 C1495.70183,307.655737 1490.35361,312.980174 1483.72006,317.306344 L1483.72006,318.304686 C1492.67535,322.630856 1499.55756,328.496056 1504.36689,335.900463 C1509.17621,343.304869 1511.58084,351.49951 1511.58084,360.484633 Z M1425.26217,280.866864 C1425.26217,288.853639 1427.91555,295.301199 1433.22239,300.209738 C1438.52923,305.118278 1445.41144,307.57251 1453.86922,307.57251 C1462.327,307.57251 1469.20921,305.118278 1474.51605,300.209738 C1479.82289,295.301199 1482.47627,288.853639 1482.47627,280.866864 C1482.47627,272.880088 1479.82289,266.557319 1474.51605,261.898367 C1469.20921,257.239415 1462.327,254.909973 1453.86922,254.909973 C1445.41144,254.909973 1438.52923,257.239415 1433.22239,261.898367 C1427.91555,266.557319 1425.26217,272.880088 1425.26217,280.866864 Z M1419.54075,359.236705 C1419.54075,363.729266 1420.4114,367.805788 1422.1527,371.466394 C1423.89401,375.126999 1426.29864,378.329981 1429.36666,381.075435 C1432.43467,383.820889 1436.04161,385.942344 1440.18758,387.439865 C1444.33355,388.937385 1448.89405,389.686134 1453.86922,389.686134 C1458.84438,389.686134 1463.40488,388.937385 1467.55085,387.439865 C1471.69682,385.942344 1475.30376,383.820889 1478.37178,381.075435 C1481.4398,378.329981 1483.84443,375.126999 1485.58573,371.466394 C1487.32704,367.805788 1488.19768,363.729266 1488.19768,359.236705 C1488.19768,350.584365 1484.88096,343.429653 1478.2474,337.772354 C1471.61385,331.948663 1463.48787,329.036862 1453.86922,329.036862 C1444.25057,329.036862 1436.04167,331.948663 1429.24228,337.772354 C1422.77456,343.596044 1419.54075,350.750756 1419.54075,359.236705 Z" id="Toulouse-2018"></path>
                    <path d="M0.829931118,0.732117417 L65.0424002,0.732117417 C80.078453,0.732117417 93.6106976,3.03937348 105.63954,7.65395481 C117.668382,12.2685361 127.928123,18.7909715 136.41907,27.2214567 C144.910018,35.6519418 151.410802,45.7240019 155.921618,57.4379392 C160.432434,69.1518764 162.687808,82.019266 162.687808,96.0404939 C162.687808,110.239206 160.432434,123.195336 155.921618,134.909273 C151.410802,146.62321 144.910018,156.6509 136.41907,164.992643 C127.928123,173.334386 117.668382,179.812452 105.63954,184.427033 C93.6106976,189.041614 80.078453,191.34887 65.0424002,191.34887 L0.829931118,191.34887 L0.829931118,0.732117417 Z M63.4503556,157.272132 C73.8871451,157.272132 83.0855336,155.807912 91.0457968,152.879428 C99.0060601,149.950944 105.639513,145.824505 110.946355,140.499988 C116.253198,135.175471 120.23327,128.741776 122.886691,121.198711 C125.540112,113.655645 126.866802,105.269657 126.866802,96.0404939 C126.866802,86.8113312 125.540112,78.4253428 122.886691,70.8822772 C120.23327,63.3392115 116.253198,56.9055167 110.946355,51.5809998 C105.639513,46.2564829 99.0060601,42.1300442 91.0457968,39.2015599 C83.0855336,36.2730756 73.8871451,34.8088554 63.4503556,34.8088554 L36.6509366,34.8088554 L36.6509366,157.272132 L63.4503556,157.272132 Z M306.502511,159.934378 C300.48809,170.583411 292.395277,179.191251 282.22383,185.758155 C272.052382,192.32506 259.625713,195.608463 244.94345,195.608463 C235.037345,195.608463 225.883179,193.878021 217.480679,190.417085 C209.078179,186.956149 201.781381,182.119785 195.590065,175.907848 C189.398749,169.695912 184.57844,162.374811 181.128992,153.944326 C177.679545,145.513841 175.954847,136.240446 175.954847,126.123864 C175.954847,116.717218 177.635322,107.798785 180.996322,99.3683003 C184.357322,90.9378152 189.044962,83.5723439 195.059383,77.2716655 C201.073804,70.9709872 208.193711,65.9571423 216.419316,62.2299804 C224.644921,58.5028186 233.710641,56.6392656 243.616746,56.6392656 C254.053536,56.6392656 263.34037,58.3697077 271.477528,61.8306437 C279.614686,65.2915797 286.425032,70.083573 291.908768,76.2067675 C297.392505,82.3299619 301.549469,89.5623223 304.379785,97.9040655 C307.210101,106.245809 308.625238,115.297352 308.625238,125.058966 L308.625238,128.25366 C308.448343,129.318564 308.359897,130.29471 308.359897,131.18213 C308.183002,132.069549 308.094556,133.045696 308.094556,134.1106 L210.183808,134.1106 C210.891387,139.435116 212.350746,144.005258 214.561931,147.821162 C216.773115,151.637066 219.514942,154.831728 222.787495,157.405245 C226.060048,159.978761 229.642112,161.842314 233.533797,162.995959 C237.425481,164.149605 241.405553,164.726419 245.474132,164.726419 C253.434395,164.726419 260.023625,162.907236 265.24202,159.268816 C270.460415,155.630396 274.573156,151.060255 277.580366,145.558254 L306.502511,159.934378 Z M274.926958,109.35172 C274.750064,107.044429 273.998272,104.470951 272.671562,101.631209 C271.344851,98.7914663 269.399038,96.1292478 266.834065,93.6444732 C264.269091,91.1596987 261.085033,89.1186645 257.281796,87.5213094 C253.47856,85.9239543 248.923588,85.1252887 243.616746,85.1252887 C236.187167,85.1252887 229.64216,87.2550636 223.981528,91.5146771 C218.320897,95.7742906 214.340825,101.719912 212.041193,109.35172 L274.926958,109.35172 Z M314.462735,60.8988579 L353.998511,60.8988579 L386.370087,143.960907 L388.227472,143.960907 L420.864388,60.8988579 L460.134824,60.8988579 L404.147919,191.34887 L369.918958,191.34887 L314.462735,60.8988579 Z M480.300723,0.732117417 L600.765438,0.732117417 L600.765438,34.8088554 L516.121729,34.8088554 L516.121729,81.131921 L592.274533,81.131921 L592.274533,115.208659 L516.121729,115.208659 L516.121729,191.34887 L480.300723,191.34887 L480.300723,0.732117417 Z M739.273326,159.934378 C733.258905,170.583411 725.166092,179.191251 714.994645,185.758155 C704.823197,192.32506 692.396528,195.608463 677.714265,195.608463 C667.808159,195.608463 658.653994,193.878021 650.251494,190.417085 C641.848994,186.956149 634.552195,182.119785 628.360879,175.907848 C622.169564,169.695912 617.349254,162.374811 613.899807,153.944326 C610.450359,145.513841 608.725662,136.240446 608.725662,126.123864 C608.725662,116.717218 610.406136,107.798785 613.767136,99.3683003 C617.128136,90.9378152 621.815777,83.5723439 627.830198,77.2716655 C633.844619,70.9709872 640.964525,65.9571423 649.190131,62.2299804 C657.415736,58.5028186 666.481456,56.6392656 676.387561,56.6392656 C686.82435,56.6392656 696.111185,58.3697077 704.248343,61.8306437 C712.385501,65.2915797 719.195846,70.083573 724.679583,76.2067675 C730.16332,82.3299619 734.320284,89.5623223 737.1506,97.9040655 C739.980916,106.245809 741.396052,115.297352 741.396052,125.058966 L741.396052,128.25366 C741.219158,129.318564 741.130712,130.29471 741.130712,131.18213 C740.953817,132.069549 740.865371,133.045696 740.865371,134.1106 L642.954622,134.1106 C643.662201,139.435116 645.121561,144.005258 647.332745,147.821162 C649.54393,151.637066 652.285757,154.831728 655.55831,157.405245 C658.830862,159.978761 662.412927,161.842314 666.304611,162.995959 C670.196295,164.149605 674.176367,164.726419 678.244946,164.726419 C686.20521,164.726419 692.79444,162.907236 698.012835,159.268816 C703.231229,155.630396 707.34397,151.060255 710.351181,145.558254 L739.273326,159.934378 Z M707.697773,109.35172 C707.520878,107.044429 706.769087,104.470951 705.442376,101.631209 C704.115666,98.7914663 702.169853,96.1292478 699.604879,93.6444732 C697.039906,91.1596987 693.855848,89.1186645 690.052611,87.5213094 C686.249374,85.9239543 681.694403,85.1252887 676.387561,85.1252887 C668.957982,85.1252887 662.412975,87.2550636 656.752343,91.5146771 C651.091711,95.7742906 647.111639,101.719912 644.812008,109.35172 L707.697773,109.35172 Z M816.487494,195.608463 C807.996546,195.608463 800.434409,194.543575 793.800857,192.413768 C787.167304,190.283962 781.418311,187.488632 776.553706,184.027696 C771.689101,180.56676 767.57636,176.573432 764.21536,172.047593 C760.85436,167.521754 758.289424,162.951612 756.520477,158.33703 L787.565348,145.025805 C790.572559,151.770193 794.596854,156.784038 799.638354,160.06749 C804.679854,163.350942 810.296178,164.992643 816.487494,164.992643 C822.855704,164.992643 827.897129,163.839015 831.611918,161.531725 C835.326708,159.224434 837.184074,156.473475 837.184074,153.278765 C837.184074,149.729087 835.636269,146.845017 832.540611,144.626468 C829.444953,142.407919 824.093967,140.411255 816.487494,138.636416 L798.17898,134.643049 C794.110401,133.755629 789.909214,132.335779 785.575292,130.383456 C781.241371,128.431133 777.305522,125.946396 773.767628,122.92917 C770.229733,119.911944 767.311014,116.273578 765.011382,112.013965 C762.71175,107.754351 761.561952,102.784877 761.561952,97.1053919 C761.561952,90.7159716 762.932865,85.0365721 765.674734,80.0670229 C768.416602,75.0974738 772.175559,70.8822945 776.951717,67.4213585 C781.727875,63.9604225 787.344199,61.2982039 793.800857,59.434623 C800.257515,57.5710421 807.200529,56.6392656 814.630108,56.6392656 C827.01274,56.6392656 838.068495,59.0796326 847.797706,63.9604398 C857.526916,68.841247 864.691046,76.606051 869.290309,87.2550849 L839.306801,99.5014126 C836.830274,94.3543795 833.203987,90.6272736 828.427829,88.3199829 C823.651671,86.0126923 818.875584,84.8590642 814.099426,84.8590642 C809.146374,84.8590642 804.812518,85.8795813 801.097728,87.9206461 C797.382939,89.961711 795.525572,92.5795592 795.525572,95.7742693 C795.525572,98.7914956 797.073378,101.187492 800.169035,102.962331 C803.264693,104.73717 807.46588,106.334501 812.772723,107.754373 L832.673281,112.546414 C845.940387,115.741124 855.80212,120.843709 862.258778,127.854323 C868.715436,134.864937 871.943717,143.162185 871.943717,152.746316 C871.943717,158.4258 870.617026,163.838978 867.963605,168.986011 C865.310184,174.133044 861.551227,178.703186 856.686622,182.696574 C851.822017,186.689961 845.984578,189.840253 839.17413,192.147544 C832.363683,194.454835 824.801546,195.608463 816.487494,195.608463 Z M906.172678,90.7160036 L883.35337,90.7160036 L883.35337,60.8988579 L906.172678,60.8988579 L906.172678,20.9651806 L940.93232,20.9651806 L940.93232,60.8988579 L972.773214,60.8988579 L972.773214,90.7160036 L940.93232,90.7160036 L940.93232,141.298661 C940.93232,144.315888 941.241881,147.111217 941.861013,149.684734 C942.480144,152.25825 943.674166,154.432395 945.443113,156.207234 C947.91964,159.046977 951.457481,160.466827 956.056745,160.466827 C959.063955,160.466827 961.451998,160.156234 963.220946,159.535041 C964.989893,158.913847 966.670368,158.070811 968.262421,157.005908 L978.080029,187.621727 C974.01145,189.57405 969.633371,191.03827 964.945661,192.014432 C960.25795,192.990593 955.083857,193.478666 949.423225,193.478666 C942.87812,193.478666 936.996458,192.458149 931.778063,190.417085 C926.559668,188.37602 922.181589,185.58069 918.643694,182.031012 C910.329642,174.044237 906.172678,162.685438 906.172678,147.954274 L906.172678,90.7160036 Z" id="DevFest"></path>
                </g>
            </g>
            <g id="Group-2">
                <g id="Group-5">
                    <g id="path2895" transform="translate(65.350299, 304.344423)">
                        <mask id="mask-3" fill="white">
                            <use xlink:href="#path-2"></use>
                        </mask>
                        <use id="Mask" fill="url(#radialGradient-1)" fill-rule="nonzero" xlink:href="#path-2"></use>
                        <path d="M-230.172537,-67.4073152 C-215.678118,-78.7455335 -192.031936,-102.987505 -185.576764,-143.999543 C-196.179852,-143.987265 -204.164612,-151.973472 -204.164612,-161.822468 C-204.164612,-171.67145 -196.179852,-179.657651 -186.332645,-179.657651 C-176.485435,-179.657651 -168.500672,-171.67145 -168.500672,-161.822468 C-168.500672,-156.022078 -171.305249,-150.835991 -175.589871,-147.579091 C-161.683915,-135.416477 -120.366232,-103.558863 -59.9505415,-94.8344842 C-68.6257831,-155.278804 -100.487539,-196.618778 -112.650909,-210.529247 C-115.907251,-206.24384 -121.092378,-203.43877 -126.891721,-203.43877 C-136.738954,-203.43877 -144.723676,-211.424974 -144.723676,-221.273956 C-144.723676,-231.122956 -136.738954,-239.10916 -126.891721,-239.10916 C-117.044514,-239.10916 -109.059766,-231.122956 -109.059766,-221.273956 C-68.0682002,-226.974286 -43.8315825,-250.624731 -32.4954235,-265.121777 C-38.8317127,-267.857497 -43.2807915,-274.176109 -43.2807915,-281.517285 C-43.2807915,-291.366261 -35.2970269,-299.352465 -25.4488188,-299.352465 C-15.5016806,-299.352465 -7.51788116,-291.366261 -7.51788116,-281.517285 C-7.51788116,-274.176109 -11.966017,-267.857497 -18.3032753,-265.121777 C-6.96709022,-250.624731 17.26951,-226.974286 58.2741607,-220.519933 C58.2625553,-231.122956 66.2463547,-239.10916 76.0945571,-239.10916 C85.9427595,-239.10916 93.9265299,-231.122956 93.9265299,-221.273956 C93.9265299,-211.424974 85.9427595,-203.43877 76.0945571,-203.43877 C70.2951788,-203.43877 65.1100437,-206.24384 61.8537215,-210.529247 C49.691321,-196.618778 17.8275543,-155.278804 9.11270355,-94.834341 C69.5680152,-103.559699 110.885663,-135.416336 124.792641,-147.57895 C120.509011,-150.835848 117.70347,-156.021935 117.70347,-161.822331 C117.70347,-171.671313 125.687183,-179.657508 135.535385,-179.657508 C145.383588,-179.657508 153.367358,-171.671313 153.367358,-161.822331 C153.367358,-151.973331 145.383588,-143.987124 135.535385,-143.987124 C141.235654,-102.987371 164.879858,-78.7463696 179.376331,-67.4071749 C182.108554,-73.7445992 188.428027,-78.1944727 195.768831,-78.1944727 C205.615032,-78.1944727 213.600775,-70.2092801 213.600775,-60.3602924 C213.600775,-50.5103195 205.615032,-42.5251152 195.768831,-42.5251152 C188.428027,-42.5251152 182.108554,-46.9739917 179.376331,-53.3124276 C164.879858,-41.9741655 141.235654,-17.7321733 134.780514,23.2798441 C145.383588,23.2681503 153.367358,31.2544071 153.367358,41.1033568 C153.367358,50.952365 145.383588,58.938534 135.535385,58.938534 C125.687183,58.938534 117.70347,50.952365 117.70347,41.1033568 C117.70347,35.3029491 120.509011,30.1169003 124.792641,26.859994 C110.886649,14.6973537 69.5690016,-17.1582455 9.15332235,-25.8836624 C17.8275543,34.5578543 49.691321,75.9018273 61.8537215,89.8102818 C65.1100437,85.5249127 70.2951788,82.7198227 76.0945571,82.7198227 C85.9427595,82.7198227 93.9265299,90.7060209 93.9265299,100.555 C93.9265299,110.40395 85.9427595,118.390177 76.0945571,118.390177 C66.2463547,118.390177 58.2625553,110.40395 58.2625553,100.555 C17.26951,106.255309 -6.96610376,129.905804 -18.3032753,144.402833 C-11.9669745,147.137556 -7.51788116,153.457135 -7.51788116,160.798308 C-7.51788116,170.647287 -15.5016806,178.633485 -25.349883,178.633485 C-35.2970269,178.633485 -43.2807915,170.647287 -43.2807915,160.798308 C-43.2807915,153.457135 -38.8326905,147.137556 -32.4954235,144.402833 C-43.8315825,129.905804 -68.0692069,106.255309 -109.072822,99.7989715 C-109.059766,110.40395 -117.044514,118.390177 -126.891721,118.390177 C-136.738954,118.390177 -144.723676,110.40395 -144.723676,100.555 C-144.723676,90.7060209 -136.738954,82.7198227 -126.891721,82.7198227 C-121.092378,82.7198227 -115.907251,85.5249127 -112.650909,89.8102818 C-100.487539,75.9018273 -68.6257831,34.5578543 -59.9108917,-25.8836624 C-120.365263,-17.1572807 -161.682934,14.6973537 -175.589898,26.859994 C-171.305273,30.1169003 -168.500698,35.3029491 -168.500698,41.1033568 C-168.500698,50.952365 -176.485461,58.938534 -186.332668,58.938534 C-196.179881,58.938534 -204.164638,50.952365 -204.164638,41.1033568 C-204.164638,31.2544071 -196.179881,23.2681503 -186.332668,23.2681503 C-192.031904,-17.7321441 -215.678084,-41.9731423 -230.172505,-53.3123691 C-232.906742,-46.9749272 -239.225203,-42.5250275 -246.565038,-42.5250275 C-256.412248,-42.5250275 -264.39701,-50.510261 -264.39701,-60.3602339 C-264.39701,-70.2092304 -256.412248,-78.1944201 -246.565038,-78.1944201 C-239.225235,-78.1946072 -232.906777,-73.7457306 -230.172537,-67.4073152 Z M-170.482011,-6.45755427 C-130.199568,-40.4147199 -67.3567532,-48.0452244 -35.9497102,-49.677171 C-37.7863299,-18.2236605 -45.4481295,44.4809715 -79.3417192,84.7003007 C-79.3417192,84.7003007 -50.9591724,91.0733792 -25.3901246,118.677346 C0.210455013,91.0603992 28.5414884,84.7001837 28.5414884,84.7001837 C-5.35217373,44.4808545 -13.0139531,-18.2237189 -14.664411,-49.6890109 C16.556389,-48.0453998 79.4002021,-40.4148953 119.682592,-6.45770044 C119.682592,-6.45770044 126.044657,-34.8047445 153.593053,-60.3625726 C126.05574,-85.850832 119.682825,-114.260294 119.682825,-114.260294 C79.4003762,-80.3030846 16.556563,-72.6726006 -14.8505032,-71.0406833 C-13.013779,-102.491645 -5.35199965,-165.198203 28.5416625,-205.417559 C28.5416625,-205.417559 0.21060008,-211.77878 -25.3376393,-239.318299 C-50.9600428,-211.790488 -79.3416118,-205.417371 -79.3416118,-205.417371 C-45.4489738,-165.198036 -37.7861935,-102.491481 -36.1357269,-71.0282177 C-67.3577802,-72.6724983 -130.199606,-80.3030028 -170.482022,-114.260209 C-170.482022,-114.260209 -176.844081,-85.9131449 -204.393484,-60.3592984 C-176.847023,-34.8174614 -170.482011,-6.45755427 -170.482011,-6.45755427 Z" fill="#FFFFFF" fill-rule="nonzero" opacity="0.500283062" mask="url(#mask-3)"></path>
                    </g>
                    <g id="path2895" transform="translate(0.000000, 222.551859)">
                        <mask id="mask-6" fill="white">
                            <use xlink:href="#path-5"></use>
                        </mask>
                        <use id="Mask" fill="url(#radialGradient-4)" fill-rule="nonzero" xlink:href="#path-5"></use>
                        <path d="M-165.273779,14.5388429 C-150.753935,3.22010999 -127.066274,-20.9802005 -120.599779,-61.9217568 C-131.221466,-61.9094995 -139.220232,-69.8819818 -139.220232,-79.7140522 C-139.220232,-89.5461081 -131.221466,-97.5185845 -121.356986,-97.5185845 C-111.492503,-97.5185845 -103.493734,-89.5461081 -103.493734,-79.7140522 C-103.493734,-73.9236303 -106.303231,-68.7464561 -110.595368,-65.4951529 C-96.6650189,-53.353441 -55.2748605,-21.5505767 5.24680665,-12.841191 C-3.44365241,-73.1816343 -35.3612977,-114.450563 -47.5460033,-128.337126 C-50.8080578,-124.059083 -56.0022795,-121.258834 -61.8117957,-121.258834 C-71.6763023,-121.258834 -79.6750305,-129.231314 -79.6750305,-139.06337 C-79.6750305,-148.895443 -71.6763023,-156.867922 -61.8117957,-156.867922 C-51.9473153,-156.867922 -43.948561,-148.895443 -43.948561,-139.06337 C-2.88509136,-144.753903 21.3940402,-168.363703 32.7500842,-182.835836 C26.4026803,-185.566854 21.9457973,-191.874607 21.9457973,-199.203167 C21.9457973,-209.035217 29.9435664,-217.007696 39.8090495,-217.007696 C49.7736361,-217.007696 57.7714401,-209.035217 57.7714401,-199.203167 C57.7714401,-191.874607 53.3155016,-185.566854 46.967127,-182.835836 C58.3231972,-168.363703 82.6023113,-144.753903 123.678889,-138.310643 C123.667263,-148.895443 131.665067,-156.867922 141.530544,-156.867922 C151.396022,-156.867922 159.393797,-148.895443 159.393797,-139.06337 C159.393797,-129.231314 151.396022,-121.258834 141.530544,-121.258834 C135.720993,-121.258834 130.526763,-124.059083 127.264729,-128.337126 C115.080994,-114.450563 83.1613345,-73.1816343 74.4311968,-12.841048 C134.992554,-21.5514114 176.382678,-53.3533009 190.31405,-65.4950128 C186.022907,-68.7463131 183.212445,-73.9234873 183.212445,-79.7139151 C183.212445,-89.5459709 191.210161,-97.5184415 201.075639,-97.5184415 C210.941116,-97.5184415 218.938891,-89.5459709 218.938891,-79.7139151 C218.938891,-69.8818417 210.941116,-61.9093594 201.075639,-61.9093594 C206.785906,-20.9800662 230.471585,3.21927533 244.993486,14.538983 C247.730503,8.21244986 254.061061,3.77022377 261.414741,3.77022377 C271.278213,3.77022377 279.277964,11.7416934 279.277964,21.573755 C279.277964,31.4068002 271.278213,39.3782815 261.414741,39.3782815 C254.061061,39.3782815 247.730503,34.9370506 244.993486,28.6095076 C230.471585,39.9282844 206.785906,64.1286152 200.319443,105.070151 C210.941116,105.058478 218.938891,113.031009 218.938891,122.863033 C218.938891,132.695115 210.941116,140.66756 201.075639,140.66756 C191.210161,140.66756 183.212445,132.695115 183.212445,122.863033 C183.212445,117.072594 186.022907,111.895457 190.31405,108.644148 C176.383666,96.5024103 134.993542,64.7015568 74.4718868,55.991135 C83.1613345,116.32878 115.080994,157.601701 127.264729,171.486253 C130.526763,167.208248 135.720993,164.407979 141.530544,164.407979 C151.396022,164.407979 159.393797,172.380452 159.393797,182.212505 C159.393797,192.044529 151.396022,200.017032 141.530544,200.017032 C131.665067,200.017032 123.667263,192.044529 123.667263,182.212505 C82.6023113,187.903018 58.3241854,211.512868 46.967127,225.984983 C53.3145425,228.715006 57.7714401,235.023725 57.7714401,242.352282 C57.7714401,252.184335 49.7736361,260.156808 39.9081588,260.156808 C29.9435664,260.156808 21.9457973,252.184335 21.9457973,242.352282 C21.9457973,235.023725 26.4017009,228.715006 32.7500842,225.984983 C21.3940402,211.512868 -2.88609989,187.903018 -43.9616399,181.457776 C-43.948561,192.044529 -51.9473153,200.017032 -61.8117957,200.017032 C-71.6763023,200.017032 -79.6750305,192.044529 -79.6750305,182.212505 C-79.6750305,172.380452 -71.6763023,164.407979 -61.8117957,164.407979 C-56.0022795,164.407979 -50.8080578,167.208248 -47.5460033,171.486253 C-35.3612977,157.601701 -3.44365241,116.32878 5.28652595,55.991135 C-55.2738898,64.7025199 -96.6640365,96.5024103 -110.595395,108.644148 C-106.303254,111.895457 -103.49376,117.072594 -103.49376,122.863033 C-103.49376,132.695115 -111.492529,140.66756 -121.357009,140.66756 C-131.221495,140.66756 -139.220258,132.695115 -139.220258,122.863033 C-139.220258,113.031009 -131.221495,105.058478 -121.357009,105.058478 C-127.066242,64.1286444 -150.7539,39.9293058 -165.273747,28.609566 C-168.01278,34.9361167 -174.342324,39.378369 -181.695033,39.378369 C-191.559517,39.378369 -199.558286,31.4068586 -199.558286,21.5738134 C-199.558286,11.741743 -191.559517,3.7702763 -181.695033,3.7702763 C-174.342356,3.77008952 -168.012815,8.21132044 -165.273779,14.5388429 Z M-105.478548,75.3838582 C-65.1254452,41.4850499 -2.17239639,33.8676589 29.2897383,32.2385169 C27.4498969,63.6379727 19.7746576,126.234843 -14.1783855,166.385053 C-14.1783855,166.385053 14.2539477,172.747179 39.8678466,200.303707 C65.5133327,172.734222 93.8940621,166.384937 93.8940621,166.384937 C59.9409464,126.234726 52.2657274,63.6379144 50.6123743,32.2266973 C81.8879393,33.8674838 144.841988,41.4848748 185.195038,75.3837123 C185.195038,75.3837123 191.568263,47.0853843 219.164982,21.5714787 C191.579366,-3.87297763 185.195271,-32.2336165 185.195271,-32.2336165 C144.842162,1.66523558 81.8881137,9.28260616 50.4259558,10.911719 C52.2659018,-20.485192 59.9411208,-83.0839858 93.8942365,-123.234222 C93.8942365,-123.234222 65.513478,-129.584511 39.920424,-157.076702 C14.2530757,-129.596199 -14.1782779,-123.234035 -14.1782779,-123.234035 C19.7738118,-83.0838194 27.4500335,-20.4850286 29.1033953,10.9241631 C-2.17342527,9.2827083 -65.125483,1.66531729 -105.47856,-32.2335319 C-105.47856,-32.2335319 -111.851778,-3.93518346 -139.449506,21.5747473 C-111.854725,47.0726892 -105.478548,75.3838582 -105.478548,75.3838582 Z" fill="#FFFFFF" fill-rule="nonzero" opacity="0.500283062" mask="url(#mask-6)"></path>
                    </g>
                    <g id="path2895">
                        <mask id="mask-9" fill="white">
                            <use xlink:href="#path-8"></use>
                        </mask>
                        <use id="Mask" fill="url(#radialGradient-7)" fill-rule="nonzero" xlink:href="#path-8"></use>
                        <path d="M-165.344681,237.010421 C-150.818608,225.682787 -127.120785,201.463444 -120.651516,160.48969 C-131.27776,160.501957 -139.279958,152.523205 -139.279958,142.683403 C-139.279958,132.843615 -131.27776,124.864868 -121.409048,124.864868 C-111.540333,124.864868 -103.538133,132.843615 -103.538133,142.683403 C-103.538133,148.478378 -106.348835,153.659624 -110.642814,156.913484 C-96.7064882,169.064745 -55.2985734,200.89262 5.24905753,209.608855 C-3.44512974,149.220958 -35.3764677,107.919574 -47.5664005,94.0220906 C-50.8298545,98.3034974 -56.0263045,101.105948 -61.838313,101.105948 C-71.7070514,101.105948 -79.7092111,93.1271994 -79.7092111,83.2874113 C-79.7092111,73.4476057 -71.7070514,65.4688566 -61.838313,65.4688566 C-51.9696007,65.4688566 -43.9674149,73.4476057 -43.9674149,83.2874113 C-2.88632907,77.5924025 21.4032183,53.964035 32.764134,39.4805213 C26.4140071,36.7473551 21.9552121,30.4346413 21.9552121,23.1003187 C21.9552121,13.2605365 29.9564122,5.28178733 39.8261276,5.28178733 C49.794989,5.28178733 57.796224,13.2605365 57.796224,23.1003187 C57.796224,30.4346413 53.338374,36.7473551 46.987276,39.4805213 C58.3482178,53.964035 82.6377477,77.5924025 123.731947,84.0407303 C123.720316,73.4476057 131.721551,65.4688566 141.591261,65.4688566 C151.460971,65.4688566 159.462177,73.4476057 159.462177,83.2874113 C159.462177,93.1271994 151.460971,101.105948 141.591261,101.105948 C135.779218,101.105948 130.582759,98.3034974 127.319325,94.0220906 C115.130364,107.919574 83.1970107,149.220958 74.4631278,209.608998 C135.050466,200.891784 176.458346,169.064885 190.395695,156.913624 C186.10271,153.659767 183.291043,148.478521 183.291043,142.68354 C183.291043,132.843752 191.292191,124.865012 201.1619,124.865012 C211.03161,124.865012 219.032816,132.843752 219.032816,142.68354 C219.032816,152.523346 211.03161,160.502098 201.1619,160.502098 C206.874617,201.463579 230.570457,225.681951 245.098589,237.010561 C247.836779,230.679053 254.170053,226.233333 261.526888,226.233333 C271.394592,226.233333 279.397775,234.211072 279.397775,244.050866 C279.397775,253.891644 271.394592,261.869394 261.526888,261.869394 C254.170053,261.869394 247.836779,257.42467 245.098589,251.092151 C230.570457,262.419829 206.874617,286.639192 200.40538,327.612926 C211.03161,327.601243 219.032816,335.580045 219.032816,345.419801 C219.032816,355.259615 211.03161,363.238329 201.1619,363.238329 C191.292191,363.238329 183.291043,355.259615 183.291043,345.419801 C183.291043,339.624807 186.10271,334.4436 190.395695,331.189734 C176.459335,319.038447 135.051455,287.212584 74.5038353,278.495312 C83.1970107,338.880408 115.130364,380.185787 127.319325,394.081259 C130.582759,389.79989 135.779218,386.997418 141.591261,386.997418 C151.460971,386.997418 159.462177,394.976162 159.462177,404.815947 C159.462177,414.655703 151.460971,422.634475 141.591261,422.634475 C131.721551,422.634475 123.720316,414.655703 123.720316,404.815947 C82.6377477,410.510935 58.3492065,434.139352 46.987276,448.622848 C53.3374145,451.355019 57.796224,457.668699 57.796224,465.003019 C57.796224,474.842804 49.794989,482.821547 39.9252794,482.821547 C29.9564122,482.821547 21.9552121,474.842804 21.9552121,465.003019 C21.9552121,457.668699 26.4130272,451.355019 32.764134,448.622848 C21.4032183,434.139352 -2.88733803,410.510935 -43.9804995,404.060624 C-43.9674149,414.655703 -51.9696007,422.634475 -61.838313,422.634475 C-71.7070514,422.634475 -79.7092111,414.655703 -79.7092111,404.815947 C-79.7092111,394.976162 -71.7070514,386.997418 -61.838313,386.997418 C-56.0263045,386.997418 -50.8298545,389.79989 -47.5664005,394.081259 C-35.3764677,380.185787 -3.44512974,338.880408 5.28879388,278.495312 C-55.2976023,287.213548 -96.7055054,319.038447 -110.64284,331.189734 C-106.348858,334.4436 -103.538159,339.624807 -103.538159,345.419801 C-103.538159,355.259615 -111.540359,363.238329 -121.409071,363.238329 C-131.277789,363.238329 -139.279984,355.259615 -139.279984,345.419801 C-139.279984,335.580045 -131.277789,327.601243 -121.409071,327.601243 C-127.120753,286.639221 -150.818573,262.420852 -165.344649,251.09221 C-168.084857,257.423736 -174.417117,261.869482 -181.772981,261.869482 C-191.641696,261.869482 -199.643896,253.891702 -199.643896,244.050924 C-199.643896,234.211121 -191.641696,226.233386 -181.772981,226.233386 C-174.417149,226.233199 -168.084892,230.677922 -165.344681,237.010421 Z M-105.523798,297.903287 C-65.1533841,263.977819 -2.17332835,256.354438 29.3023036,254.724014 C27.4616729,286.148164 19.7831409,348.794262 -14.184468,388.976048 C-14.184468,388.976048 14.2600626,395.343177 39.8849499,422.921376 C65.5414379,395.330209 93.9343427,388.975931 93.9343427,388.975931 C59.9666611,348.794145 52.2881494,286.148105 50.6340871,254.712186 C81.9230693,256.354262 144.904125,263.977644 185.274487,297.903141 C185.274487,297.903141 191.650446,269.582558 219.259004,244.048587 C191.661553,218.584121 185.27472,190.201178 185.27472,190.201178 C144.9043,224.12669 81.9232437,231.750051 50.4475885,233.380445 C52.2883239,201.958842 59.9668356,139.310819 93.9345171,99.1290074 C93.9345171,99.1290074 65.5415833,92.7737244 39.9375498,65.2599125 C14.2591903,92.762027 -14.1843604,99.1291943 -14.1843604,99.1291943 C19.7822948,139.310985 27.4618096,201.959006 29.1158807,233.392899 C-2.17435767,231.750153 -65.1534219,224.126771 -105.52381,190.201263 C-105.52381,190.201263 -111.899763,218.521866 -139.50933,244.051859 C-111.902711,269.569853 -105.523798,297.903287 -105.523798,297.903287 Z" fill="#FFFFFF" fill-rule="nonzero" opacity="0.500283062" mask="url(#mask-9)"></path>
                    </g>
                    <g id="path2895" transform="translate(65.350299, 0.000000)">
                        <mask id="mask-12" fill="white">
                            <use xlink:href="#path-11"></use>
                        </mask>
                        <use id="Mask" fill="url(#radialGradient-10)" fill-rule="nonzero" xlink:href="#path-11"></use>
                        <path d="M-231.378737,237.219774 C-216.808361,225.882134 -193.038263,201.641399 -186.549263,160.631452 C-197.207916,160.64373 -205.234519,152.65793 -205.234519,142.809436 C-205.234519,132.960956 -197.207916,124.975163 -187.309105,124.975163 C-177.410292,124.975163 -169.383686,132.960956 -169.383686,142.809436 C-169.383686,148.60953 -172.20296,153.795353 -176.510035,157.052087 C-162.531206,169.214081 -120.997001,201.07007 -60.2647072,209.794004 C-68.9854108,149.352766 -101.014136,108.014901 -113.241246,94.1051411 C-116.514653,98.3903296 -121.726952,101.195256 -127.556686,101.195256 C-137.455523,101.195256 -145.482089,93.2094593 -145.482089,83.3609797 C-145.482089,73.5124826 -137.455523,65.5266858 -127.556686,65.5266858 C-117.657876,65.5266858 -109.631284,73.5124826 -109.631284,83.3609797 C-68.4249058,77.6609405 -44.0612782,54.0117019 -32.665713,39.5153948 C-39.035207,36.7798143 -43.5076009,30.4615245 -43.5076009,23.1207234 C-43.5076009,13.2722496 -35.481998,5.28645277 -25.5821811,5.28645277 C-15.5829158,5.28645277 -7.55727798,13.2722496 -7.55727798,23.1207234 C-7.55727798,30.4615245 -12.0287239,36.7798143 -18.3991921,39.5153948 C-7.00360067,54.0117019 17.3600095,77.6609405 58.5795415,84.1149642 C58.5678753,73.5124826 66.5935131,65.5266858 76.4933242,65.5266858 C86.3931352,65.5266858 94.4187439,73.5124826 94.4187439,83.3609797 C94.4187439,93.2094593 86.3931352,101.195256 76.4933242,101.195256 C70.6635547,101.195256 65.4512474,98.3903296 62.1778607,94.1051411 C49.9517241,108.014901 17.9209781,149.352766 9.1604579,209.794147 C69.9325805,201.069234 111.46675,169.214221 125.446606,157.052227 C121.140528,153.795496 118.320285,148.609674 118.320285,142.809573 C118.320285,132.961094 126.345836,124.975306 136.245647,124.975306 C146.145458,124.975306 154.171067,132.961094 154.171067,142.809573 C154.171067,152.658071 146.145458,160.64387 136.245647,160.64387 C141.975787,201.641533 165.743897,225.881298 180.316337,237.219915 C183.062879,230.882813 189.415468,226.433167 196.794741,226.433167 C206.69254,226.433167 214.720132,234.417952 214.720132,244.266438 C214.720132,254.115908 206.69254,262.100705 196.794741,262.100705 C189.415468,262.100705 183.062879,257.652056 180.316337,251.313943 C165.743897,262.651627 141.975787,286.892383 135.48682,327.902309 C146.145458,327.890616 154.171067,335.876465 154.171067,345.724913 C154.171067,355.573418 146.145458,363.55918 136.245647,363.55918 C126.345836,363.55918 118.320285,355.573418 118.320285,345.724913 C118.320285,339.924801 121.140528,334.739016 125.446606,331.482276 C111.467741,319.320256 69.9335721,287.466281 9.20128956,278.741309 C17.9209781,339.179744 49.9517241,380.521608 62.1778607,394.429354 C65.4512474,390.144203 70.6635547,387.339256 76.4933242,387.339256 C86.3931352,387.339256 94.4187439,395.325047 94.4187439,405.173524 C94.4187439,415.021971 86.3931352,423.007792 76.4933242,423.007792 C66.5935131,423.007792 58.5678753,415.021971 58.5678753,405.173524 C17.3600095,410.873543 -7.00260904,434.522831 -18.3991921,449.01912 C-12.0296864,451.753704 -7.55727798,458.072962 -7.55727798,465.41376 C-7.55727798,475.262236 -15.5829158,483.248027 -25.4827269,483.248027 C-35.481998,483.248027 -43.5076009,475.262236 -43.5076009,465.41376 C-43.5076009,458.072962 -39.0361899,451.753704 -32.665713,449.01912 C-44.0612782,434.522831 -68.4259179,410.873543 -109.644409,404.417534 C-109.631284,415.021971 -117.657876,423.007792 -127.556686,423.007792 C-137.455523,423.007792 -145.482089,415.021971 -145.482089,405.173524 C-145.482089,395.325047 -137.455523,387.339256 -127.556686,387.339256 C-121.726952,387.339256 -116.514653,390.144203 -113.241246,394.429354 C-101.014136,380.521608 -68.9854108,339.179744 -60.2248497,278.741309 C-120.996027,287.467246 -162.53022,319.320256 -176.510062,331.482276 C-172.202983,334.739016 -169.383712,339.924801 -169.383712,345.724913 C-169.383712,355.573418 -177.410318,363.55918 -187.309129,363.55918 C-197.207945,363.55918 -205.234546,355.573418 -205.234546,345.724913 C-205.234546,335.876465 -197.207945,327.890616 -187.309129,327.890616 C-193.038231,286.892412 -216.808326,262.65265 -231.378705,251.314001 C-234.127271,257.65112 -240.478842,262.100793 -247.857141,262.100793 C-257.755955,262.100793 -265.782561,254.115967 -265.782561,244.266496 C-265.782561,234.418002 -257.755955,226.433219 -247.857141,226.433219 C-240.478874,226.433032 -234.127306,230.881682 -231.378737,237.219774 Z M-171.375407,298.166427 C-130.881868,264.210993 -67.7097305,256.580878 -36.1381016,254.949014 C-37.9843459,286.400921 -45.6862966,349.102355 -79.7575028,389.319633 C-79.7575028,389.319633 -51.2262196,395.692387 -25.5231794,423.294945 C0.211557884,395.679407 28.6910577,389.319516 28.6910577,389.319516 C-5.38022135,349.102238 -13.0821516,286.400862 -14.7412586,254.937175 C16.6431513,256.580702 79.8162922,264.210818 120.309779,298.166281 C120.309779,298.166281 126.705184,269.820682 154.397945,244.264157 C126.716325,218.777198 120.310012,190.369185 120.310012,190.369185 C79.8164672,224.324662 16.6433263,231.954757 -14.928326,233.586591 C-13.0819766,202.137234 -5.38004635,139.433873 28.6912327,99.2165688 C28.6912327,99.2165688 0.211703712,92.8556721 -25.4704191,65.3175571 C-51.2270946,92.8439644 -79.7573948,99.2167559 -79.7573948,99.2167559 C-45.6871453,139.43404 -37.9842088,202.137398 -36.3250931,233.599056 C-67.710763,231.95486 -130.881906,224.324744 -171.375419,190.369269 C-171.375419,190.369269 -177.770818,218.714888 -205.464591,244.267432 C-177.773775,269.807966 -171.375407,298.166427 -171.375407,298.166427 Z" fill="#FFFFFF" fill-rule="nonzero" opacity="0.500283062" mask="url(#mask-12)"></path>
                    </g>
                </g>
            </g>
        </g>
    </g>
</svg>
