<?xml version="1.0" encoding="UTF-8"?>
<svg width="557px" height="112px" viewBox="0 0 557 112" version="1.1" xmlns="http://www.w3.org/2000/svg" xmlns:xlink="http://www.w3.org/1999/xlink">
    <!-- Generator: Sketch 48.2 (47327) - http://www.bohemiancoding.com/sketch -->
    <title>Group 3</title>
    <desc>Created with Sketch.</desc>
    <defs>
        <radialGradient cx="-54.1520536%" cy="-174.153191%" fx="-54.1520536%" fy="-174.153191%" r="402.145714%" gradientTransform="translate(-0.541521,-1.741532),scale(1.000000,0.793815),translate(0.541521,1.741532)" id="radialGradient-1">
            <stop stop-color="#FFCD4D" offset="0%"></stop>
            <stop stop-color="#F6C338" offset="100%"></stop>
        </radialGradient>
        <path d="M25.5561631,0.101545901 L0.259830359,41.405963 L13.0359171,41.405963 C16.059329,41.405963 19.8159937,39.3202392 21.3758544,36.7599857 L32.137121,19.1588234 C33.4074622,16.5759178 33.3637388,12.8214989 31.9125956,10.4407186 L25.5561631,0.101545901 Z" id="path-2"></path>
        <radialGradient cx="-6.59523187%" cy="-88.3511738%" fx="-6.59523187%" fy="-88.3511738%" r="326.48889%" gradientTransform="translate(-0.065952,-0.883512),scale(1.000000,0.671743),translate(0.065952,0.883512)" id="radialGradient-4">
            <stop stop-color="#0DA960" offset="0%"></stop>
            <stop stop-color="#03914B" offset="100%"></stop>
        </radialGradient>
        <path d="M28.9261298,0.052093172 C30.4853997,2.60363442 30.4853997,6.7808902 28.9261298,9.34172457 L0.515393294,56.0355683 C-0.581236083,58.3431652 0.559116663,60.1727475 3.37809229,60.1727475 L15.1928558,60.1727475 L40.4891885,18.8683304 L28.9261298,0.052093172 Z" id="path-5"></path>
        <radialGradient cx="-4.42220406%" cy="-2.56349149%" fx="-4.42220406%" fy="-2.56349149%" r="226.256254%" gradientTransform="translate(-0.044222,-0.025635),scale(1.000000,0.656898),translate(0.044222,0.025635)" id="radialGradient-7">
            <stop stop-color="#4387FD" offset="0%"></stop>
            <stop stop-color="#4683EA" offset="100%"></stop>
        </radialGradient>
        <path d="M3.37809229,0.189790601 C0.342863241,0.189790601 -0.862483703,2.28306505 0.697377048,4.83344466 L46.845621,80.184355 C48.2967642,82.5651352 48.3404876,86.3189734 47.0701464,88.9024597 L58.2899176,70.5462317 L15.199946,0.189790601 L3.37809229,0.189790601 Z" id="path-8"></path>
        <radialGradient cx="-35.1606313%" cy="-3.23311374%" fx="-35.1606313%" fy="-3.23311374%" r="261.045138%" gradientTransform="translate(-0.351606,-0.032331),scale(1.000000,0.717851),translate(0.351606,0.032331)" id="radialGradient-10">
            <stop stop-color="#E04A3F" offset="0%"></stop>
            <stop stop-color="#CD372D" offset="100%"></stop>
        </radialGradient>
        <path d="M49.601062,51.028945 L21.3758544,4.83344466 C19.8154028,2.28248423 16.0587382,0.189790601 13.0359171,0.189790601 L0.266920635,0.189790601 L43.3568922,70.5468126 L49.6016529,60.3191572 C51.1632862,57.7577421 51.1632862,53.5799055 49.601062,51.028945 Z" id="path-11"></path>
    </defs>
    <g id="Page-1" stroke="none" stroke-width="1" fill="none" fill-rule="evenodd">
        <g id="Group-3" transform="translate(-87.000000, -8.000000)">
            <g id="Group-2" transform="translate(171.000000, 0.000000)" fill="#757575" font-family="ProductSans-Bold, Product Sans" font-weight="bold">
                <text id="GDG-Toulouse" font-size="72">
                    <tspan x="0" y="69">GDG Toulouse</tspan>
                </text>
                <text id="https://gdgtoulouse." font-size="24">
                    <tspan x="2" y="105">https://gdgtoulouse.fr</tspan>
                </text>
            </g>
            <g id="Group-6" transform="translate(32.000000, 3.000000)">
                <g id="logo" transform="translate(0.000000, 15.000000)"></g>
                <g id="Group-4" transform="translate(28.000000, 0.000000)">
                    <g id="Group-5" transform="translate(27.893764, 5.041667)">
                        <g id="path2895" transform="translate(14.933025, 69.743056)">
                            <mask id="mask-3" fill="white">
                                <use xlink:href="#path-2"></use>
                            </mask>
                            <use id="Mask" fill="url(#radialGradient-1)" fill-rule="nonzero" xlink:href="#path-2"></use>
                            <path d="M-53.338164,-15.4320006 C-49.9641465,-18.0277336 -44.4597773,-23.5776078 -42.9571395,-32.9667638 C-45.4253312,-32.9639528 -47.2840272,-34.7922878 -47.2840272,-37.0470834 C-47.2840272,-39.3018757 -45.4253312,-41.1302093 -43.1330938,-41.1302093 C-40.8408557,-41.1302093 -38.982159,-39.3018757 -38.982159,-37.0470834 C-38.982159,-35.7191619 -39.6350098,-34.5318769 -40.6323861,-33.7862532 C-37.3953511,-31.0017859 -27.7774021,-23.7084126 -13.71381,-21.7110831 C-15.7332367,-35.5489994 -23.1500308,-45.0132319 -25.9814256,-48.1978471 C-26.7394385,-47.2167606 -27.9464346,-46.5745776 -29.2964084,-46.5745776 C-31.5886519,-46.5745776 -33.4473391,-48.4029119 -33.4473391,-50.6577042 C-33.4473391,-52.9125005 -31.5886519,-54.7408348 -29.2964084,-54.7408348 C-27.004171,-54.7408348 -25.1454777,-52.9125005 -25.1454777,-50.6577042 C-15.6034423,-51.9627182 -9.96163136,-57.3771703 -7.32279508,-60.6960746 C-8.79775939,-61.322381 -9.83341799,-62.7689425 -9.83341799,-64.4496061 C-9.83341799,-66.7043971 -7.97495362,-68.5327314 -5.68248321,-68.5327314 C-3.36698384,-68.5327314 -1.50851136,-66.7043971 -1.50851136,-64.4496061 C-1.50851136,-62.7689425 -2.54395046,-61.322381 -4.01914035,-60.6960746 C-1.38029799,-57.3771703 4.2615089,-51.9627182 13.8065902,-50.4850807 C13.8038887,-52.9125005 15.6623612,-54.7408348 17.9548302,-54.7408348 C20.2472993,-54.7408348 22.105765,-52.9125005 22.105765,-50.6577042 C22.105765,-48.4029119 20.2472993,-46.5745776 17.9548302,-46.5745776 C16.6048483,-46.5745776 15.3978502,-47.2167606 14.639842,-48.1978471 C11.8086729,-45.0132319 4.3914107,-35.5489994 2.36276375,-21.7110503 C16.4355788,-23.7086041 26.0535197,-31.0017538 29.2907924,-33.7862211 C28.2936471,-34.5318441 27.6405721,-35.7191291 27.6405721,-37.047052 C27.6405721,-39.3018442 29.4990243,-41.1301765 31.7914934,-41.1301765 C34.0839624,-41.1301765 35.9424281,-39.3018442 35.9424281,-37.047052 C35.9424281,-34.7922557 34.0839624,-32.9639207 31.7914934,-32.9639207 C33.1184045,-23.5775771 38.6223131,-18.027925 41.9968087,-15.4319685 C42.632817,-16.8828368 44.1038668,-17.9015756 45.8126625,-17.9015756 C48.1046655,-17.9015756 49.9635905,-16.0734729 49.9635905,-13.8186793 C49.9635905,-11.5636601 48.1046655,-9.73555469 45.8126625,-9.73555469 C44.1038668,-9.73555469 42.632817,-10.7540653 41.9968087,-12.2051652 C38.6223131,-9.60942215 33.1184045,-4.05954323 31.6157741,5.32960803 C34.0839624,5.32693091 35.9424281,7.15527726 35.9424281,9.41006218 C35.9424281,11.6648605 34.0839624,13.4931868 31.7914934,13.4931868 C29.4990243,13.4931868 27.6405721,11.6648605 27.6405721,9.41006218 C27.6405721,8.08213664 28.2936471,6.89486033 29.2907924,6.14923533 C26.0537493,3.36476198 16.4358085,-3.92815014 2.37221902,-5.9257173 C4.3914107,7.91155719 11.8086729,17.3767052 14.639842,20.5608593 C15.3978502,19.5797816 16.6048483,18.9375938 17.9548302,18.9375938 C20.2472993,18.9375938 22.105765,20.7659268 22.105765,23.0207184 C22.105765,25.2755033 20.2472993,27.103843 17.9548302,27.103843 C15.6623612,27.103843 13.8038887,25.2755033 13.8038887,23.0207184 C4.2615089,24.3257278 -1.38006836,29.7401912 -4.01914035,33.0590915 C-2.54417334,33.6851697 -1.50851136,35.1319527 -1.50851136,36.8126157 C-1.50851136,39.0674073 -3.36698384,40.8957403 -5.65945289,40.8957403 C-7.97495362,40.8957403 -9.83341799,39.0674073 -9.83341799,36.8126157 C-9.83341799,35.1319527 -8.79798699,33.6851697 -7.32279508,33.0590915 C-9.96163136,29.7401912 -15.6036767,24.3257278 -25.1485169,22.8476358 C-25.1454777,25.2755033 -27.004171,27.103843 -29.2964084,27.103843 C-31.5886519,27.103843 -33.4473391,25.2755033 -33.4473391,23.0207184 C-33.4473391,20.7659268 -31.5886519,18.9375938 -29.2964084,18.9375938 C-27.9464346,18.9375938 -26.7394385,19.5797816 -25.9814256,20.5608593 C-23.1500308,17.3767052 -15.7332367,7.91155719 -13.7045803,-5.9257173 C-27.7771766,-3.92792928 -37.3951228,3.36476198 -40.6323922,6.14923533 C-39.6350152,6.89486033 -38.9821651,8.08213664 -38.9821651,9.41006218 C-38.9821651,11.6648605 -40.8408618,13.4931868 -43.1330992,13.4931868 C-45.425338,13.4931868 -47.2840333,11.6648605 -47.2840333,9.41006218 C-47.2840333,7.15527726 -45.425338,5.32693091 -43.1330992,5.32693091 C-44.4597699,-4.05953654 -49.9641384,-9.6091879 -53.3381565,-12.2051518 C-53.9746335,-10.7542795 -55.4454476,-9.73553462 -57.1540177,-9.73553462 C-59.4462558,-9.73553462 -61.3049525,-11.5636467 -61.3049525,-13.8186659 C-61.3049525,-16.0734615 -59.4462558,-17.9015636 -57.1540177,-17.9015636 C-55.4454551,-17.9016064 -53.9746416,-16.8830958 -53.338164,-15.4320006 Z M-39.443376,-1.47837043 C-30.0664106,-9.25240801 -15.4378313,-10.9993097 -8.12688551,-11.3729219 C-8.55441469,-4.17206262 -10.3379319,10.1833218 -18.2276972,19.3909977 C-18.2276972,19.3909977 -11.620795,20.8500285 -5.66882036,27.1695864 C0.290494268,20.8470569 6.88540518,19.3909709 6.88540518,19.3909709 C-1.00437699,10.183295 -2.7878895,-4.172076 -3.17208385,-11.3756325 C4.09550825,-10.9993498 18.7243198,-9.25244816 28.101273,-1.47840389 C28.101273,-1.47840389 29.5822374,-7.96807938 35.9949656,-13.8192013 C29.5848173,-19.6543964 28.1013271,-26.1583617 28.1013271,-26.1583617 C18.7243603,-18.3843141 4.09554877,-16.6374171 -3.21540246,-16.2638115 C-2.78784898,-23.4640872 -1.00433647,-37.8199126 6.88544571,-47.0275946 C6.88544571,-47.0275946 0.290528037,-48.4839108 -5.65660281,-54.7887144 C-11.6209976,-48.4865913 -18.2276722,-47.0275518 -18.2276722,-47.0275518 C-10.3381285,-37.8198745 -8.55438294,-23.4640497 -8.17018656,-16.2609577 C-15.4380704,-16.6373937 -30.0664194,-18.3842953 -39.4433787,-26.1583423 C-39.4433787,-26.1583423 -40.9243417,-19.6686621 -47.3373043,-13.8184517 C-40.9250265,-7.97099075 -39.443376,-1.47837043 -39.443376,-1.47837043 Z" fill="#FFFFFF" fill-rule="nonzero" opacity="0.500283062" mask="url(#mask-3)"></path>
                        </g>
                        <g id="path2895" transform="translate(0.000000, 50.976852)">
                            <mask id="mask-6" fill="white">
                                <use xlink:href="#path-5"></use>
                            </mask>
                            <use id="Mask" fill="url(#radialGradient-4)" fill-rule="nonzero" xlink:href="#path-5"></use>
                            <path d="M-38.4051386,3.33420308 C-35.0311211,0.738470092 -29.5267519,-4.81140414 -28.0241141,-14.2005601 C-30.4923058,-14.1977491 -32.3510018,-16.0260841 -32.3510018,-18.2808797 C-32.3510018,-20.535672 -30.4923058,-22.3640056 -28.2000684,-22.3640056 C-25.9078303,-22.3640056 -24.0491336,-20.535672 -24.0491336,-18.2808797 C-24.0491336,-16.9529582 -24.7019844,-15.7656732 -25.6993607,-15.0200495 C-22.4623257,-12.2355822 -12.8443767,-4.94220893 1.2192154,-2.94487937 C-0.800211318,-16.7827957 -8.21700544,-26.2470281 -11.0484002,-29.4316434 C-11.8064131,-28.4505569 -13.0134092,-27.8083739 -14.363383,-27.8083739 C-16.6556265,-27.8083739 -18.5143137,-29.6367082 -18.5143137,-31.8915005 C-18.5143137,-34.1462968 -16.6556265,-35.9746311 -14.363383,-35.9746311 C-12.0711456,-35.9746311 -10.2124523,-34.1462968 -10.2124523,-31.8915005 C-0.670416895,-33.1965145 4.97139405,-38.6109666 7.61023032,-41.9298709 C6.13526602,-42.5561773 5.09960741,-44.0027388 5.09960741,-45.6834024 C5.09960741,-47.9381934 6.95807179,-49.7665277 9.25054219,-49.7665277 C11.5660416,-49.7665277 13.424514,-47.9381934 13.424514,-45.6834024 C13.424514,-44.0027388 12.3890749,-42.5561773 10.9138851,-41.9298709 C13.5527274,-38.6109666 19.1945343,-33.1965145 28.7396156,-31.718877 C28.7369141,-34.1462968 30.5953866,-35.9746311 32.8878556,-35.9746311 C35.1803247,-35.9746311 37.0387904,-34.1462968 37.0387904,-31.8915005 C37.0387904,-29.6367082 35.1803247,-27.8083739 32.8878556,-27.8083739 C31.5378737,-27.8083739 30.3308756,-28.4505569 29.5728674,-29.4316434 C26.7416983,-26.2470281 19.3244361,-16.7827957 17.2957892,-2.94484658 C31.3686042,-4.94240035 40.9865451,-12.2355501 44.2238178,-15.0200174 C43.2266725,-15.7656404 42.5735975,-16.9529254 42.5735975,-18.2808483 C42.5735975,-20.5356405 44.4320497,-22.3639728 46.7245188,-22.3639728 C49.0169878,-22.3639728 50.8754536,-20.5356405 50.8754536,-18.2808483 C50.8754536,-16.026052 49.0169878,-14.197717 46.7245188,-14.197717 C48.0514299,-4.81137335 53.5553385,0.738278678 56.9298341,3.33423521 C57.5658424,1.88336691 59.0368922,0.864628071 60.7456879,0.864628071 C63.0376909,0.864628071 64.8966159,2.6927308 64.8966159,4.94752443 C64.8966159,7.2025436 63.0376909,9.03064901 60.7456879,9.03064901 C59.0368922,9.03064901 57.5658424,8.0121384 56.9298341,6.56103853 C53.5553385,9.15678156 48.0514299,14.7066605 46.5487995,24.0958117 C49.0169878,24.0931346 50.8754536,25.921481 50.8754536,28.1762659 C50.8754536,30.4310642 49.0169878,32.2593905 46.7245188,32.2593905 C44.4320497,32.2593905 42.5735975,30.4310642 42.5735975,28.1762659 C42.5735975,26.8483403 43.2266725,25.661064 44.2238178,24.915439 C40.9867747,22.1309657 31.3688339,14.8380536 17.3052444,12.8404864 C19.3244361,26.6777609 26.7416983,36.1429089 29.5728674,39.327063 C30.3308756,38.3459853 31.5378737,37.7037975 32.8878556,37.7037975 C35.1803247,37.7037975 37.0387904,39.5321305 37.0387904,41.7869221 C37.0387904,44.041707 35.1803247,45.8700467 32.8878556,45.8700467 C30.5953866,45.8700467 28.7369141,44.041707 28.7369141,41.7869221 C19.1945343,43.0919315 13.552957,48.5063949 10.9138851,51.8252952 C12.3888521,52.4513734 13.424514,53.8981564 13.424514,55.5788194 C13.424514,57.833611 11.5660416,59.661944 9.27357251,59.661944 C6.95807179,59.661944 5.09960741,57.833611 5.09960741,55.5788194 C5.09960741,53.8981564 6.13503841,52.4513734 7.61023032,51.8252952 C4.97139405,48.5063949 -0.670651251,43.0919315 -10.2154915,41.6138395 C-10.2124523,44.041707 -12.0711456,45.8700467 -14.363383,45.8700467 C-16.6556265,45.8700467 -18.5143137,44.041707 -18.5143137,41.7869221 C-18.5143137,39.5321305 -16.6556265,37.7037975 -14.363383,37.7037975 C-13.0134092,37.7037975 -11.8064131,38.3459853 -11.0484002,39.327063 C-8.21700544,36.1429089 -0.800211318,26.6777609 1.22844509,12.8404864 C-12.8441512,14.8382744 -22.4620974,22.1309657 -25.6993668,24.915439 C-24.7019898,25.661064 -24.0491397,26.8483403 -24.0491397,28.1762659 C-24.0491397,30.4310642 -25.9078364,32.2593905 -28.2000738,32.2593905 C-30.4923126,32.2593905 -32.3510079,30.4310642 -32.3510079,28.1762659 C-32.3510079,25.921481 -30.4923126,24.0931346 -28.2000738,24.0931346 C-29.5267445,14.7066672 -35.031113,9.15701581 -38.4051311,6.56105191 C-39.0416081,8.01192423 -40.5124222,9.03066909 -42.2209923,9.03066909 C-44.5132304,9.03066909 -46.3719271,7.20255699 -46.3719271,4.94753781 C-46.3719271,2.69274218 -44.5132304,0.864640118 -42.2209923,0.864640118 C-40.5124297,0.864597285 -39.0416162,1.8831079 -38.4051386,3.33420308 Z M-24.5103506,17.2878333 C-15.1333852,9.5137957 -0.504805936,7.76689405 6.80613989,7.39328177 C6.37861072,14.5941411 4.59509349,28.9495255 -3.29467181,38.1572014 C-3.29467181,38.1572014 3.31223041,39.6162322 9.26420505,45.9357901 C15.2235197,39.6132606 21.8184306,38.1571746 21.8184306,38.1571746 C13.9286484,28.9494987 12.1451359,14.5941277 11.7609416,7.39057118 C19.0285337,7.7668539 33.6573452,9.51375554 43.0342984,17.2877998 C43.0342984,17.2877998 44.5152628,10.7981243 50.927991,4.94700239 C44.5178427,-0.888192685 43.0343525,-7.39215797 43.0343525,-7.39215797 C33.6573857,0.381889647 19.0285742,2.1287866 11.7176229,2.5023922 C12.1451764,-4.69788351 13.9286889,-19.0537089 21.8184711,-28.2613909 C21.8184711,-28.2613909 15.2235534,-29.7177071 9.2764226,-36.0225107 C3.3120278,-29.7203876 -3.29464682,-28.2613481 -3.29464682,-28.2613481 C4.59489695,-19.0536708 6.37864246,-4.69784603 6.76283884,2.50524601 C-0.50504502,2.12881003 -15.1333939,0.381908387 -24.5103533,-7.39213856 C-24.5103533,-7.39213856 -25.9913163,-0.902458393 -32.4042789,4.94775198 C-25.9920011,10.795213 -24.5103506,17.2878333 -24.5103506,17.2878333 Z" fill="#FFFFFF" fill-rule="nonzero" opacity="0.500283062" mask="url(#mask-6)"></path>
                        </g>
                        <g id="path2895">
                            <mask id="mask-9" fill="white">
                                <use xlink:href="#path-8"></use>
                            </mask>
                            <use id="Mask" fill="url(#radialGradient-7)" fill-rule="nonzero" xlink:href="#path-8"></use>
                            <path d="M-38.4051386,54.3110549 C-35.0311211,51.7153219 -29.5267519,46.1654477 -28.0241141,36.7762918 C-30.4923058,36.7791027 -32.3510018,34.9507678 -32.3510018,32.6959721 C-32.3510018,30.4411799 -30.4923058,28.6128462 -28.2000684,28.6128462 C-25.9078303,28.6128462 -24.0491336,30.4411799 -24.0491336,32.6959721 C-24.0491336,34.0238937 -24.7019844,35.2111787 -25.6993607,35.9568023 C-22.4623257,38.7412697 -12.8443767,46.0346429 1.2192154,48.0319725 C-0.800211318,34.1940562 -8.21700544,24.7298237 -11.0484002,21.5452085 C-11.8064131,22.5262949 -13.0134092,23.168478 -14.363383,23.168478 C-16.6556265,23.168478 -18.5143137,21.3401437 -18.5143137,19.0853514 C-18.5143137,16.8305551 -16.6556265,15.0022208 -14.363383,15.0022208 C-12.0711456,15.0022208 -10.2124523,16.8305551 -10.2124523,19.0853514 C-0.670416895,17.7803373 4.97139405,12.3658853 7.61023032,9.04698095 C6.13526602,8.42067456 5.09960741,6.97411307 5.09960741,5.29344942 C5.09960741,3.03865848 6.95807179,1.21032417 9.25054219,1.21032417 C11.5660416,1.21032417 13.424514,3.03865848 13.424514,5.29344942 C13.424514,6.97411307 12.3890749,8.42067456 10.9138851,9.04698095 C13.5527274,12.3658853 19.1945343,17.7803373 28.7396156,19.2579748 C28.7369141,16.8305551 30.5953866,15.0022208 32.8878556,15.0022208 C35.1803247,15.0022208 37.0387904,16.8305551 37.0387904,19.0853514 C37.0387904,21.3401437 35.1803247,23.168478 32.8878556,23.168478 C31.5378737,23.168478 30.3308756,22.5262949 29.5728674,21.5452085 C26.7416983,24.7298237 19.3244361,34.1940562 17.2957892,48.0320053 C31.3686042,46.0344515 40.9865451,38.7413018 44.2238178,35.9568345 C43.2266725,35.2112115 42.5735975,34.0239265 42.5735975,32.6960036 C42.5735975,30.4412113 44.4320497,28.612879 46.7245188,28.612879 C49.0169878,28.612879 50.8754536,30.4412113 50.8754536,32.6960036 C50.8754536,34.9507999 49.0169878,36.7791349 46.7245188,36.7791349 C48.0514299,46.1654785 53.5553385,51.7151305 56.9298341,54.3110871 C57.5658424,52.8602188 59.0368922,51.8414799 60.7456879,51.8414799 C63.0376909,51.8414799 64.8966159,53.6695827 64.8966159,55.9243763 C64.8966159,58.1793955 63.0376909,60.0075009 60.7456879,60.0075009 C59.0368922,60.0075009 57.5658424,58.9889902 56.9298341,57.5378904 C53.5553385,60.1336334 48.0514299,65.6835123 46.5487995,75.0726636 C49.0169878,75.0699865 50.8754536,76.8983328 50.8754536,79.1531177 C50.8754536,81.407916 49.0169878,83.2362423 46.7245188,83.2362423 C44.4320497,83.2362423 42.5735975,81.407916 42.5735975,79.1531177 C42.5735975,77.8251922 43.2266725,76.6379159 44.2238178,75.8922909 C40.9867747,73.1078175 31.3688339,65.8149054 17.3052444,63.8173383 C19.3244361,77.6546127 26.7416983,87.1197608 29.5728674,90.3039149 C30.3308756,89.3228371 31.5378737,88.6806494 32.8878556,88.6806494 C35.1803247,88.6806494 37.0387904,90.5089823 37.0387904,92.7637739 C37.0387904,95.0185589 35.1803247,96.8468985 32.8878556,96.8468985 C30.5953866,96.8468985 28.7369141,95.0185589 28.7369141,92.7637739 C19.1945343,94.0687833 13.552957,99.4832468 10.9138851,102.802147 C12.3888521,103.428225 13.424514,104.875008 13.424514,106.555671 C13.424514,108.810463 11.5660416,110.638796 9.27357251,110.638796 C6.95807179,110.638796 5.09960741,108.810463 5.09960741,106.555671 C5.09960741,104.875008 6.13503841,103.428225 7.61023032,102.802147 C4.97139405,99.4832468 -0.670651251,94.0687833 -10.2154915,92.5906914 C-10.2124523,95.0185589 -12.0711456,96.8468985 -14.363383,96.8468985 C-16.6556265,96.8468985 -18.5143137,95.0185589 -18.5143137,92.7637739 C-18.5143137,90.5089823 -16.6556265,88.6806494 -14.363383,88.6806494 C-13.0134092,88.6806494 -11.8064131,89.3228371 -11.0484002,90.3039149 C-8.21700544,87.1197608 -0.800211318,77.6546127 1.22844509,63.8173383 C-12.8441512,65.8151263 -22.4620974,73.1078175 -25.6993668,75.8922909 C-24.7019898,76.6379159 -24.0491397,77.8251922 -24.0491397,79.1531177 C-24.0491397,81.407916 -25.9078364,83.2362423 -28.2000738,83.2362423 C-30.4923126,83.2362423 -32.3510079,81.407916 -32.3510079,79.1531177 C-32.3510079,76.8983328 -30.4923126,75.0699865 -28.2000738,75.0699865 C-29.5267445,65.683519 -35.031113,60.1338677 -38.4051311,57.5379038 C-39.0416081,58.9887761 -40.5124222,60.0075209 -42.2209923,60.0075209 C-44.5132304,60.0075209 -46.3719271,58.1794088 -46.3719271,55.9243897 C-46.3719271,53.669594 -44.5132304,51.841492 -42.2209923,51.841492 C-40.5124297,51.8414491 -39.0416162,52.8599597 -38.4051386,54.3110549 Z M-24.5103506,68.2646851 C-15.1333852,60.4906475 -0.504805936,58.7437459 6.80613989,58.3701336 C6.37861072,65.5709929 4.59509349,79.9263773 -3.29467181,89.1340532 C-3.29467181,89.1340532 3.31223041,90.5930841 9.26420505,96.9126419 C15.2235197,90.5901125 21.8184306,89.1340265 21.8184306,89.1340265 C13.9286484,79.9263505 12.1451359,65.5709796 11.7609416,58.367423 C19.0285337,58.7437057 33.6573452,60.4906074 43.0342984,68.2646517 C43.0342984,68.2646517 44.5152628,61.7749762 50.927991,55.9238542 C44.5178427,50.0886592 43.0343525,43.5846939 43.0343525,43.5846939 C33.6573857,51.3587415 19.0285742,53.1056385 11.7176229,53.4792441 C12.1451764,46.2789683 13.9286889,31.9231429 21.8184711,22.715461 C21.8184711,22.715461 15.2235534,21.2591447 9.2764226,14.9543412 C3.3120278,21.2564643 -3.29464682,22.7155038 -3.29464682,22.7155038 C4.59489695,31.9231811 6.37864246,46.2790058 6.76283884,53.4820979 C-0.50504502,53.1056619 -15.1333939,51.3587602 -24.5103533,43.5847133 C-24.5103533,43.5847133 -25.9913163,50.0743935 -32.4042789,55.9246038 C-25.9920011,61.7720648 -24.5103506,68.2646851 -24.5103506,68.2646851 Z" fill="#FFFFFF" fill-rule="nonzero" opacity="0.500283062" mask="url(#mask-9)"></path>
                        </g>
                        <g id="path2895" transform="translate(14.933025, 0.000000)">
                            <mask id="mask-12" fill="white">
                                <use xlink:href="#path-11"></use>
                            </mask>
                            <use id="Mask" fill="url(#radialGradient-10)" fill-rule="nonzero" xlink:href="#path-11"></use>
                            <path d="M-53.338164,54.3110549 C-49.9641465,51.7153219 -44.4597773,46.1654477 -42.9571395,36.7762918 C-45.4253312,36.7791027 -47.2840272,34.9507678 -47.2840272,32.6959721 C-47.2840272,30.4411799 -45.4253312,28.6128462 -43.1330938,28.6128462 C-40.8408557,28.6128462 -38.982159,30.4411799 -38.982159,32.6959721 C-38.982159,34.0238937 -39.6350098,35.2111787 -40.6323861,35.9568023 C-37.3953511,38.7412697 -27.7774021,46.0346429 -13.71381,48.0319725 C-15.7332367,34.1940562 -23.1500308,24.7298237 -25.9814256,21.5452085 C-26.7394385,22.5262949 -27.9464346,23.168478 -29.2964084,23.168478 C-31.5886519,23.168478 -33.4473391,21.3401437 -33.4473391,19.0853514 C-33.4473391,16.8305551 -31.5886519,15.0022208 -29.2964084,15.0022208 C-27.004171,15.0022208 -25.1454777,16.8305551 -25.1454777,19.0853514 C-15.6034423,17.7803373 -9.96163136,12.3658853 -7.32279508,9.04698095 C-8.79775939,8.42067456 -9.83341799,6.97411307 -9.83341799,5.29344942 C-9.83341799,3.03865848 -7.97495362,1.21032417 -5.68248321,1.21032417 C-3.36698384,1.21032417 -1.50851136,3.03865848 -1.50851136,5.29344942 C-1.50851136,6.97411307 -2.54395046,8.42067456 -4.01914035,9.04698095 C-1.38029799,12.3658853 4.2615089,17.7803373 13.8065902,19.2579748 C13.8038887,16.8305551 15.6623612,15.0022208 17.9548302,15.0022208 C20.2472993,15.0022208 22.105765,16.8305551 22.105765,19.0853514 C22.105765,21.3401437 20.2472993,23.168478 17.9548302,23.168478 C16.6048483,23.168478 15.3978502,22.5262949 14.639842,21.5452085 C11.8086729,24.7298237 4.3914107,34.1940562 2.36276375,48.0320053 C16.4355788,46.0344515 26.0535197,38.7413018 29.2907924,35.9568345 C28.2936471,35.2112115 27.6405721,34.0239265 27.6405721,32.6960036 C27.6405721,30.4412113 29.4990243,28.612879 31.7914934,28.612879 C34.0839624,28.612879 35.9424281,30.4412113 35.9424281,32.6960036 C35.9424281,34.9507999 34.0839624,36.7791349 31.7914934,36.7791349 C33.1184045,46.1654785 38.6223131,51.7151305 41.9968087,54.3110871 C42.632817,52.8602188 44.1038668,51.8414799 45.8126625,51.8414799 C48.1046655,51.8414799 49.9635905,53.6695827 49.9635905,55.9243763 C49.9635905,58.1793955 48.1046655,60.0075009 45.8126625,60.0075009 C44.1038668,60.0075009 42.632817,58.9889902 41.9968087,57.5378904 C38.6223131,60.1336334 33.1184045,65.6835123 31.6157741,75.0726636 C34.0839624,75.0699865 35.9424281,76.8983328 35.9424281,79.1531177 C35.9424281,81.407916 34.0839624,83.2362423 31.7914934,83.2362423 C29.4990243,83.2362423 27.6405721,81.407916 27.6405721,79.1531177 C27.6405721,77.8251922 28.2936471,76.6379159 29.2907924,75.8922909 C26.0537493,73.1078175 16.4358085,65.8149054 2.37221902,63.8173383 C4.3914107,77.6546127 11.8086729,87.1197608 14.639842,90.3039149 C15.3978502,89.3228371 16.6048483,88.6806494 17.9548302,88.6806494 C20.2472993,88.6806494 22.105765,90.5089823 22.105765,92.7637739 C22.105765,95.0185589 20.2472993,96.8468985 17.9548302,96.8468985 C15.6623612,96.8468985 13.8038887,95.0185589 13.8038887,92.7637739 C4.2615089,94.0687833 -1.38006836,99.4832468 -4.01914035,102.802147 C-2.54417334,103.428225 -1.50851136,104.875008 -1.50851136,106.555671 C-1.50851136,108.810463 -3.36698384,110.638796 -5.65945289,110.638796 C-7.97495362,110.638796 -9.83341799,108.810463 -9.83341799,106.555671 C-9.83341799,104.875008 -8.79798699,103.428225 -7.32279508,102.802147 C-9.96163136,99.4832468 -15.6036767,94.0687833 -25.1485169,92.5906914 C-25.1454777,95.0185589 -27.004171,96.8468985 -29.2964084,96.8468985 C-31.5886519,96.8468985 -33.4473391,95.0185589 -33.4473391,92.7637739 C-33.4473391,90.5089823 -31.5886519,88.6806494 -29.2964084,88.6806494 C-27.9464346,88.6806494 -26.7394385,89.3228371 -25.9814256,90.3039149 C-23.1500308,87.1197608 -15.7332367,77.6546127 -13.7045803,63.8173383 C-27.7771766,65.8151263 -37.3951228,73.1078175 -40.6323922,75.8922909 C-39.6350152,76.6379159 -38.9821651,77.8251922 -38.9821651,79.1531177 C-38.9821651,81.407916 -40.8408618,83.2362423 -43.1330992,83.2362423 C-45.425338,83.2362423 -47.2840333,81.407916 -47.2840333,79.1531177 C-47.2840333,76.8983328 -45.425338,75.0699865 -43.1330992,75.0699865 C-44.4597699,65.683519 -49.9641384,60.1338677 -53.3381565,57.5379038 C-53.9746335,58.9887761 -55.4454476,60.0075209 -57.1540177,60.0075209 C-59.4462558,60.0075209 -61.3049525,58.1794088 -61.3049525,55.9243897 C-61.3049525,53.669594 -59.4462558,51.841492 -57.1540177,51.841492 C-55.4454551,51.8414491 -53.9746416,52.8599597 -53.338164,54.3110549 Z M-39.443376,68.2646851 C-30.0664106,60.4906475 -15.4378313,58.7437459 -8.12688551,58.3701336 C-8.55441469,65.5709929 -10.3379319,79.9263773 -18.2276972,89.1340532 C-18.2276972,89.1340532 -11.620795,90.5930841 -5.66882036,96.9126419 C0.290494268,90.5901125 6.88540518,89.1340265 6.88540518,89.1340265 C-1.00437699,79.9263505 -2.7878895,65.5709796 -3.17208385,58.367423 C4.09550825,58.7437057 18.7243198,60.4906074 28.101273,68.2646517 C28.101273,68.2646517 29.5822374,61.7749762 35.9949656,55.9238542 C29.5848173,50.0886592 28.1013271,43.5846939 28.1013271,43.5846939 C18.7243603,51.3587415 4.09554877,53.1056385 -3.21540246,53.4792441 C-2.78784898,46.2789683 -1.00433647,31.9231429 6.88544571,22.715461 C6.88544571,22.715461 0.290528037,21.2591447 -5.65660281,14.9543412 C-11.6209976,21.2564643 -18.2276722,22.7155038 -18.2276722,22.7155038 C-10.3381285,31.9231811 -8.55438294,46.2790058 -8.17018656,53.4820979 C-15.4380704,53.1056619 -30.0664194,51.3587602 -39.4433787,43.5847133 C-39.4433787,43.5847133 -40.9243417,50.0743935 -47.3373043,55.9246038 C-40.9250265,61.7720648 -39.443376,68.2646851 -39.443376,68.2646851 Z" fill="#FFFFFF" fill-rule="nonzero" opacity="0.500283062" mask="url(#mask-12)"></path>
                        </g>
                    </g>
                </g>
            </g>
        </g>
    </g>
</svg>