<svg xmlns="http://www.w3.org/2000/svg"
     viewBox="320 90 250 240">
  <g fill-rule="evenodd">
    <path fill="#e73900"
          d="M436.022 237.986c-22.544 39.507-35.556 32.036-75.42 77.124 13.632-26.445 36.423-52.813 41.003-62.772 3.853-7.566 9.829-15.373 17.16-22.204 5.628-5.579 9.446-15.34 15.49-19.76-3.926 12.57 8.884 14.627 1.767 27.612z"/>
    <path fill="#e73900"
          d="M432.254 216.099c-5.991 5.893-5.551 11.488-8.978 17.342-1.534 5.554-6.414 11.708-11.803 17.186-8.525 8.852-63.585 57.41-82.235 66.59 23.18-19.552 47.137-52.52 53.769-64.718 5.432-9.2 13.147-18.331 22.114-25.94 6.946-6.28 13.218-7.954 20.392-12.642 4.816-2.327 6.847-.973 6.74 2.182z"/>
    <path fill="#e73900"
          d="M433.441 211.473c-5.884 4.44-12.637 14.051-16.975 19.288-3.09 5.532-8.413 10.619-13.775 14.805-8.556 6.826-44.992 42.976-76 46.055 36.149-14.489 49.534-42.257 58.27-53.337 6.844-8.215 15.042-15.712 23.358-20.94 11.482-7.216 22.328-6.675 25.122-5.87z"/>
    <path fill="#e78c00"
          d="M432.716 216.8c-4.887 4.814-4.71 9.2-7.58 13.907-1.372 4.414-5.395 9.4-9.797 13.869-6.97 7.217-47.507 41.687-66.092 55.406 38.273-34.952 38.07-43.288 43.65-53.08 4.548-7.398 10.89-14.81 18.169-21.063 5.65-5.146 11.658-8.98 17.44-12.881 3.857-1.975 4.39 1.358 4.21 3.842z"/>
    <path fill="#e78c00"
          d="M434.517 232.502c-12.6 30.025-23.578 22.017-50.431 53.703 10.927-16.666 18.911-29.41 27.662-40.25 1.913-5.006 17.687-31.465 21.835-34.974-1.2 7.935 4.562 12.876.934 21.521z"/>
    <path fill="#e7e100"
          d="M431.494 232.046c-6.576 17-17.39 20.028-32.066 34.798 11.445-14.326 10.063-22.058 17.862-29.74 1.562-3.069 14.133-23.523 16.584-25.315-1.592 5.098.111 13.816-2.38 20.257z"/>
    <path fill="#e78c00"
          d="M421.528 225.257c-2.32 4.15-6.313 7.967-10.336 11.108-6.42 5.121-41.346 34.342-52.397 37.244 16.128-10.243 32.54-34.394 39.094-42.708 5.135-6.163 11.674-12.99 17.526-15.71 8.84-4.112 15.596-4.898 18.173-4.13 2.841-.714-8.806 10.267-12.06 14.196z"/>
    <path fill="#e7e100"
          d="M433.178 216.551c-3.041 2.894-3.09 5.694-4.942 8.59-.961 2.763-3.5 5.797-6.244 8.489-4.349 4.352-31.406 31.533-40.46 35.962 11.622-9.574 23.566-29.227 27.19-35.267 2.931-4.551 6.917-9.049 11.415-12.776 3.5-3.08 7.166-5.31 10.701-7.592 2.336-1.122 2.532 1.019 2.34 2.594z"/>
    <path fill="#e7e100"
          d="M432.457 215.072c-2.658 1.474-4.37 4.654-6.676 6.852-1.96 2.584-4.554 4.523-7 5.945-3.93 2.352-28.66 24.307-34.034 23.896 9.256-3.93 22.26-26.184 26.999-30.911 3.63-3.44 10.212-6.413 13.808-7.959 2.906-1.407 6.463-1.996 8.896-2.468-.337 1.84-.98 2.956-1.993 4.645z"/>
    <path fill="#ffff9e"
          d="M431.093 218.433c-5.067 8.749-13.457 15.772-22.646 23.395 5.347-6.06 10.783-14.467 12.213-17.576 1.203-2.362 3.069-4.8 5.357-6.932 1.758-1.742 4.25-3.49 6.138-4.87-1.226 3.925 1.16 1.929-1.062 5.983z"/>
    <path fill="#ffff9e"
          d="M425.597 219.79c-8.87 6.018-13.318 13.29-22.427 15.861 6.39-4.438 12.707-15.218 15.914-17.94 5.393-4.576 11.924-5.466 13.021-5.137-4.269 3.93-2.363 4.28-6.508 7.216z"/>
  </g>

  <path
    d="M554.848 97.636c-10.575-.86-95.305-4.096-142.073 107.31l32.61 33.206.12.122c112.235-44.74 110.53-129.508 109.862-140.097l-.519-.541z"
    stroke-width="3" stroke="#000" fill-rule="evenodd" fill="#ececec"/>
  <path
    d="M504.732 149.563c-6.81-6.934-18.486-6.547-26.024.855-7.538 7.403-8.13 19.063-1.32 25.998 6.809 6.934 18.484 6.559 26.022-.844 7.538-7.403 8.131-19.075 1.322-26.01zm-1.617 1.588c6.019 6.129 5.497 16.39-1.166 22.933-6.663 6.544-16.926 6.873-22.945.744-6.019-6.13-5.498-16.379 1.165-22.922 6.663-6.544 16.926-6.885 22.946-.755z"
    fill="#ccc"/>
  <path
    d="M500.415 107.497l24.062-7.764 24.95-2.365 5.79.586-1.875 25.455-7.316 25.633-2.733 4.16-43.88-45.09M434.53 163.344s-19.282-20.174-62.468 45.848c0 0 47.023-43.963 51.69-27.886M487.55 217.335s19.822 19.645-46.973 61.626c0 0 44.809-46.218 28.82-51.177"
    stroke-width="3" stroke="#000" fill-rule="evenodd" fill="red"/>
  <path d="M419.256 189.042l-6.434 15.912 33.036 33.232 14.899-6.884-41.5-42.26z" stroke-width="3" stroke="#000"
        fill-rule="evenodd" fill="#b3b3b3"/>
  <path
    d="M486.564 227.358l-13.898 6.27-.171-4.26-3.808-1.426 18.818-11.47 2.8 9.795s2.511 19.302-47.626 51.567c48.062-37.237 43.7-50.664 43.885-50.476zM372.121 208.027s42.706-45.613 55.414-33.018c1.402 1.39-3.61 6.127-3.61 6.127l-6.204-3.868-17.35 9.29-28.25 21.47z"
    fill-rule="evenodd" fill="#d20000"/>
  <path
    d="M448.727 219.054c-1.728 3.177-4.735 7.005-9.856 11.608.096.22.177.475.25.747l6.737 6.773 12.003-5.544c.633-.873 1.164-1.686 1.73-2.52l-10.864-11.064z"
    fill-rule="evenodd" fill="#999"/>
  <path
    d="M465.53 193.045c-1.143-1.368-2.145-1.957-2.145-1.957l-16.646 14.498s5.415 3.571.816 12.28l10.888 11.086c14.717-21.527 10.37-31.978 7.087-35.907zM418.861 190.469l-6.455 13.643 4.709 5.603 10.06-12.801-8.314-6.445z"
    fill-rule="evenodd" fill="#ccc"/>
  <path d="M500.007 107.898l43.345 44.139" stroke-width="3" stroke="#000" fill="none"/>
  <path d="M502.798 172.52a16.584 18.029 45.52 1 1-23.24-23.666 16.584 18.029 45.52 1 133.169 NaN NaNz"
        stroke-linecap="round" stroke-width="3" stroke="#000" fill="#b3b3b3"/>
  <path d="M498.74 168.388a10.793 11.733 45.52 1 1-15.125-15.401 10.793 11.733 45.52 1 121.586 NaN NaNz"
        stroke-linecap="round" stroke-width="3" stroke="#000" fill="#80e5ff"/>
  <path d="M419.605 189.806l40.948 41.697" stroke-width="3" stroke="#000" fill="none"/>
  <path d="M459.76 188.22l3.32 3.38-55.129 54.138-3.32-3.38 55.13-54.139z" stroke-linecap="round" stroke-width="3"
        stroke="#000" fill="red"/>
  <path d="M461.363 227.018s52.325-21.868 76.66-69.38c-63.56 63.525-89.018 56.796-89.018 56.796l12.358 12.584z"
        fill-rule="evenodd" fill="#ccc"/>
  <path fill="#fff" d="M502.988 155.483l-.519 9.372-22.778.846.518-9.371z"/>
  <path d="M498.74 168.388a10.793 11.733 45.52 1 1-15.125-15.401 10.793 11.733 45.52 1 121.586 NaN NaNz"
        stroke-linecap="round" stroke-width="3" stroke="#000" fill="none"/>
  <path d="M541.988 144.521s10.82-22.064 8.718-41.767c-11.275 30.995-20.523 29.747-20.523 29.747l11.805 12.02z"
        fill-rule="evenodd" fill="#d20000"/>
  <path
    d="M487.55 217.335s19.822 19.645-46.973 61.626c0 0 44.809-46.218 28.82-51.177M434.53 163.344s-19.282-20.174-62.468 45.848c0 0 47.023-43.963 51.69-27.886"
    stroke-width="3" stroke="#000" fill="none"/>
  <path
    d="M506.264 106.919S537.071 96.22 550.7 99.07c13.629 2.85-44.659 8.436-44.435 7.848zM444.621 155.936c-.222-.937 25.354-33.198 52.34-42.007 10.313.781 15.177 10.846 12.81 12.466-20.509 14.03-63.826 35.113-65.15 29.54z"
    fill-rule="evenodd" fill="#fff"/>
  <path
    d="M554.848 97.636c-10.575-.86-95.305-4.096-142.073 107.31l32.61 33.206.12.122c112.235-44.74 110.53-129.508 109.862-140.097l-.519-.541z"
    stroke-width="3" stroke="#000" fill="none"/>
</svg>
